<?xml version="1.0" encoding="utf-8"?>
<!-- Generator: Adobe Illustrator 24.1.1, SVG Export Plug-In . SVG Version: 6.00 Build 0)  -->
<svg version="1.1" id="Layer_1" xmlns="http://www.w3.org/2000/svg" xmlns:xlink="http://www.w3.org/1999/xlink" x="0px" y="0px"
	 viewBox="0 0 100 100" style="enable-background:new 0 0 100 100;" xml:space="preserve">
<style type="text/css">
	.st0{opacity:0;}
	.st1{fill:#FFFFFF;}
	
</style>
<g class="st0">
	<rect class="st1" width="100" height="100"/>
</g>
<path id="bg" d="M83.3,47V31.7c0-1.4-0.7-2.9-1.9-3.7L52.7,8c-1.6-1.1-3.6-1.1-5.2,0L18.8,28c-1.1,0.9-1.9,2.3-2,3.7V47h-1.3V31.7
	c0-1.9,0.9-3.7,2.4-4.7L46.7,6.8c2-1.4,4.6-1.4,6.6,0L82,26.9c1.6,1,2.4,2.9,2.4,4.7V47C84.5,47,83.3,47,83.3,47z M13.5,31.7
	c0-2.6,1.3-4.9,3.3-6.3L45.5,5.2c1.3-0.9,2.9-1.4,4.5-1.4s3.2,0.6,4.5,1.4l28.7,20.1c2.2,1.4,3.3,3.9,3.3,6.3V47h2.6V31.7
	c0-3.4-1.6-6.6-4.3-8.5L56,3.2c-3.6-2.4-8.2-2.4-11.8,0l-28.9,20c-2.7,1.9-4.5,5.2-4.5,8.5V47h2.6C13.5,47,13.5,31.7,13.5,31.7z
	 M15.4,74.2v14.1c0,3.2,2.6,5.7,5.7,5.7h57.6c3.2,0,5.7-2.6,5.7-5.7V74.2h-1.3v14.1c0,2.4-2,4.5-4.5,4.6H21.3c-2.4,0-4.5-2-4.5-4.6
	l0,0V74.2H15.4z M86.5,88.3c0,4.3-3.4,7.8-7.8,7.8H21.3c-4.3,0-7.8-3.4-7.8-7.8V74.2h-2.6v14.1c0,5.7,4.6,10.3,10.3,10.3h57.5
	C84.4,98.6,89,94,89,88.3V74.2h-2.6L86.5,88.3z M20.9,86.8c-0.6-0.2-1.1-0.5-1.6-0.8l0.6-1.2c0.5,0.3,0.9,0.6,1.4,0.7
	c0.5,0.2,1,0.2,1.6,0.2c0.6,0,1.1-0.1,1.5-0.3c0.4-0.2,0.5-0.5,0.5-0.9c0-0.3-0.2-0.6-0.5-0.8c-0.3-0.2-0.9-0.4-1.6-0.5
	c-1.2-0.3-2-0.6-2.5-1c-0.5-0.4-0.8-1-0.8-1.7c0-0.5,0.1-1,0.4-1.5c0.3-0.4,0.7-0.8,1.3-1c0.5-0.2,1.2-0.4,1.9-0.4
	c0.6,0,1.3,0.1,1.9,0.3c0.6,0.2,1.1,0.5,1.4,0.8l-0.6,1.2c-0.8-0.7-1.7-1-2.7-1c-0.6,0-1.1,0.1-1.4,0.4s-0.5,0.6-0.5,1
	c0,0.4,0.2,0.6,0.5,0.8c0.3,0.2,0.8,0.4,1.6,0.5c0.8,0.2,1.4,0.4,1.9,0.6c0.5,0.2,0.9,0.5,1.1,0.8c0.3,0.3,0.4,0.8,0.4,1.3
	c0,0.6-0.1,1-0.4,1.4c-0.3,0.4-0.7,0.7-1.3,1c-0.6,0.2-1.2,0.3-2,0.3C22.2,87.1,21.6,87,20.9,86.8z M29.1,86.1c-0.7-0.7-1-1.6-1-2.9
	v-5.5h1.7v5.6c0,0.8,0.2,1.4,0.6,1.8c0.4,0.4,0.9,0.6,1.7,0.6c0.7,0,1.3-0.2,1.6-0.6s0.6-1,0.6-1.8v-5.6h1.7v5.5
	c0,1.3-0.3,2.2-1,2.9c-0.7,0.7-1.6,1-2.9,1C30.7,87.1,29.8,86.7,29.1,86.1z M37.8,77.7h4c1,0,1.8,0.2,2.3,0.7c0.6,0.5,0.8,1.1,0.8,2
	s-0.3,1.5-0.8,2c-0.6,0.5-1.3,0.7-2.3,0.7h-2.3v3.9h-1.7V77.7z M41.6,81.8c0.6,0,1-0.1,1.3-0.4s0.4-0.6,0.4-1c0-0.5-0.1-0.8-0.4-1
	c-0.3-0.2-0.7-0.4-1.3-0.4h-2.1v2.8H41.6z M46.5,77.7h4c1,0,1.8,0.2,2.3,0.7c0.6,0.5,0.8,1.1,0.8,2s-0.3,1.5-0.8,2
	c-0.6,0.5-1.3,0.7-2.3,0.7h-2.3v3.9h-1.7V77.7z M50.3,81.8c0.6,0,1-0.1,1.3-0.4s0.4-0.6,0.4-1c0-0.5-0.1-0.8-0.4-1
	c-0.3-0.2-0.7-0.4-1.3-0.4h-2.1v2.8H50.3z M56.8,86.5c-0.7-0.4-1.2-0.9-1.5-1.7s-0.5-1.6-0.5-2.5c0-1,0.2-1.8,0.5-2.5
	c0.4-0.7,0.9-1.3,1.5-1.6c0.7-0.4,1.4-0.6,2.3-0.6s1.7,0.2,2.3,0.6c0.7,0.4,1.2,0.9,1.5,1.6s0.5,1.6,0.5,2.5c0,1-0.2,1.8-0.5,2.5
	s-0.9,1.3-1.5,1.7c-0.7,0.4-1.4,0.6-2.3,0.6C58.3,87.1,57.5,86.9,56.8,86.5z M61.2,84.8c0.5-0.6,0.7-1.4,0.7-2.5
	c0-1.1-0.2-1.9-0.7-2.5c-0.5-0.6-1.1-0.9-2-0.9c-0.9,0-1.5,0.3-2,0.9c-0.5,0.6-0.7,1.4-0.7,2.5s0.2,1.9,0.7,2.5
	c0.5,0.6,1.1,0.9,2,0.9C60,85.7,60.7,85.4,61.2,84.8z M72.9,86.9h-1.8L70,83.9c-0.1-0.3-0.3-0.5-0.5-0.6c-0.2-0.1-0.5-0.2-0.8-0.2
	H67v3.8h-1.7v-9.3h4c1,0,1.8,0.2,2.4,0.7c0.5,0.5,0.8,1.1,0.8,2c0,0.6-0.2,1.1-0.5,1.6s-0.8,0.7-1.4,0.9c0.5,0.1,0.9,0.5,1.2,1.1
	L72.9,86.9z M69,81.8c0.6,0,1.1-0.1,1.4-0.4c0.3-0.2,0.5-0.6,0.5-1.1c0-0.5-0.1-0.8-0.4-1S69.7,79,69,79h-2.1v2.8H69z M76.3,86.9
	v-7.9h-3v-1.4H81v1.4h-3v7.9H76.3z"/>
<path id="color" fill='#3e0e8f' class="st2" d="M55.9,58.2c-0.1-0.4-0.2-0.6-0.4-0.9c-0.3-0.4-0.8-0.6-1.5-0.6c-1.6,0-2.6,1.5-3,3.2
	c0,0.3-0.1,0.5-0.1,0.8c0,0.2,0,0.5,0,0.7s0,0.4,0,0.6c0.1,1.4,0.8,2.3,2,2.3c1.9,0,2.8-2.1,3-4.3c0-0.3,0-0.5,0-0.8
	c0-0.1,0-0.2,0-0.3s0-0.1,0-0.2C56,58.7,56,58.4,55.9,58.2z M55.9,58.2c-0.1-0.4-0.2-0.6-0.4-0.9c-0.3-0.4-0.8-0.6-1.5-0.6
	c-1.6,0-2.6,1.5-3,3.2c0,0.3-0.1,0.5-0.1,0.8c0,0.2,0,0.5,0,0.7s0,0.4,0,0.6c0.1,1.4,0.8,2.3,2,2.3c1.9,0,2.8-2.1,3-4.3
	c0-0.3,0-0.5,0-0.8c0-0.1,0-0.2,0-0.3s0-0.1,0-0.2C56,58.7,56,58.4,55.9,58.2z M55.9,58.2c-0.1-0.4-0.2-0.6-0.4-0.9
	c-0.3-0.4-0.8-0.6-1.5-0.6c-1.6,0-2.6,1.5-3,3.2c0,0.3-0.1,0.5-0.1,0.8c0,0.2,0,0.5,0,0.7s0,0.4,0,0.6c0.1,1.4,0.8,2.3,2,2.3
	c1.9,0,2.8-2.1,3-4.3c0-0.3,0-0.5,0-0.8c0-0.1,0-0.2,0-0.3s0-0.1,0-0.2C56,58.7,56,58.4,55.9,58.2z M55.9,58.2
	c-0.1-0.4-0.2-0.6-0.4-0.9c-0.3-0.4-0.8-0.6-1.5-0.6c-1.6,0-2.6,1.5-3,3.2c0,0.3-0.1,0.5-0.1,0.8c0,0.2,0,0.5,0,0.7s0,0.4,0,0.6
	c0.1,1.4,0.8,2.3,2,2.3c1.9,0,2.8-2.1,3-4.3c0-0.3,0-0.5,0-0.8c0-0.1,0-0.2,0-0.3s0-0.1,0-0.2C56,58.7,56,58.4,55.9,58.2z
	 M55.9,58.2c0-0.4-0.2-0.7-0.4-0.9c-0.3-0.4-0.8-0.6-1.5-0.7c-1.7,0-2.7,1.6-3,3.4c0,0.3-0.1,0.5-0.1,0.8c0,0.2,0,0.5,0,0.7
	s0,0.4,0,0.6c0.1,1.4,0.8,2.3,2,2.3c1.9,0,2.8-2.1,3-4.3c0-0.3,0-0.5,0-0.8c0-0.1,0-0.2,0-0.3s0-0.1,0-0.2
	C56,58.7,56,58.4,55.9,58.2z M86.8,56.7h-1l-0.4,3.2h0.7c1,0.1,2-0.6,2.2-1.7c0-0.1,0-0.1,0-0.3C88.2,57.1,87.8,56.7,86.8,56.7z
	 M86.8,56.7h-1l-0.4,3.2h0.7c1,0.1,2-0.6,2.2-1.7c0-0.1,0-0.1,0-0.3C88.2,57.1,87.8,56.7,86.8,56.7z M55.9,58.2
	c0-0.4-0.2-0.7-0.4-0.9c-0.3-0.4-0.8-0.6-1.5-0.7c-1.7,0-2.7,1.6-3,3.4c0,0.3-0.1,0.5-0.1,0.8c0,0.2,0,0.5,0,0.7s0,0.4,0,0.6
	c0.1,1.4,0.8,2.3,2,2.3c1.9,0,2.8-2.1,3-4.3c0-0.3,0-0.5,0-0.8c0-0.1,0-0.2,0-0.3s0-0.1,0-0.2C56,58.7,56,58.4,55.9,58.2z M0,49v23
	h100V49H0z M16.5,64.4c1,0,2-0.4,2.9-1.1l0.9,1.9c-1.1,0.9-2.4,1.3-3.9,1.3c-2.7,0-4.2-1.9-4.2-4.6c0-3.7,1.9-7,5.3-7
	c1.6-0.1,3,0.9,3.4,2.3L18.5,58c-0.3-0.7-0.6-1.1-1.3-1.1c-1.6,0-2.6,2.9-2.6,5C14.8,63.6,15.5,64.4,16.5,64.4z M31.3,55.7
	c-0.1,0.3-0.1,0.3-0.1,0.4l-0.9,6c-0.1,2.6-2.3,4.5-4.7,4.3c-0.2,0-0.3,0-0.5,0c-1.7,0-3.1-1.2-3.4-2.9V62l1-6.9
	c0.4-0.3,1-0.3,1.4-0.3c0.6,0,1,0.3,1,0.9v0.1c0,0,0,0.1,0,0.3L24.3,62v0.7c0,1.1,0.6,1.7,1.4,1.7c1.3,0,2-1,2.3-2.6l1-6.8
	c0.4-0.3,0.9-0.3,1.3-0.4c0.6,0,1,0.3,1,0.9C31.3,55.5,31.3,55.7,31.3,55.7z M36.8,59.2c1.4,0.3,2.6,1.7,2.6,3.2
	c0,2.4-1.9,3.9-4.5,3.9c-1.3,0-2.6-0.4-3.4-1.3l0.9-1.7c0.7,0.7,1.7,1,2.7,1c1.3,0,1.7-0.6,1.7-1.3s-0.7-1.1-1.4-1.4
	c-1.6-0.4-2.6-1.7-2.6-3.3c0-2.3,1.6-3.6,4-3.6c1.1,0,2.4,0.4,3.3,1.1l-1.3,1.7c-0.6-0.4-1.3-0.7-2-0.7c-0.9,0-1.4,0.4-1.4,1.1
	S35.9,59,36.8,59.2z M45.7,56.8l-1.1,9.5H42l1.3-9.5h-2.6l0.3-2h7.6l-0.3,2C48.3,56.8,45.7,56.8,45.7,56.8z M58.8,59.4
	c0,3.9-2.2,7-5.9,7c-2.3,0.1-4.3-1.4-4.5-3.7v-0.9c0-4,2.2-7,5.9-7c2.3-0.1,4.3,1.4,4.5,3.7V59.4z M71.6,66.3H69l0.4-7.2l-3,7.2
	h-2.3L63,59.1l-1.4,7.2h-2.4l2.7-11.2c0.4-0.1,0.9-0.3,1.1-0.3c1,0,1.4,0.4,1.6,1.1l1.3,7.8l3.4-8.6c0.4-0.1,0.7-0.3,1.1-0.3
	c1,0,1.4,0.4,1.3,1.4L71.6,66.3z M81.3,56.8h-4.2l-0.4,2.6h3.7l-0.3,2h-3.7L76,64.3h4.5l-0.3,2h-7l1.6-11.4h6.9L81.3,56.8z M90.2,63
	v0.6l-0.1,1.3v0.4c0,0.3,0,0.4,0.1,0.7c-0.6,0.3-1,0.4-1.6,0.4s-1-0.3-1-0.9v-0.1c0-0.1,0-0.1,0-0.3l0.1-1.3v-0.4
	c0-0.9-0.6-1.4-1.3-1.6H85l-0.7,4.5h-2.6l1.6-11.4c1-0.1,2.9-0.1,3.7-0.1c2.4,0,3.9,1,3.9,2.7c0,1.4-0.7,2.7-2,3.3
	C89.8,61.3,90.4,62.1,90.2,63z M86.8,56.7h-1l-0.4,3.2h0.7c1,0.1,2-0.6,2.2-1.7c0-0.1,0-0.1,0-0.3C88.2,57.1,87.8,56.7,86.8,56.7z
	 M55.5,57.4c-0.3-0.4-0.8-0.6-1.5-0.7c-1.7,0-2.7,1.6-3,3.4c0,0.3-0.1,0.5-0.1,0.8c0,0.2,0,0.5,0,0.7s0,0.4,0,0.6
	c0.1,1.4,0.8,2.3,2,2.3c1.9,0,2.8-2.1,3-4.3c0-0.3,0-0.5,0-0.8c0-0.1,0-0.2,0-0.3s0-0.1,0-0.2c0-0.2,0-0.5,0-0.7
	C55.9,57.9,55.7,57.6,55.5,57.4z M55.9,58.2c0-0.4-0.2-0.7-0.4-0.9c-0.3-0.4-0.8-0.6-1.5-0.7c-1.7,0-2.7,1.6-3,3.4
	c0,0.3-0.1,0.5-0.1,0.8c0,0.2,0,0.5,0,0.7s0,0.4,0,0.6c0.1,1.4,0.8,2.3,2,2.3c1.9,0,2.8-2.1,3-4.3c0-0.3,0-0.5,0-0.8
	c0-0.1,0-0.2,0-0.3s0-0.1,0-0.2C56,58.7,56,58.4,55.9,58.2z M86.8,56.7h-1l-0.4,3.2h0.7c1,0.1,2-0.6,2.2-1.7c0-0.1,0-0.1,0-0.3
	C88.2,57.1,87.8,56.7,86.8,56.7z M86.8,56.7h-1l-0.4,3.2h0.7c1,0.1,2-0.6,2.2-1.7c0-0.1,0-0.1,0-0.3C88.2,57.1,87.8,56.7,86.8,56.7z
	 M55.9,58.2c0-0.4-0.2-0.7-0.4-0.9c-0.3-0.4-0.8-0.6-1.5-0.7c-1.7,0-2.7,1.6-3,3.4c0,0.3-0.1,0.5-0.1,0.8c0,0.2,0,0.5,0,0.7
	s0,0.4,0,0.6c0.2,1.3,0.8,2.1,2,2.1c1.9,0,2.8-2,3-4.1c0-0.3,0-0.5,0-0.8v-0.1c0-0.1,0-0.1,0-0.2c0-0.1,0-0.1,0-0.2
	C56,58.7,56,58.4,55.9,58.2z M55.9,58.2c0-0.4-0.2-0.7-0.4-0.9c-0.3-0.4-0.8-0.6-1.5-0.7c-1.7,0-2.7,1.6-3,3.4
	c0,0.3-0.1,0.5-0.1,0.8c0,0.2,0,0.5,0,0.7s0,0.4,0,0.6c0.2,1.3,0.8,2.1,2,2.1c1.9,0,2.8-2,3-4.1c0-0.3,0-0.5,0-0.8v-0.1
	c0-0.1,0-0.1,0-0.2c0-0.1,0-0.1,0-0.2C56,58.7,56,58.4,55.9,58.2z M55.9,58.2c0-0.4-0.2-0.7-0.4-0.9c-0.3-0.4-0.8-0.6-1.5-0.7
	c-1.7,0-2.7,1.6-3,3.4c0,0.3-0.1,0.5-0.1,0.8c0,0.2,0,0.5,0,0.7s0,0.4,0,0.6c0.2,1.3,0.8,2.1,2,2.1c1.9,0,2.8-2,3-4.1
	c0-0.3,0-0.5,0-0.8v-0.1c0-0.1,0-0.1,0-0.2c0-0.1,0-0.1,0-0.2C56,58.7,56,58.4,55.9,58.2z M61.9,30.6v1c0,0.8-0.4,1.5-1.1,1.8
	c-0.4,2.5-2.5,4.4-5.1,4.4h-5.2c-0.1,0-0.1,0-0.2,0c-0.1,0-0.2,0-0.3,0c-0.2,0-0.9,0-1,0c-0.9,0-1.5-0.7-1.5-1.5
	c0-0.9,0.7-1.5,1.5-1.5c0.2,0,0.9,0,1,0c0.7,0,1.2,0.4,1.5,1h4.2c1.3,0,2.5-0.9,2.9-2.1h-0.8v-3.1c0-6.4-3.1-9.3-3.1-9.3
	c-3.1,7.2-13.4,2.1-13.4,9.3h-1v1c0,1.8,1.3,2.1,1.3,2.1l0.6,0.1l0.2,0.5c0.1,0.2,1.9,5.5,7.3,5.5h5.8c-1.5,1.2-3.4,2.1-5.8,2.1
	c0,0,0,0,0,0s0,0,0,0s0,0,0,0l0,0c-5.1,0-8.1-4-9.1-6.4c-1-0.5-2.3-1.7-2.3-3.9v-1h0c0,0,0-0.1,0-4.1c0-7.2,6.2-11.4,11.4-11.4
	c4.1,0,5.2,2.1,5.2,2.1c4.1,0,6.2,5.2,6.2,9.3v2.4C61.5,29.2,61.9,29.9,61.9,30.6z"/>
</svg>
