<?xml version="1.0" encoding="utf-8"?>
<!-- Generator: Adobe Illustrator 24.1.1, SVG Export Plug-In . SVG Version: 6.00 Build 0)  -->
<svg version="1.1" id="Layer_1" xmlns="http://www.w3.org/2000/svg" xmlns:xlink="http://www.w3.org/1999/xlink" x="0px" y="0px"
	 viewBox="0 0 100 100" style="enable-background:new 0 0 100 100;" xml:space="preserve">
<style type="text/css">
	.st0{opacity:0;}
	.st1{fill:#FFFFFF;}
</style>
<g class="st0">
	<rect class="st1" width="100" height="100"/>
</g>
<path id="bg" d="M83.3,47V31.7c0-1.4-0.7-2.9-1.9-3.7L52.7,8c-1.6-1.1-3.6-1.1-5.2,0L18.8,28c-1.1,0.9-1.9,2.3-2,3.7V47h-1.3V31.7
	c0-1.9,0.9-3.7,2.4-4.7L46.7,6.8c2-1.4,4.6-1.4,6.6,0L82,26.9c1.6,1,2.4,2.9,2.4,4.7V47C84.5,47,83.3,47,83.3,47z M13.5,31.7
	c0-2.6,1.3-4.9,3.3-6.3L45.5,5.2c1.3-0.9,2.9-1.4,4.5-1.4s3.2,0.6,4.5,1.4l28.7,20.1c2.2,1.4,3.3,3.9,3.3,6.3V47h2.6V31.7
	c0-3.4-1.6-6.6-4.3-8.5L56,3.2c-3.6-2.4-8.2-2.4-11.8,0l-28.9,20c-2.7,1.9-4.5,5.2-4.5,8.5V47h2.6C13.5,47,13.5,31.7,13.5,31.7z
	 M15.4,74.2v14.1c0,3.2,2.6,5.7,5.7,5.7h57.6c3.2,0,5.7-2.6,5.7-5.7V74.2h-1.3v14.1c0,2.4-2,4.5-4.5,4.6H21.3c-2.4,0-4.5-2-4.5-4.6
	l0,0V74.2H15.4z M86.5,88.3c0,4.3-3.4,7.8-7.8,7.8H21.3c-4.3,0-7.8-3.4-7.8-7.8V74.2h-2.6v14.1c0,5.7,4.6,10.3,10.3,10.3h57.5
	C84.4,98.6,89,94,89,88.3V74.2h-2.6L86.5,88.3z M26.4,83.4c0.2,0.3,0.2,0.6,0.2,1c0,0.6-0.1,1-0.4,1.4s-0.7,0.7-1.3,0.9
	c-0.5,0.2-1.2,0.3-2,0.3c-0.5,0-0.9,0-1.4-0.1c-0.4-0.1-0.8-0.2-1.2-0.4c-0.4-0.2-0.7-0.4-1-0.6l0.6-1.2c0.5,0.3,0.9,0.6,1.4,0.8
	c0.5,0.2,1,0.2,1.6,0.2s1.1-0.1,1.5-0.3c0.3-0.2,0.5-0.5,0.5-0.9c0-0.2-0.1-0.4-0.2-0.6c-0.2-0.2-0.4-0.3-0.7-0.4
	c-0.3-0.1-0.7-0.2-1.2-0.3c-0.5-0.1-1-0.2-1.4-0.4c-0.4-0.2-0.8-0.3-1-0.5c-0.3-0.2-0.5-0.5-0.6-0.7c-0.1-0.3-0.2-0.6-0.2-1
	c0-0.5,0.1-1,0.4-1.4s0.7-0.8,1.2-1s1.2-0.4,1.9-0.4c0.4,0,0.9,0,1.3,0.1s0.8,0.2,1.1,0.4c0.3,0.2,0.6,0.4,0.9,0.6L25.9,80
	c-0.4-0.3-0.8-0.6-1.3-0.7c-0.4-0.2-0.9-0.2-1.4-0.2c-0.6,0-1.1,0.1-1.4,0.4c-0.3,0.2-0.5,0.6-0.5,1c0,0.3,0.1,0.5,0.2,0.6
	c0.1,0.2,0.4,0.3,0.7,0.4s0.7,0.2,1.1,0.3c0.5,0.1,1,0.2,1.4,0.4c0.4,0.1,0.8,0.3,1.1,0.5C26,82.9,26.3,83.1,26.4,83.4z M34.6,81.7
	h-4.7v-3.9h-1.6V87h1.6v-4h4.7v4h1.6v-9.2h-1.6V81.7z M38.2,87h1.7v-9.2h-1.7V87z M48.2,78.5c0.5,0.5,0.8,1.1,0.8,2
	c0,0.8-0.3,1.5-0.8,2c-0.6,0.5-1.3,0.7-2.3,0.7h-2.3V87h-1.7v-9.2h4C46.9,77.8,47.7,78.1,48.2,78.5z M47.4,80.5c0-0.4-0.1-0.8-0.4-1
	c-0.3-0.2-0.7-0.4-1.3-0.4h-2.1v2.8h2.1c0.6,0,1-0.1,1.3-0.4C47.3,81.3,47.4,80.9,47.4,80.5z M56.8,78.5c0.5,0.5,0.8,1.1,0.8,2
	c0,0.8-0.3,1.5-0.8,2c-0.6,0.5-1.3,0.7-2.3,0.7h-2.3V87h-1.7v-9.2h4C55.5,77.8,56.3,78.1,56.8,78.5z M56.1,80.5c0-0.4-0.1-0.8-0.4-1
	c-0.3-0.2-0.7-0.4-1.3-0.4h-2.1v2.8h2.1c0.6,0,1-0.1,1.3-0.4C55.9,81.3,56.1,80.9,56.1,80.5z M59.1,87h1.7v-9.2h-1.7V87z M69,84.3
	l-5-6.4h-1.2V87h1.6v-6.4l4.9,6.4h1.3v-9.2H69V84.3z M76.7,82v1.2h2v2.3c-0.2,0.1-0.4,0.1-0.7,0.2c-0.4,0.1-0.7,0.1-1.1,0.1
	c-1,0-1.7-0.3-2.2-0.9s-0.8-1.4-0.8-2.6c0-1.1,0.2-1.9,0.7-2.5s1.2-0.9,2.1-0.9c0.5,0,0.9,0.1,1.4,0.2c0.4,0.2,0.8,0.4,1.3,0.7
	l0.6-1.2c-0.4-0.4-0.9-0.6-1.4-0.8c-0.6-0.2-1.2-0.3-1.8-0.3c-0.9,0-1.7,0.2-2.4,0.6c-0.7,0.4-1.2,0.9-1.6,1.6s-0.6,1.5-0.6,2.5
	s0.2,1.8,0.6,2.5s0.9,1.2,1.6,1.6s1.5,0.6,2.5,0.6c0.4,0,0.8,0,1.2-0.1c0.4-0.1,0.8-0.1,1.2-0.2c0.4-0.1,0.7-0.2,1-0.4V82H76.7z"/>
<path id="color" fill='#3e0e8f' class="st2" d="M46.7,61.4L46,57.1l-1.8,4.3l-0.1,0.1h2.6L46.7,61.4z M46.7,61.4L46,57.1l-1.8,4.3l-0.1,0.1h2.6
	L46.7,61.4z M46.7,61.4L46,57.1l-1.8,4.3l-0.1,0.1h2.6L46.7,61.4z M46.7,61.4L46,57.1l-1.8,4.3l-0.1,0.1h2.6L46.7,61.4z M46.7,61.4
	L46,57l-1.9,4.5h0.1l-0.1,0.1h2.6V61.4L46.7,61.4z M46.7,61.4L46,57l-1.9,4.5h0.1l-0.1,0.1h2.6V61.4L46.7,61.4z M0,48.6v23h100v-23
	H0z M36.2,65.9h-2.6l1.6-11.4h6.5l-0.3,2h-3.9l-0.4,3.2h3.2l-0.1,1.9h-3.2L36.2,65.9z M47.3,65.9l-0.4-2.4h-3.6l-1,2.4h-2.4
	l5.3-11.2c0.4-0.1,0.9-0.3,1.3-0.3c0.9,0,1.6,0.6,1.6,1.4l1.9,10.1H47.3z M55.9,58.8c1.6,0.3,2.6,1.6,2.7,3.2c0,2.4-1.9,3.9-4.5,3.9
	c-1.3,0-2.6-0.4-3.4-1.3l0.7-1.6c0.7,0.7,1.7,1,2.7,1c1.3,0,1.7-0.6,1.7-1.3s-0.7-1.1-1.4-1.4c-1.6-0.4-2.6-1.7-2.6-3.3
	c0-2.3,1.6-3.6,4-3.6c1.1,0,2.4,0.4,3.3,1.1l-1.3,1.7c-0.6-0.4-1.3-0.7-2-0.7c-0.9,0-1.4,0.4-1.4,1.1C54.5,58.4,55.2,58.5,55.9,58.8
	z M67.7,56.4h-2.6l-1.3,9.5h-2.6l1.3-9.5h-2.4l0.3-2H68L67.7,56.4z M46,57l-1.9,4.5h0.1l-0.1,0.1h2.6l0-0.1h0L46,57z M46.7,61.4
	L46,57l-1.9,4.5h0.1l-0.1,0.1h2.6V61.4L46.7,61.4z M46,57l-1.9,4.5h2.6L46,57z M46.7,61.4L46,57.1l-1.8,4.3l-0.1,0.1h2.6L46.7,61.4z
	 M46.7,61.4L46,57.1l-1.8,4.3l-0.1,0.1h2.6L46.7,61.4z M46.7,61.4L46,57.1l-1.8,4.3l-0.1,0.1h2.6L46.7,61.4z M46.7,61.4L46,57.1
	l-1.8,4.3l-0.1,0.1h2.6L46.7,61.4z M56.3,21.5H37.1c-0.1,0-0.1,0-0.1,0c-0.6,0-0.9,0.4-0.9,1c0,0.6,0.4,1,1,1h0.3c0.1,0,0.1,0,0.3,0
	c0.4,0,0.7,0.4,0.7,0.9c0,0.4-0.4,0.7-0.9,0.7h-3.2c-0.6,0-1,0.4-1,1c0,0.6,0.4,1,1,1h2.2c0.4,0.1,0.7,0.4,0.7,0.9
	c0,0.4-0.3,0.7-0.6,0.9H32c-0.4,0-0.9,0.3-1,0.7c-0.1,0.3-0.1,0.4-0.1,0.6C31,30.5,31.5,31,32,31h3.6c0.1,0,0.1,0,0.1,0
	c0.3,0,0.6,0.3,0.6,0.7v0.1c-0.1,0.3-0.4,0.4-0.7,0.4h-5.7c-0.3,0-0.6,0.1-0.9,0.3c-0.4,0.1-0.6,0.7-0.4,1.1c0.1,0.4,0.6,0.7,1,0.7
	h5.7c0,0.3-0.1,0.3-0.1,0.6c-0.3,0.7-0.3,0.7-0.9,0.7h-0.1c-0.4,0.1-0.7,0.6-0.7,1v0.9c0.1,0.6,0.4,0.9,0.9,0.9h2.7
	c0.1,0,0.1-0.1,0.1-0.3c0.1-1.1,0.9-2.2,1.9-2.9c0.4-0.3,0.9-0.4,1.4-0.6c1.9-0.3,3.4,1,3.7,2.7c0.1,0.4,0.1,0.7,0.1,1h7.3
	c1,0.1,2-0.6,2.2-1.6c1.1-4.7,2.4-9.2,3.6-13.8C57.6,22.1,57.3,21.5,56.3,21.5z M70.5,35.4c0.3-0.7,0.3-1.4,0.6-2.2
	c0.3-0.7,0-1.6-0.7-2.2c-0.4-0.3-1-0.7-1.4-1c-0.1-0.1-0.3-0.3-0.3-0.4c0.1-0.7,0.1-1.3,0.1-2c0-0.6-0.3-1.3-0.7-1.6
	c-0.4-0.4-1-0.9-1.6-1c-2.2-0.9-4.3-1.4-6.6-1.4c-0.7,0-1.3,0.4-1.4,1.1c-0.6,2.2-1.1,4.3-1.6,6.3c-0.4,1.9-1,3.6-1.4,5.5
	c-0.3,1,0.1,1.4,1,1.6c0.6,0.1,1.1,0.1,1.7,0.1c0-0.1,0-0.3,0.1-0.4c0.1-1.1,0.9-2.2,1.9-2.7c1.4-1,3.4-0.7,4.6,0.7
	c0.3,0.4,0.4,0.9,0.6,1.4c0,0.3,0.1,0.6,0.1,1h4.6c0.6,0.1,1-0.3,1.1-0.9v-0.1c0-0.3,0.1-0.4,0.1-0.9C71.4,35.8,71,35.6,70.5,35.4z
	 M67.5,29.4c0,0.3-0.3,0.4-0.6,0.4h-3.4c-1.1-0.1-2.3-0.1-3.4-0.3c-0.3,0-0.4-0.1-0.7-0.3c-0.3-0.1-0.4-0.4-0.4-0.9
	c0.3-0.9,0.4-1.6,0.6-2.4c0-0.6,0.6-1,1.1-0.9c0.6,0,1.3,0.1,1.9,0.3c1,0.3,2,0.3,2.9,0.6c0.4,0.1,0.9,0.4,1.1,0.7
	C67.4,27.4,67.8,28.4,67.5,29.4z M43.4,37.1c-0.4-1.3-2-2-3.3-1.4c-1.7,0.6-2.6,2.4-2,4.2c0.6,1.3,2,1.9,3.3,1.4
	c1.3-0.6,2.2-1.7,2.2-3.2V38c0,0,0-0.1,0-0.1C43.5,37.7,43.5,37.4,43.4,37.1z M64.1,37.3c-0.4-1.3-2-2-3.3-1.6
	c-1.4,0.4-2.3,1.9-2.2,3.3c0.1,0.6,0.3,1,0.6,1.4c0.9,1,2.4,1.3,3.6,0.4c0.9-0.6,1.4-1.6,1.4-2.7C64.4,37.7,64.4,37.6,64.1,37.3z
	 M34.2,21.6c-0.4,0-0.9,0.4-0.9,0.9c0,0.6,0.4,0.9,0.9,0.9c0.6,0,0.9-0.4,0.9-0.9C35.1,21.9,34.6,21.6,34.2,21.6z M29.9,27.4
	c-0.4,0-0.9,0.4-0.9,0.9s0.4,0.9,0.9,0.9s0.9-0.4,0.9-0.9S30.3,27.4,29.9,27.4z"/>
</svg>
