<?xml version="1.0" encoding="utf-8"?>
<!-- Generator: Adobe Illustrator 24.1.1, SVG Export Plug-In . SVG Version: 6.00 Build 0)  -->
<svg version="1.1" id="Layer_1" xmlns="http://www.w3.org/2000/svg" xmlns:xlink="http://www.w3.org/1999/xlink" x="0px" y="0px"
	 viewBox="0 0 100 100" style="enable-background:new 0 0 100 100;" xml:space="preserve">
<style type="text/css">
	.st0{opacity:0;}
	.st1{fill:#FFFFFF;}
	
</style>
<g class="st0">
	<rect class="st1" width="100" height="100"/>
</g>
<g id="_30">
	<path id="bg" d="M86.5,74.2v14.1c0,4.3-3.5,7.8-7.8,7.8H21.3c-4.3,0-7.8-3.5-7.8-7.8V74.2h-2.6v14.1c0,5.7,4.6,10.3,10.3,10.3h57.5
		C84.4,98.6,89,94,89,88.3V74.2H86.5z M83.3,74.2v14.1c0,2.5-2,4.5-4.5,4.5l0,0H21.3c-2.5,0-4.5-2-4.5-4.5l0,0V74.2h-1.3v14.1
		c0,3.2,2.6,5.7,5.7,5.7h57.6c3.2,0,5.7-2.6,5.7-5.7V74.2H83.3z M84.8,23.3L56,3.2c-3.6-2.4-8.3-2.4-11.8,0l-28.9,20
		c-2.8,1.9-4.4,5.1-4.4,8.5V47h2.6V31.8c0-2.5,1.2-4.9,3.3-6.4L45.5,5.3c1.3-0.9,2.8-1.4,4.4-1.4c1.6,0,3.1,0.5,4.4,1.4L83,25.4
		c2.1,1.4,3.3,3.8,3.3,6.4v15.3h2.6V31.8C89.1,28.4,87.5,25.2,84.8,23.3L84.8,23.3z M82.2,27L53.5,7c-2-1.4-4.6-1.4-6.6,0L18,27
		c-1.6,1.1-2.5,2.9-2.5,4.8v15.3h1.3V31.8c0-1.5,0.7-2.9,1.9-3.7L47.5,8c1.6-1.1,3.6-1.1,5.2,0l28.7,20c1.2,0.9,1.9,2.2,1.9,3.7V47
		h1.3V31.8C84.7,29.8,83.7,28,82.2,27L82.2,27z M25.1,82.4v3.5c-0.3,0.2-0.7,0.3-1.2,0.4s-0.9,0.1-1.4,0.1c-0.7,0-1.4-0.1-1.9-0.4
		s-1-0.7-1.3-1.3c-0.3-0.6-0.4-1.2-0.4-2s0.1-1.4,0.4-2s0.7-1,1.2-1.3s1.2-0.4,1.9-0.4c0.5,0,1,0.1,1.4,0.2s0.8,0.4,1.1,0.6l-0.4,1
		c-0.3-0.3-0.7-0.5-1-0.6S22.8,80,22.4,80c-0.7,0-1.3,0.2-1.7,0.7c-0.4,0.4-0.6,1.1-0.6,2s0.2,1.6,0.6,2c0.4,0.5,1,0.7,1.8,0.7
		c0.5,0,0.9-0.1,1.4-0.2v-1.8h-1.6v-0.9L25.1,82.4L25.1,82.4z M27.3,85.6c-0.5-0.5-0.8-1.3-0.8-2.3V79h1.3v4.4
		c0,0.6,0.1,1.1,0.4,1.4s0.7,0.5,1.3,0.5c0.6,0,1-0.2,1.3-0.5s0.4-0.8,0.4-1.4V79h1.3v4.3c0,1-0.3,1.7-0.8,2.2s-1.3,0.8-2.2,0.8
		C28.6,86.4,27.9,86.1,27.3,85.6z M39.6,86.3l-0.7-1.7h-3.5l-0.7,1.7h-1.3l3.3-7.2h1.1l3.3,7.2H39.6z M35.8,83.6h2.7l-1.3-3.1
		L35.8,83.6z M47.7,86.3h-1.4l-0.9-2.4c-0.1-0.2-0.2-0.4-0.4-0.5s-0.4-0.1-0.7-0.1H43v3h-1.3V79h3.1c0.8,0,1.4,0.2,1.9,0.5
		c0.4,0.4,0.6,0.9,0.6,1.5c0,0.5-0.1,0.9-0.4,1.2c-0.3,0.3-0.6,0.6-1.1,0.7c0.4,0.1,0.7,0.4,0.9,0.9L47.7,86.3z M44.6,82.3
		c0.5,0,0.9-0.1,1.1-0.3c0.2-0.2,0.4-0.5,0.4-0.8c0-0.4-0.1-0.6-0.4-0.8c-0.2-0.2-0.6-0.3-1.1-0.3H43v2.2L44.6,82.3L44.6,82.3z
		 M54.3,86.3l-0.7-1.7H50l-0.7,1.7H48l3.3-7.2h1.1l3.3,7.2H54.3z M50.5,83.6h2.7l-1.3-3.1L50.5,83.6z M61.3,79h1.2v7.2h-1l-3.9-5.1
		v5.1h-1.2V79h1l3.9,5.1V79z M65.8,86.3v-6.2h-2.4V79h6.1v1.1h-2.4v6.2C67.1,86.3,65.8,86.3,65.8,86.3z M70.4,86.3V79h4.8v1h-3.6v2
		H75v1h-3.3v2.1h3.6v1h-4.9C70.4,86.1,70.4,86.3,70.4,86.3z M76.4,86.3V79h4.8v1h-3.6v2h3.3v1h-3.3v2.1h3.6v1h-4.8V86.3z"/>
	<path id="color" fill='#3e0e8f' class="st2" d="M26.9,59.3c0-0.1,0-0.3-0.1-0.4c0-0.1,0-0.2-0.1-0.3v-0.1v-0.1l0,0c0-0.1-0.1-0.1-0.1-0.2
		c0-0.1-0.1-0.1-0.1-0.2l-0.1-0.1c-0.1-0.1-0.1-0.1-0.2-0.1c-0.3-0.2-0.7-0.4-1.1-0.4v0.1c-0.8,0-1.5,0.4-1.9,1.1
		c0,0.1-0.1,0.1-0.1,0.2C23,58.9,23,59,22.9,59.2c0,0.1-0.1,0.2-0.1,0.3c0,0,0,0.1-0.1,0.1c-0.1,0.1-0.1,0.3-0.1,0.4
		c-0.1,0.3-0.2,0.7-0.2,1s-0.1,0.6-0.1,0.9c0,1.6,0.7,2.5,1.9,2.5c0.9,0,1.5-0.5,2-1.3c0.1-0.1,0.1-0.1,0.1-0.2c0,0,0,0,0-0.1l0,0
		c0.1-0.2,0.2-0.4,0.3-0.6c0,0,0,0,0-0.1l0,0c0.1-0.2,0.1-0.4,0.2-0.6v-0.1c0-0.2,0.1-0.5,0.1-0.7c0-0.3,0-0.5,0-0.8
		C26.9,59.7,26.9,59.5,26.9,59.3z M26.9,59.3c0-0.1,0-0.3-0.1-0.4c0-0.1,0-0.2-0.1-0.3v-0.1v-0.1l0,0c0-0.1-0.1-0.1-0.1-0.2
		c0-0.1-0.1-0.1-0.1-0.2l-0.1-0.1c-0.1-0.1-0.1-0.1-0.2-0.1c-0.3-0.2-0.7-0.4-1.1-0.4v0.1c-0.8,0-1.5,0.4-1.9,1.1
		c0,0.1-0.1,0.1-0.1,0.2C23,58.9,23,59,22.9,59.2c0,0.1-0.1,0.2-0.1,0.3c0,0,0,0.1-0.1,0.1c-0.1,0.1-0.1,0.3-0.1,0.4
		c-0.1,0.3-0.2,0.7-0.2,1s-0.1,0.6-0.1,0.9c0,1.6,0.7,2.5,1.9,2.5c0.9,0,1.5-0.5,2-1.3c0.1-0.1,0.1-0.1,0.1-0.2c0,0,0,0,0-0.1l0,0
		c0.1-0.2,0.2-0.4,0.3-0.6c0,0,0,0,0-0.1l0,0c0.1-0.2,0.1-0.4,0.2-0.6v-0.1c0-0.2,0.1-0.5,0.1-0.7c0-0.3,0-0.5,0-0.8
		C26.9,59.7,26.9,59.5,26.9,59.3z M26.9,59.3c0-0.1,0-0.3-0.1-0.4c0-0.1,0-0.2-0.1-0.3v-0.1v-0.1l0,0c0-0.1-0.1-0.1-0.1-0.2
		c0-0.1-0.1-0.1-0.1-0.2l-0.1-0.1c-0.1-0.1-0.1-0.1-0.2-0.1c-0.3-0.2-0.7-0.4-1.1-0.4v0.1c-0.8,0-1.5,0.4-1.9,1.1
		c0,0.1-0.1,0.1-0.1,0.2C23,58.9,23,59,22.9,59.2c0,0.1-0.1,0.2-0.1,0.3c0,0,0,0.1-0.1,0.1c-0.1,0.1-0.1,0.3-0.1,0.4
		c-0.1,0.3-0.2,0.7-0.2,1s-0.1,0.6-0.1,0.9c0,1.6,0.7,2.5,1.9,2.5c0.9,0,1.5-0.5,2-1.3c0.1-0.1,0.1-0.1,0.1-0.2c0,0,0,0,0-0.1l0,0
		c0.1-0.2,0.2-0.4,0.3-0.6c0,0,0,0,0-0.1l0,0c0.1-0.2,0.1-0.4,0.2-0.6v-0.1c0-0.2,0.1-0.5,0.1-0.7c0-0.3,0-0.5,0-0.8
		C26.9,59.7,26.9,59.5,26.9,59.3z M26.9,59.3c0-0.1,0-0.3-0.1-0.4c0-0.1,0-0.2-0.1-0.3v-0.1v-0.1l0,0c0-0.1-0.1-0.1-0.1-0.2
		c0-0.1-0.1-0.1-0.1-0.2l-0.1-0.1c-0.1-0.1-0.1-0.1-0.2-0.1c-0.3-0.2-0.7-0.4-1.1-0.4v0.1c-0.8,0-1.5,0.4-1.9,1.1
		c0,0.1-0.1,0.1-0.1,0.2C23,58.9,23,59,22.9,59.2c0,0.1-0.1,0.2-0.1,0.3c0,0,0,0.1-0.1,0.1c-0.1,0.1-0.1,0.3-0.1,0.4
		c-0.1,0.3-0.2,0.7-0.2,1s-0.1,0.6-0.1,0.9c0,1.6,0.7,2.5,1.9,2.5c0.9,0,1.5-0.5,2-1.3c0.1-0.1,0.1-0.1,0.1-0.2c0,0,0,0,0-0.1l0,0
		c0.1-0.2,0.2-0.4,0.3-0.6c0,0,0,0,0-0.1l0,0c0.1-0.2,0.1-0.4,0.2-0.6v-0.1c0-0.2,0.1-0.5,0.1-0.7c0-0.3,0-0.5,0-0.8
		C26.9,59.7,26.9,59.5,26.9,59.3z M26.9,59.3c0-0.1,0-0.3-0.1-0.4c0-0.1,0-0.2-0.1-0.3v-0.1v-0.1l0,0c0-0.1-0.1-0.1-0.1-0.2
		c0-0.1-0.1-0.1-0.1-0.2l-0.1-0.1c-0.1-0.1-0.1-0.1-0.2-0.1c-0.3-0.2-0.7-0.4-1.1-0.4v0.1c-0.8,0-1.5,0.4-1.9,1.1
		c0,0.1-0.1,0.1-0.1,0.2C23,58.9,23,59,22.9,59.2c0,0.1-0.1,0.2-0.1,0.3c0,0,0,0.1-0.1,0.1c-0.1,0.1-0.1,0.3-0.1,0.4
		c-0.1,0.3-0.2,0.7-0.2,1s-0.1,0.6-0.1,0.9c0,1.6,0.7,2.5,1.9,2.5c0.9,0,1.5-0.5,2-1.3c0.1-0.1,0.1-0.1,0.1-0.2c0,0,0,0,0-0.1l0,0
		c0.1-0.2,0.2-0.4,0.3-0.6c0,0,0,0,0-0.1l0,0c0.1-0.2,0.1-0.4,0.2-0.6v-0.1c0-0.2,0.1-0.5,0.1-0.7c0-0.3,0-0.5,0-0.8
		C26.9,59.7,26.9,59.5,26.9,59.3z M63.2,61.7c-0.1,0-0.1,0-0.2,0v0.1h-1.1l-0.4,2.7h1c0.9,0.1,1.7-0.5,1.8-1.4c0-0.1,0-0.1,0-0.2
		C64.3,62.2,63.8,61.7,63.2,61.7z M64.3,57.8C64.3,57.7,64.2,57.7,64.3,57.8c-0.3-0.3-0.6-0.3-1-0.3h-0.8l-0.3,2.4V60h0.7
		c0.4,0,0.8-0.1,1.1-0.3c0.1,0,0.2-0.1,0.2-0.1c0.1-0.1,0.2-0.3,0.3-0.4c0-0.1,0.1-0.1,0.1-0.2v-0.1l0,0c0-0.1,0-0.2,0-0.2
		C64.5,58.2,64.4,57.9,64.3,57.8z M72.7,62.1l-0.6-3.9l0,0l-1.6,3.9l0,0v0.1L72.7,62.1L72.7,62.1z M72.7,62.1l-0.6-3.9l0,0l-1.6,3.9
		l0,0v0.1L72.7,62.1L72.7,62.1z M64.3,57.8C64.3,57.7,64.2,57.7,64.3,57.8c-0.3-0.3-0.6-0.3-1-0.3h-0.8l-0.3,2.4V60h0.7
		c0.4,0,0.8-0.1,1.1-0.3c0.1,0,0.2-0.1,0.2-0.1c0.1-0.1,0.2-0.3,0.3-0.4c0-0.1,0.1-0.1,0.1-0.2v-0.1l0,0c0-0.1,0-0.2,0-0.2
		C64.5,58.2,64.4,57.9,64.3,57.8z M63.2,61.7c-0.1,0-0.1,0-0.2,0v0.1h-1.1l-0.4,2.7h1c0.9,0.1,1.7-0.5,1.8-1.4c0-0.1,0-0.1,0-0.2
		C64.3,62.2,63.8,61.7,63.2,61.7z M26.9,59.3c0-0.1,0-0.3-0.1-0.4c0-0.1,0-0.2-0.1-0.3v-0.1v-0.1l0,0c0-0.1-0.1-0.1-0.1-0.2
		c0-0.1-0.1-0.1-0.1-0.2l-0.1-0.1c-0.1-0.1-0.1-0.1-0.2-0.1c-0.3-0.2-0.7-0.4-1.1-0.4v0.1c-0.8,0-1.5,0.4-1.9,1.1
		c0,0.1-0.1,0.1-0.1,0.2C23,58.9,23,59,22.9,59.2c0,0.1-0.1,0.2-0.1,0.3c0,0,0,0.1-0.1,0.1c-0.1,0.1-0.1,0.3-0.1,0.4
		c-0.1,0.3-0.2,0.7-0.2,1s-0.1,0.6-0.1,0.9c0,1.6,0.7,2.5,1.9,2.5c0.9,0,1.5-0.5,2-1.3c0.1-0.1,0.1-0.1,0.1-0.2c0,0,0,0,0-0.1l0,0
		c0.1-0.2,0.2-0.4,0.3-0.6c0,0,0,0,0-0.1l0,0c0.1-0.2,0.1-0.4,0.2-0.6v-0.1c0-0.2,0.1-0.5,0.1-0.7c0-0.3,0-0.5,0-0.8
		C26.9,59.7,26.9,59.5,26.9,59.3z M26.9,59.3c0-0.1,0-0.3-0.1-0.4c0-0.1,0-0.2-0.1-0.3v-0.1v-0.1l0,0c0-0.1-0.1-0.1-0.1-0.2
		c0-0.1-0.1-0.1-0.1-0.2l-0.1-0.1c-0.1-0.1-0.1-0.1-0.2-0.1c-0.3-0.2-0.7-0.4-1.1-0.4v0.1c-0.8,0-1.5,0.4-1.9,1.1
		c0,0.1-0.1,0.1-0.1,0.2C23,58.9,23,59,22.9,59.2c0,0.1-0.1,0.2-0.1,0.3c0,0,0,0.1-0.1,0.1c-0.1,0.1-0.1,0.3-0.1,0.4
		c-0.1,0.3-0.2,0.7-0.2,1s-0.1,0.6-0.1,0.9c0,1.6,0.7,2.5,1.9,2.5c0.9,0,1.5-0.5,2-1.3c0.1-0.1,0.1-0.1,0.1-0.2c0,0,0,0,0-0.1l0,0
		c0.1-0.2,0.2-0.4,0.3-0.6c0,0,0,0,0-0.1l0,0c0.1-0.2,0.1-0.4,0.2-0.6v-0.1c0-0.2,0.1-0.5,0.1-0.7c0-0.3,0-0.5,0-0.8
		C26.9,59.7,26.9,59.5,26.9,59.3z M63.2,61.7c-0.1,0-0.1,0-0.2,0v0.1h-1.1l-0.4,2.7h1c0.9,0.1,1.7-0.5,1.8-1.4c0-0.1,0-0.1,0-0.2
		C64.3,62.2,63.8,61.7,63.2,61.7z M64.3,57.8C64.3,57.7,64.2,57.7,64.3,57.8c-0.3-0.3-0.6-0.3-1-0.3h-0.8l-0.3,2.4V60h0.7
		c0.4,0,0.8-0.1,1.1-0.3c0.1,0,0.2-0.1,0.2-0.1c0.1-0.1,0.2-0.3,0.3-0.4c0-0.1,0.1-0.1,0.1-0.2v-0.1l0,0c0-0.1,0-0.2,0-0.2
		C64.5,58.2,64.4,57.9,64.3,57.8z M72.7,62.1l-0.6-3.9l0,0l-1.6,3.9l0,0v0.1L72.7,62.1L72.7,62.1z M72.7,62.1l-0.6-3.9l0,0l-1.6,3.9
		l0,0v0.1L72.7,62.1L72.7,62.1z M64.3,57.8C64.3,57.7,64.2,57.7,64.3,57.8c-0.3-0.3-0.6-0.3-1-0.3h-0.8l-0.3,2.4V60h0.7
		c0.4,0,0.8-0.1,1.1-0.3c0.1,0,0.2-0.1,0.2-0.1c0.1-0.1,0.2-0.3,0.3-0.4c0-0.1,0.1-0.1,0.1-0.2v-0.1l0,0c0-0.1,0-0.2,0-0.2
		C64.5,58.2,64.4,57.9,64.3,57.8z M63.2,61.7c-0.1,0-0.1,0-0.2,0v0.1h-1.1l-0.4,2.7h1c0.9,0.1,1.7-0.5,1.8-1.4c0-0.1,0-0.1,0-0.2
		C64.3,62.2,63.8,61.7,63.2,61.7z M26.9,59.3c0-0.1,0-0.3-0.1-0.4c0-0.1,0-0.2-0.1-0.3v-0.1v-0.1l0,0c0-0.1-0.1-0.1-0.1-0.2
		c0-0.1-0.1-0.1-0.1-0.2l-0.1-0.1c-0.1-0.1-0.1-0.1-0.2-0.1c-0.3-0.2-0.7-0.4-1.1-0.4v0.1c-0.8,0-1.5,0.4-1.9,1.1
		c0,0.1-0.1,0.1-0.1,0.2C23,58.9,23,59,22.9,59.2c0,0.1-0.1,0.2-0.1,0.3c0,0,0,0.1-0.1,0.1c-0.1,0.1-0.1,0.3-0.1,0.4
		c-0.1,0.3-0.2,0.7-0.2,1s-0.1,0.6-0.1,0.9c0,1.6,0.7,2.5,1.9,2.5c0.9,0,1.5-0.5,2-1.3c0.1-0.1,0.1-0.1,0.1-0.2c0,0,0,0,0-0.1l0,0
		c0.1-0.2,0.2-0.4,0.3-0.6c0,0,0,0,0-0.1l0,0c0.1-0.2,0.1-0.4,0.2-0.6v-0.1c0-0.2,0.1-0.5,0.1-0.7c0-0.3,0-0.5,0-0.8
		C26.9,59.7,26.9,59.5,26.9,59.3z M26.9,59.3c0-0.1,0-0.3-0.1-0.4c0-0.1,0-0.2-0.1-0.3v-0.1v-0.1l0,0c0-0.1-0.1-0.1-0.1-0.2
		c0-0.1-0.1-0.1-0.1-0.2l-0.1-0.1c-0.1-0.1-0.1-0.1-0.2-0.1c-0.3-0.2-0.7-0.4-1.1-0.4v0.1c-0.8,0-1.5,0.4-1.9,1.1
		c0,0.1-0.1,0.1-0.1,0.2C23,58.9,23,59,22.9,59.2c0,0.1-0.1,0.2-0.1,0.3c0,0,0,0.1-0.1,0.1c-0.1,0.1-0.1,0.3-0.1,0.4
		c-0.1,0.3-0.2,0.7-0.2,1s-0.1,0.6-0.1,0.9c0,1.6,0.7,2.5,1.9,2.5c0.9,0,1.5-0.5,2-1.3c0.1-0.1,0.1-0.1,0.1-0.2c0,0,0,0,0-0.1l0,0
		c0.1-0.2,0.2-0.4,0.3-0.6c0,0,0,0,0-0.1l0,0c0.1-0.2,0.1-0.4,0.2-0.6v-0.1c0-0.2,0.1-0.5,0.1-0.7c0-0.3,0-0.5,0-0.8
		C26.9,59.7,26.9,59.5,26.9,59.3z M63.2,61.7c-0.1,0-0.1,0-0.2,0v0.1h-1.1l-0.4,2.7h1c0.9,0.1,1.7-0.5,1.8-1.4c0-0.1,0-0.1,0-0.2
		C64.3,62.2,63.8,61.7,63.2,61.7z M64.3,57.8C64.3,57.7,64.2,57.7,64.3,57.8c-0.3-0.3-0.6-0.3-1-0.3h-0.8l-0.3,2.4V60h0.7
		c0.4,0,0.8-0.1,1.1-0.3c0.1,0,0.2-0.1,0.2-0.1c0.1-0.1,0.2-0.3,0.3-0.4c0-0.1,0.1-0.1,0.1-0.2v-0.1l0,0c0-0.1,0-0.2,0-0.2
		C64.5,58.2,64.4,57.9,64.3,57.8z M72.7,62.1l-0.6-3.9l0,0l-1.6,3.9l0,0v0.1L72.7,62.1L72.7,62.1z M72.7,62.1l-0.6-4v0.1l-1.6,3.9
		v0.1L72.7,62.1L72.7,62.1L72.7,62.1z M64.5,58.2C64.5,58.1,64.4,58.1,64.5,58.2c-0.1-0.5-0.5-0.8-1.2-0.8h-0.8v0.1l-0.3,2.4V60h0.7
		c0.4,0,0.8-0.1,1.1-0.3c0.1,0,0.2-0.1,0.2-0.1c0.1-0.1,0.2-0.3,0.3-0.4c0-0.1,0.1-0.1,0.1-0.2v-0.1l0,0c0-0.1,0-0.2,0-0.3v-0.1
		C64.5,58.3,64.5,58.2,64.5,58.2z M63.2,61.7c-0.1,0-0.1,0-0.2,0v-0.1h-1.1v0.1l0,0v0.1l-0.4,2.7h1c0.9,0.1,1.7-0.5,1.8-1.4
		c0-0.1,0-0.1,0-0.2C64.3,62.2,63.8,61.7,63.2,61.7z M26.7,58.5L26.7,58.5L26.7,58.5c0-0.2-0.1-0.2-0.1-0.3c0-0.1-0.1-0.1-0.1-0.2
		l-0.1-0.1c-0.1-0.1-0.1-0.1-0.2-0.1c-0.3-0.2-0.7-0.4-1.1-0.4v-0.1c-0.6,0-1.1,0.3-1.5,0.7c-0.2,0.1-0.3,0.3-0.4,0.5
		c-0.1,0.1-0.1,0.2-0.1,0.3C23,58.9,23,59,22.9,59.2c-0.1,0.1-0.1,0.3-0.2,0.4c-0.1,0.1-0.1,0.3-0.1,0.4c-0.1,0.3-0.2,0.7-0.2,1
		s-0.1,0.6-0.1,0.9c0,1.6,0.7,2.5,1.9,2.5c0.9,0,1.5-0.5,2-1.3c0.1-0.1,0.1-0.1,0.1-0.2c0,0,0,0,0-0.1l0,0c0.1-0.2,0.2-0.4,0.3-0.6
		c0,0,0,0,0-0.1l0,0c0.1-0.2,0.1-0.4,0.2-0.6v-0.1c0.1-0.5,0.2-1.1,0.2-1.6C26.9,59.3,26.8,58.9,26.7,58.5z M26.7,58.5L26.7,58.5
		L26.7,58.5c0-0.2-0.1-0.2-0.1-0.3c0-0.1-0.1-0.1-0.1-0.2l-0.1-0.1c-0.1-0.1-0.1-0.1-0.2-0.1c-0.3-0.2-0.7-0.4-1.1-0.4v-0.1
		c-0.6,0-1.1,0.3-1.5,0.7c-0.2,0.1-0.3,0.3-0.4,0.5c-0.1,0.1-0.1,0.2-0.1,0.3C23,58.9,23,59,22.9,59.2c-0.1,0.1-0.1,0.3-0.2,0.4
		c-0.1,0.1-0.1,0.3-0.1,0.4c-0.1,0.3-0.2,0.7-0.2,1s-0.1,0.6-0.1,0.9c0,1.6,0.7,2.5,1.9,2.5c0.9,0,1.5-0.5,2-1.3
		c0.1-0.1,0.1-0.1,0.1-0.2c0,0,0,0,0-0.1l0,0c0.1-0.2,0.2-0.4,0.3-0.6c0,0,0,0,0-0.1l0,0c0.1-0.2,0.1-0.4,0.2-0.6v-0.1
		c0.1-0.5,0.2-1.1,0.2-1.6C26.9,59.3,26.8,58.9,26.7,58.5z M63.2,61.7c-0.1,0-0.1,0-0.2,0v-0.1h-1.1v0.1l0,0v0.1l-0.4,2.7h1
		c0.9,0.1,1.7-0.5,1.8-1.4c0-0.1,0-0.1,0-0.2C64.3,62.2,63.8,61.7,63.2,61.7z M64.5,58.2C64.5,58.1,64.4,58.1,64.5,58.2
		c-0.1-0.5-0.5-0.8-1.2-0.8h-0.8v0.1l-0.3,2.4V60h0.7c0.4,0,0.8-0.1,1.1-0.3c0.1,0,0.2-0.1,0.2-0.1c0.1-0.1,0.2-0.3,0.3-0.4
		c0-0.1,0.1-0.1,0.1-0.2v-0.1l0,0c0-0.1,0-0.2,0-0.3v-0.1C64.5,58.3,64.5,58.2,64.5,58.2z M72.7,62.1l-0.6-4v0.1l-1.6,3.9v0.1
		L72.7,62.1L72.7,62.1L72.7,62.1z M72.7,62.1l-0.6-4v0.1l-1.6,3.9v0.1L72.7,62.1L72.7,62.1L72.7,62.1z M64.5,58.2
		C64.5,58.1,64.4,58.1,64.5,58.2c-0.1-0.5-0.5-0.8-1.2-0.8h-0.8v0.1l-0.3,2.4V60h0.7c0.4,0,0.8-0.1,1.1-0.3c0.1,0,0.2-0.1,0.2-0.1
		c0.1-0.1,0.2-0.3,0.3-0.4c0-0.1,0.1-0.1,0.1-0.2v-0.1l0,0c0-0.1,0-0.2,0-0.3v-0.1C64.5,58.3,64.5,58.2,64.5,58.2z M63.2,61.7
		c-0.1,0-0.1,0-0.2,0v-0.1h-1.1v0.1l0,0v0.1l-0.4,2.7h1c0.9,0.1,1.7-0.5,1.8-1.4c0-0.1,0-0.1,0-0.2C64.3,62.2,63.8,61.7,63.2,61.7z
		 M26.7,58.5L26.7,58.5L26.7,58.5c0-0.2-0.1-0.2-0.1-0.3c0-0.1-0.1-0.1-0.1-0.2l-0.1-0.1c-0.1-0.1-0.1-0.1-0.2-0.1
		c-0.3-0.2-0.7-0.4-1.1-0.4v-0.1c-0.6,0-1.1,0.3-1.5,0.7c-0.2,0.1-0.3,0.3-0.4,0.5c-0.1,0.1-0.1,0.2-0.1,0.3
		C23,58.9,23,59,22.9,59.2c-0.1,0.1-0.1,0.3-0.2,0.4c-0.1,0.1-0.1,0.3-0.1,0.4c-0.1,0.3-0.2,0.7-0.2,1s-0.1,0.6-0.1,0.9
		c0,1.6,0.7,2.5,1.9,2.5c0.9,0,1.5-0.5,2-1.3c0.1-0.1,0.1-0.1,0.1-0.2c0,0,0,0,0-0.1l0,0c0.1-0.2,0.2-0.4,0.3-0.6c0,0,0,0,0-0.1l0,0
		c0.1-0.2,0.1-0.4,0.2-0.6v-0.1c0.1-0.5,0.2-1.1,0.2-1.6C26.9,59.3,26.8,58.9,26.7,58.5z M26.7,58.5L26.7,58.5L26.7,58.5
		c0-0.2-0.1-0.2-0.1-0.3c0-0.1-0.1-0.1-0.1-0.2l-0.1-0.1c-0.1-0.1-0.1-0.1-0.2-0.1c-0.3-0.2-0.7-0.4-1.1-0.4v-0.1
		c-0.6,0-1.1,0.3-1.5,0.7c-0.2,0.1-0.3,0.3-0.4,0.5c-0.1,0.1-0.1,0.2-0.1,0.3C23,58.9,23,59,22.9,59.2c-0.1,0.1-0.1,0.3-0.2,0.4
		c-0.1,0.1-0.1,0.3-0.1,0.4c-0.1,0.3-0.2,0.7-0.2,1s-0.1,0.6-0.1,0.9c0,1.6,0.7,2.5,1.9,2.5c0.9,0,1.5-0.5,2-1.3
		c0.1-0.1,0.1-0.1,0.1-0.2c0,0,0,0,0-0.1l0,0c0.1-0.2,0.2-0.4,0.3-0.6c0,0,0,0,0-0.1l0,0c0.1-0.2,0.1-0.4,0.2-0.6v-0.1
		c0.1-0.5,0.2-1.1,0.2-1.6C26.9,59.3,26.8,58.9,26.7,58.5z M63.2,61.7c-0.1,0-0.1,0-0.2,0v-0.1h-1.1v0.1l0,0v0.1l-0.4,2.7h1
		c0.9,0.1,1.7-0.5,1.8-1.4c0-0.1,0-0.1,0-0.2C64.3,62.2,63.8,61.7,63.2,61.7z M64.5,58.2C64.5,58.1,64.4,58.1,64.5,58.2
		c-0.1-0.5-0.5-0.8-1.2-0.8h-0.8v0.1l-0.3,2.4V60h0.7c0.4,0,0.8-0.1,1.1-0.3c0.1,0,0.2-0.1,0.2-0.1c0.1-0.1,0.2-0.3,0.3-0.4
		c0-0.1,0.1-0.1,0.1-0.2v-0.1l0,0c0-0.1,0-0.2,0-0.3v-0.1C64.5,58.3,64.5,58.2,64.5,58.2z M72.7,62.1l-0.6-4v0.1l-1.6,3.9v0.1
		L72.7,62.1L72.7,62.1L72.7,62.1z M72.7,62.1l-0.6-4v0.1l-1.6,3.9v0.1L72.7,62.1L72.7,62.1L72.7,62.1z M64.5,58.2
		C64.5,58.1,64.4,58.1,64.5,58.2c-0.1-0.5-0.5-0.8-1.2-0.8h-0.8v0.1l-0.3,2.4V60h0.7c0.4,0,0.8-0.1,1.1-0.3c0.1,0,0.2-0.1,0.2-0.1
		c0.1-0.1,0.2-0.3,0.3-0.4c0-0.1,0.1-0.1,0.1-0.2v-0.1l0,0c0-0.1,0-0.2,0-0.3v-0.1C64.5,58.3,64.5,58.2,64.5,58.2z M63.2,61.7
		c-0.1,0-0.1,0-0.2,0v-0.1h-1.1v0.1l0,0v0.1l-0.4,2.7h1c0.9,0.1,1.7-0.5,1.8-1.4c0-0.1,0-0.1,0-0.2C64.3,62.2,63.8,61.7,63.2,61.7z
		 M26.7,58.5L26.7,58.5L26.7,58.5c0-0.2-0.1-0.2-0.1-0.3c0-0.1-0.1-0.1-0.1-0.2l-0.1-0.1c-0.1-0.1-0.1-0.1-0.2-0.1
		c-0.3-0.2-0.7-0.4-1.1-0.4v-0.1c-0.6,0-1.1,0.3-1.5,0.7c-0.2,0.1-0.3,0.3-0.4,0.5c-0.1,0.1-0.1,0.2-0.1,0.3
		C23,58.9,23,59,22.9,59.2c-0.1,0.1-0.1,0.3-0.2,0.4c-0.1,0.1-0.1,0.3-0.1,0.4c-0.1,0.3-0.2,0.7-0.2,1s-0.1,0.6-0.1,0.9
		c0,1.6,0.7,2.5,1.9,2.5c0.9,0,1.5-0.5,2-1.3c0.1-0.1,0.1-0.1,0.1-0.2c0,0,0,0,0-0.1l0,0c0.1-0.2,0.2-0.4,0.3-0.6c0,0,0,0,0-0.1l0,0
		c0.1-0.2,0.1-0.4,0.2-0.6v-0.1c0.1-0.5,0.2-1.1,0.2-1.6C26.9,59.3,26.8,58.9,26.7,58.5z M26.7,58.5L26.7,58.5L26.7,58.5
		c0-0.2-0.1-0.2-0.1-0.3c0-0.1-0.1-0.1-0.1-0.2l-0.1-0.1c-0.1-0.1-0.1-0.1-0.2-0.1c-0.3-0.2-0.7-0.4-1.1-0.4v-0.1
		c-0.6,0-1.1,0.3-1.5,0.7c-0.2,0.1-0.3,0.3-0.4,0.5c-0.1,0.1-0.1,0.2-0.1,0.3C23,58.9,23,59,22.9,59.2c-0.1,0.1-0.1,0.3-0.2,0.4
		c-0.1,0.1-0.1,0.3-0.1,0.4c-0.1,0.3-0.2,0.7-0.2,1s-0.1,0.6-0.1,0.9c0,1.6,0.7,2.5,1.9,2.5c0.9,0,1.5-0.5,2-1.3
		c0.1-0.1,0.1-0.1,0.1-0.2c0,0,0,0,0-0.1l0,0c0.1-0.2,0.2-0.4,0.3-0.6c0,0,0,0,0-0.1l0,0c0.1-0.2,0.1-0.4,0.2-0.6v-0.1
		c0.1-0.5,0.2-1.1,0.2-1.6C26.9,59.3,26.8,58.9,26.7,58.5z M63.2,61.7c-0.1,0-0.1,0-0.2,0v-0.1h-1.1v0.1l0,0v0.1l-0.4,2.7h1
		c0.9,0.1,1.7-0.5,1.8-1.4c0-0.1,0-0.1,0-0.2C64.3,62.2,63.8,61.7,63.2,61.7z M64.5,58.2C64.5,58.1,64.4,58.1,64.5,58.2
		c-0.1-0.5-0.5-0.8-1.2-0.8h-0.8v0.1l-0.3,2.4V60h0.7c0.4,0,0.8-0.1,1.1-0.3c0.1,0,0.2-0.1,0.2-0.1c0.1-0.1,0.2-0.3,0.3-0.4
		c0-0.1,0.1-0.1,0.1-0.2v-0.1l0,0c0-0.1,0-0.2,0-0.3v-0.1C64.5,58.3,64.5,58.2,64.5,58.2z M72.7,62.1l-0.6-4v0.1l-1.6,3.9v0.1
		L72.7,62.1L72.7,62.1L72.7,62.1z M72.7,62.1l-0.6-4v0.1l-1.6,3.9v0.1L72.7,62.1L72.7,62.1L72.7,62.1z M64.5,58.2
		C64.5,58.1,64.4,58.1,64.5,58.2c-0.1-0.5-0.5-0.8-1.2-0.8h-0.8v0.1l-0.3,2.4V60h0.7c0.4,0,0.8-0.1,1.1-0.3c0.1,0,0.2-0.1,0.2-0.1
		c0.1-0.1,0.2-0.3,0.3-0.4c0-0.1,0.1-0.1,0.1-0.2v-0.1l0,0c0-0.1,0-0.2,0-0.3v-0.1C64.5,58.3,64.5,58.2,64.5,58.2z M63.2,61.7
		c-0.1,0-0.1,0-0.2,0v-0.1h-1.1v0.1l0,0v0.1l-0.4,2.7h1c0.9,0.1,1.7-0.5,1.8-1.4c0-0.1,0-0.1,0-0.2C64.3,62.2,63.8,61.7,63.2,61.7z
		 M26.7,58.5L26.7,58.5L26.7,58.5c0-0.2-0.1-0.2-0.1-0.3c0-0.1-0.1-0.1-0.1-0.2l-0.1-0.1c-0.1-0.1-0.1-0.1-0.2-0.1
		c-0.3-0.2-0.7-0.4-1.1-0.4v-0.1c-0.6,0-1.1,0.3-1.5,0.7c-0.2,0.1-0.3,0.3-0.4,0.5c-0.1,0.1-0.1,0.2-0.1,0.3
		C23,58.9,23,59,22.9,59.2c-0.1,0.1-0.1,0.3-0.2,0.4c-0.1,0.1-0.1,0.3-0.1,0.4c-0.1,0.3-0.2,0.7-0.2,1s-0.1,0.6-0.1,0.9
		c0,1.6,0.7,2.5,1.9,2.5c0.9,0,1.5-0.5,2-1.3c0.1-0.1,0.1-0.1,0.1-0.2c0,0,0,0,0-0.1l0,0c0.1-0.2,0.2-0.4,0.3-0.6c0,0,0,0,0-0.1l0,0
		c0.1-0.2,0.1-0.4,0.2-0.6v-0.1c0.1-0.5,0.2-1.1,0.2-1.6C26.9,59.3,26.8,58.9,26.7,58.5z M26.7,58.5L26.7,58.5L26.7,58.5
		c0-0.2-0.1-0.2-0.1-0.3c0-0.1-0.1-0.1-0.1-0.2l-0.1-0.1c-0.1-0.1-0.1-0.1-0.2-0.1c-0.3-0.2-0.7-0.4-1.1-0.4v-0.1
		c-0.6,0-1.1,0.3-1.5,0.7c-0.2,0.1-0.3,0.3-0.4,0.5c-0.1,0.1-0.1,0.2-0.1,0.3C23,58.9,23,59,22.9,59.2c-0.1,0.1-0.1,0.3-0.2,0.4
		c-0.1,0.1-0.1,0.3-0.1,0.4c-0.1,0.3-0.2,0.7-0.2,1s-0.1,0.6-0.1,0.9c0,1.6,0.7,2.5,1.9,2.5c0.9,0,1.5-0.5,2-1.3
		c0.1-0.1,0.1-0.1,0.1-0.2c0,0,0,0,0-0.1l0,0c0.1-0.2,0.2-0.4,0.3-0.6c0,0,0,0,0-0.1l0,0c0.1-0.2,0.1-0.4,0.2-0.6v-0.1
		c0.1-0.5,0.2-1.1,0.2-1.6C26.9,59.3,26.8,58.9,26.7,58.5z M63.2,61.7c-0.1,0-0.1,0-0.2,0v-0.1h-1.1v0.1l0,0v0.1l-0.4,2.7h1
		c0.9,0.1,1.7-0.5,1.8-1.4c0-0.1,0-0.1,0-0.2C64.3,62.2,63.8,61.7,63.2,61.7z M64.5,58.2C64.5,58.1,64.4,58.1,64.5,58.2
		c-0.1-0.5-0.5-0.8-1.2-0.8h-0.8v0.1l-0.3,2.4V60h0.7c0.4,0,0.8-0.1,1.1-0.3c0.1,0,0.2-0.1,0.2-0.1c0.1-0.1,0.2-0.3,0.3-0.4
		c0-0.1,0.1-0.1,0.1-0.2v-0.1l0,0c0-0.1,0-0.2,0-0.3v-0.1C64.5,58.3,64.5,58.2,64.5,58.2z M72.7,62.1l-0.6-4v0.1l-1.6,3.9v0.1
		L72.7,62.1L72.7,62.1L72.7,62.1z M72.7,62.1l-0.6-4v0.1l-1.6,3.9v0.1L72.7,62.1L72.7,62.1L72.7,62.1z M64.5,58.2
		C64.5,58.1,64.4,58.1,64.5,58.2c-0.1-0.5-0.5-0.8-1.2-0.8h-0.8v0.1l-0.3,2.4V60h0.7c0.4,0,0.8-0.1,1.1-0.3c0.1,0,0.2-0.1,0.2-0.1
		c0.1-0.1,0.2-0.3,0.3-0.4c0-0.1,0.1-0.1,0.1-0.2v-0.1l0,0c0-0.1,0-0.2,0-0.3v-0.1C64.5,58.3,64.5,58.2,64.5,58.2z M63.2,61.7
		c-0.1,0-0.1,0-0.2,0v-0.1h-1.1v0.1l0,0v0.1l-0.4,2.7h1c0.9,0.1,1.7-0.5,1.8-1.4c0-0.1,0-0.1,0-0.2C64.3,62.2,63.8,61.7,63.2,61.7z
		 M26.7,58.5L26.7,58.5L26.7,58.5c0-0.2-0.1-0.2-0.1-0.3c0-0.1-0.1-0.1-0.1-0.2l-0.1-0.1c-0.1-0.1-0.1-0.1-0.2-0.1
		c-0.3-0.2-0.7-0.4-1.1-0.4v-0.1c-0.6,0-1.1,0.3-1.5,0.7c-0.2,0.1-0.3,0.3-0.4,0.5c-0.1,0.1-0.1,0.2-0.1,0.3
		C23,58.9,23,59,22.9,59.2c-0.1,0.1-0.1,0.3-0.2,0.4c-0.1,0.1-0.1,0.3-0.1,0.4c-0.1,0.3-0.2,0.7-0.2,1s-0.1,0.6-0.1,0.9
		c0,1.6,0.7,2.5,1.9,2.5c0.9,0,1.5-0.5,2-1.3c0.1-0.1,0.1-0.1,0.1-0.2c0,0,0,0,0-0.1l0,0c0.1-0.2,0.2-0.4,0.3-0.6c0,0,0,0,0-0.1l0,0
		c0.1-0.2,0.1-0.4,0.2-0.6v-0.1c0.1-0.5,0.2-1.1,0.2-1.6C26.9,59.3,26.8,58.9,26.7,58.5z M26.7,58.5L26.7,58.5L26.7,58.5
		c0-0.2-0.1-0.2-0.1-0.3c0-0.1-0.1-0.1-0.1-0.2l-0.1-0.1c-0.1-0.1-0.1-0.1-0.2-0.1c-0.3-0.2-0.7-0.4-1.1-0.4v-0.1
		c-0.6,0-1.1,0.3-1.5,0.7c-0.2,0.1-0.3,0.3-0.4,0.5c-0.1,0.1-0.1,0.2-0.1,0.3C23,58.9,23,59,22.9,59.2c-0.1,0.1-0.1,0.3-0.2,0.4
		c-0.1,0.1-0.1,0.3-0.1,0.4c-0.1,0.3-0.2,0.7-0.2,1s-0.1,0.6-0.1,0.9c0,1.6,0.7,2.5,1.9,2.5c0.9,0,1.5-0.5,2-1.3
		c0.1-0.1,0.1-0.1,0.1-0.2c0,0,0,0,0-0.1l0,0c0.1-0.2,0.2-0.4,0.3-0.6c0,0,0,0,0-0.1l0,0c0.1-0.2,0.1-0.4,0.2-0.6v-0.1
		c0.1-0.5,0.2-1.1,0.2-1.6C26.9,59.3,26.8,58.9,26.7,58.5z M63.2,61.7c-0.1,0-0.1,0-0.2,0v-0.1h-1.1v0.1l0,0v0.1l-0.4,2.7h1
		c0.9,0.1,1.7-0.5,1.8-1.4c0-0.1,0-0.1,0-0.2C64.3,62.2,63.8,61.7,63.2,61.7z M64.5,58.2C64.5,58.1,64.4,58.1,64.5,58.2
		c-0.1-0.5-0.5-0.8-1.2-0.8h-0.8v0.1l-0.3,2.4V60h0.7c0.4,0,0.8-0.1,1.1-0.3c0.1,0,0.2-0.1,0.2-0.1c0.1-0.1,0.2-0.3,0.3-0.4
		c0-0.1,0.1-0.1,0.1-0.2v-0.1l0,0c0-0.1,0-0.2,0-0.3v-0.1C64.5,58.3,64.5,58.2,64.5,58.2z M72.7,62.1l-0.6-4v0.1l-1.6,3.9v0.1
		L72.7,62.1L72.7,62.1L72.7,62.1z M72.7,62.1l-0.6-4v0.1l-1.6,3.9v0.1L72.7,62.1L72.7,62.1L72.7,62.1z M64.5,58.2
		C64.5,58.1,64.4,58.1,64.5,58.2c-0.1-0.5-0.5-0.8-1.2-0.8h-0.8v0.1l-0.3,2.4V60h0.7c0.4,0,0.8-0.1,1.1-0.3c0.1,0,0.2-0.1,0.2-0.1
		c0.1-0.1,0.2-0.3,0.3-0.4c0-0.1,0.1-0.1,0.1-0.2v-0.1l0,0c0-0.1,0-0.2,0-0.3v-0.1C64.5,58.3,64.5,58.2,64.5,58.2z M63.2,61.7
		c-0.1,0-0.1,0-0.2,0v-0.1h-1.1v0.1l0,0v0.1l-0.4,2.7h1c0.9,0.1,1.7-0.5,1.8-1.4c0-0.1,0-0.1,0-0.2C64.3,62.2,63.8,61.7,63.2,61.7z
		 M26.7,58.5L26.7,58.5L26.7,58.5c0-0.2-0.1-0.2-0.1-0.3c0-0.1-0.1-0.1-0.1-0.2l-0.1-0.1c-0.1-0.1-0.1-0.1-0.2-0.1
		c-0.3-0.2-0.7-0.4-1.1-0.4v-0.1c-0.6,0-1.1,0.3-1.5,0.7c-0.2,0.1-0.3,0.3-0.4,0.5c-0.1,0.1-0.1,0.2-0.1,0.3
		C23,58.9,23,59,22.9,59.2c-0.1,0.1-0.1,0.3-0.2,0.4c-0.1,0.1-0.1,0.3-0.1,0.4c-0.1,0.3-0.2,0.7-0.2,1s-0.1,0.6-0.1,0.9
		c0,1.6,0.7,2.5,1.9,2.5c0.9,0,1.5-0.5,2-1.3c0.1-0.1,0.1-0.1,0.1-0.2c0,0,0,0,0-0.1l0,0c0.1-0.2,0.2-0.4,0.3-0.6c0,0,0,0,0-0.1l0,0
		c0.1-0.2,0.1-0.4,0.2-0.6v-0.1c0.1-0.5,0.2-1.1,0.2-1.6C26.9,59.3,26.8,58.9,26.7,58.5z M0,49.1v23h100v-23H0z M18.3,66h-2.4
		l0.4-6.6L13.5,66h-2.1l-1.1-6.5L9,66H6.9l2.4-10.2c0.3-0.2,0.7-0.3,1.1-0.3c0.8,0,1.4,0.3,1.4,1l1.1,7.1l3.1-7.8
		c0.3-0.2,0.7-0.3,1.1-0.3c0.9,0,1.3,0.3,1.2,1.4L18.3,66z M29.3,59.8c0,3.7-1.9,6.4-5.3,6.4v-0.1c-2.1,0.2-3.9-1.3-4.1-3.4
		c0-0.3,0-0.5,0-0.8c0-3.6,1.9-6.4,5.4-6.4c2.1-0.2,3.9,1.4,4.1,3.4C29.3,59.3,29.3,59.5,29.3,59.8z M38.2,66h-1.8L33,59.8L32.2,66
		H30l1.4-10.1c0.3-0.2,0.7-0.3,1.1-0.3c0.5,0,1,0.3,1.2,0.8l2.9,5.6l0.8-6.2h2.2L38.2,66z M47.5,57.4h-3.8l-0.3,2.4h3.4l-0.3,1.8H43
		l-0.4,2.7h4l-0.3,1.8H40l1.4-10.3h6.2L47.5,57.4z M53,61.7L52.4,66h-2.3l0.6-3.9l-2.2-6c0.4-0.2,0.8-0.3,1.3-0.3
		c0.9,0,1.4,0.3,1.6,0.9l0.7,2l0.4,1.4l0.8-1.5l1.6-2.9l2.2,0.4L53,61.7z M62.2,66.2V66c-0.7,0-2.2,0-3.2-0.1l1.4-10.3
		c1.2-0.1,2.6-0.1,3.2-0.1c2.1,0,3.3,0.8,3.3,2.3c0,1.1-0.6,2.2-1.6,2.7c0.8,0.4,1.4,1.2,1.4,2.1C66.7,65,64.7,66.2,62.2,66.2z
		 M73.4,65.9l-0.4-2h-3.3l-0.9,2.2h-2.2l4.8-10.2c0.4-0.2,0.8-0.3,1.2-0.3c0.7,0,1.4,0.6,1.4,1.3l1.9,9.2L73.4,65.9z M80.7,64.4
		v-0.2c0.9,0,1.8-0.2,2.6-0.7l0.7,1.7c-1,0.8-2.3,1.2-3.5,1.2c-2.5,0-3.8-1.7-3.8-4.2c0-3.4,1.7-6.4,4.9-6.4c1.4-0.1,2.7,0.7,3.2,2
		l-2.2,0.7c-0.2-0.7-0.6-1-1.1-1c-1.4,0-2.3,2.5-2.3,4.5C79,63.6,79.7,64.4,80.7,64.4z M84.9,65.9l1.4-10.1c0.4-0.2,0.8-0.3,1.2-0.3
		c0.5-0.1,0.9,0.3,1,0.7v0.4l-1.3,9.3C87.2,65.9,84.9,65.9,84.9,65.9z M93.1,65.8c-0.4,0.3-0.9,0.4-1.4,0.4c-1,0-1.4-0.3-1.6-0.8
		L88,60.9l3.6-5.2l2.1,0.4l-3.2,4.5L93.1,65.8z M72.1,58.1L72.1,58.1l-1.6,4v0.1h2.3v-0.1l0,0L72.1,58.1z M64.4,58.1
		c-0.1-0.5-0.5-0.7-1.2-0.7h-0.8v0.1l-0.3,2.4V60h0.7c0.4,0,0.8-0.1,1.1-0.3c0.1,0,0.2-0.1,0.2-0.1c0.1-0.1,0.2-0.3,0.3-0.4
		c0-0.1,0.1-0.1,0.1-0.2v-0.1l0,0c0-0.1,0-0.2,0-0.3v-0.1C64.5,58.3,64.5,58.2,64.4,58.1C64.5,58.1,64.4,58.1,64.4,58.1z M63.2,61.7
		c-0.1,0-0.1,0-0.2,0v-0.1h-1.1v0.1l0,0v0.1l-0.4,2.7h1c0.9,0.1,1.7-0.5,1.8-1.4c0-0.1,0-0.1,0-0.2C64.3,62.2,63.8,61.7,63.2,61.7z
		 M26.6,58.4L26.6,58.4c0-0.1-0.1-0.1-0.1-0.2c0-0.1-0.1-0.1-0.1-0.2l-0.1-0.1c-0.1-0.1-0.1-0.1-0.2-0.1c-0.3-0.2-0.7-0.4-1.1-0.4
		v-0.1c-0.6,0-1.1,0.3-1.5,0.7c-0.2,0.1-0.3,0.3-0.4,0.5C23,58.6,23,58.7,23,58.8c-0.1,0.1-0.1,0.2-0.2,0.4
		c-0.1,0.1-0.1,0.3-0.2,0.4c-0.1,0.1-0.1,0.3-0.1,0.4c-0.1,0.3-0.2,0.7-0.2,1s-0.1,0.6-0.1,0.9c0,1.6,0.7,2.5,1.9,2.5
		c0.9,0,1.5-0.5,2-1.3c0.1-0.1,0.1-0.1,0.1-0.2c0,0,0,0,0-0.1l0,0c0.1-0.2,0.2-0.4,0.3-0.6c0,0,0,0,0-0.1l0,0
		c0.1-0.2,0.1-0.4,0.2-0.6v-0.1c0.1-0.5,0.2-1.1,0.2-1.6s-0.1-0.9-0.3-1.3C26.7,58.5,26.7,58.5,26.6,58.4z M26.7,58.5L26.7,58.5
		L26.7,58.5c0-0.2-0.1-0.2-0.1-0.3c0-0.1-0.1-0.1-0.1-0.2l-0.1-0.1c-0.1-0.1-0.1-0.1-0.2-0.1c-0.3-0.2-0.7-0.4-1.1-0.4v-0.1
		c-0.6,0-1.1,0.3-1.5,0.7c-0.2,0.1-0.3,0.3-0.4,0.5c-0.1,0.1-0.1,0.2-0.1,0.3C23,58.9,23,59,22.9,59.2c-0.1,0.1-0.1,0.3-0.2,0.4
		c-0.1,0.1-0.1,0.3-0.1,0.4c-0.1,0.3-0.2,0.7-0.2,1s-0.1,0.6-0.1,0.9c0,1.6,0.7,2.5,1.9,2.5c0.9,0,1.5-0.5,2-1.3
		c0.1-0.1,0.1-0.1,0.1-0.2c0,0,0,0,0-0.1l0,0c0.1-0.2,0.2-0.4,0.3-0.6c0,0,0,0,0-0.1l0,0c0.1-0.2,0.1-0.4,0.2-0.6v-0.1
		c0.1-0.5,0.2-1.1,0.2-1.6C26.9,59.3,26.8,58.9,26.7,58.5z M63.2,61.7c-0.1,0-0.1,0-0.2,0v-0.1h-1.1v0.1l0,0v0.1l-0.4,2.7h1
		c0.9,0.1,1.7-0.5,1.8-1.4c0-0.1,0-0.1,0-0.2C64.3,62.2,63.8,61.7,63.2,61.7z M64.5,58.2C64.5,58.1,64.4,58.1,64.5,58.2
		c-0.1-0.5-0.5-0.8-1.2-0.8h-0.8v0.1l-0.3,2.4V60h0.7c0.4,0,0.8-0.1,1.1-0.3c0.1,0,0.2-0.1,0.2-0.1c0.1-0.1,0.2-0.3,0.3-0.4
		c0-0.1,0.1-0.1,0.1-0.2v-0.1l0,0c0-0.1,0-0.2,0-0.3v-0.1C64.5,58.3,64.5,58.2,64.5,58.2z M72.7,62.1l-0.6-4v0.1l-1.6,3.9v0.1
		L72.7,62.1L72.7,62.1L72.7,62.1z M72.7,62.1l-0.6-4v0.1l-1.6,3.9v0.1L72.7,62.1L72.7,62.1L72.7,62.1z M64.5,58.2
		C64.5,58.1,64.4,58.1,64.5,58.2c-0.1-0.5-0.5-0.8-1.2-0.8h-0.8v0.1l-0.3,2.4V60h0.7c0.4,0,0.8-0.1,1.1-0.3c0.1,0,0.2-0.1,0.2-0.1
		c0.1-0.1,0.2-0.3,0.3-0.4c0-0.1,0.1-0.1,0.1-0.2v-0.1l0,0c0-0.1,0-0.2,0-0.3v-0.1C64.5,58.3,64.5,58.2,64.5,58.2z M63.2,61.7
		c-0.1,0-0.1,0-0.2,0v-0.1h-1.1v0.1l0,0v0.1l-0.4,2.7h1c0.9,0.1,1.7-0.5,1.8-1.4c0-0.1,0-0.1,0-0.2C64.3,62.2,63.8,61.7,63.2,61.7z
		 M26.7,58.5L26.7,58.5L26.7,58.5c0-0.2-0.1-0.2-0.1-0.3c0-0.1-0.1-0.1-0.1-0.2l-0.1-0.1c-0.1-0.1-0.1-0.1-0.2-0.1
		c-0.3-0.2-0.7-0.4-1.1-0.4v-0.1c-0.6,0-1.1,0.3-1.5,0.7c-0.2,0.1-0.3,0.3-0.4,0.5c-0.1,0.1-0.1,0.2-0.1,0.3
		C23,58.9,23,59,22.9,59.2c-0.1,0.1-0.1,0.3-0.2,0.4c-0.1,0.1-0.1,0.3-0.1,0.4c-0.1,0.3-0.2,0.7-0.2,1s-0.1,0.6-0.1,0.9
		c0,1.6,0.7,2.5,1.9,2.5c0.9,0,1.5-0.5,2-1.3c0.1-0.1,0.1-0.1,0.1-0.2c0,0,0,0,0-0.1l0,0c0.1-0.2,0.2-0.4,0.3-0.6c0,0,0,0,0-0.1l0,0
		c0.1-0.2,0.1-0.4,0.2-0.6v-0.1c0.1-0.5,0.2-1.1,0.2-1.6C26.9,59.3,26.8,58.9,26.7,58.5z M26.7,58.5L26.7,58.5L26.7,58.5
		c0-0.2-0.1-0.2-0.1-0.3c0-0.1-0.1-0.1-0.1-0.2l-0.1-0.1c-0.1-0.1-0.1-0.1-0.2-0.1c-0.3-0.2-0.7-0.4-1.1-0.4v-0.1
		c-0.6,0-1.1,0.3-1.5,0.7c-0.2,0.1-0.3,0.3-0.4,0.5c-0.1,0.1-0.1,0.2-0.1,0.3C23,58.9,23,59,22.9,59.2c-0.1,0.1-0.1,0.3-0.2,0.4
		c-0.1,0.1-0.1,0.3-0.1,0.4c-0.1,0.3-0.2,0.7-0.2,1s-0.1,0.6-0.1,0.9c0,1.6,0.7,2.5,1.9,2.5c0.9,0,1.5-0.5,2-1.3
		c0.1-0.1,0.1-0.1,0.1-0.2c0,0,0,0,0-0.1l0,0c0.1-0.2,0.2-0.4,0.3-0.6c0,0,0,0,0-0.1l0,0c0.1-0.2,0.1-0.4,0.2-0.6v-0.1
		c0.1-0.5,0.2-1.1,0.2-1.6C26.9,59.3,26.8,58.9,26.7,58.5z M63.2,61.7c-0.1,0-0.1,0-0.2,0v-0.1h-1.1v0.1l0,0v0.1l-0.4,2.7h1
		c0.9,0.1,1.7-0.5,1.8-1.4c0-0.1,0-0.1,0-0.2C64.3,62.2,63.8,61.7,63.2,61.7z M64.5,58.2C64.5,58.1,64.4,58.1,64.5,58.2
		c-0.1-0.5-0.5-0.8-1.2-0.8h-0.8v0.1l-0.3,2.4V60h0.7c0.4,0,0.8-0.1,1.1-0.3c0.1,0,0.2-0.1,0.2-0.1c0.1-0.1,0.2-0.3,0.3-0.4
		c0-0.1,0.1-0.1,0.1-0.2v-0.1l0,0c0-0.1,0-0.2,0-0.3v-0.1C64.5,58.3,64.5,58.2,64.5,58.2z M72.7,62.1l-0.6-4v0.1l-1.6,3.9v0.1
		L72.7,62.1L72.7,62.1L72.7,62.1z M72.7,62.1l-0.6-4v0.1l-1.6,3.9v0.1L72.7,62.1L72.7,62.1L72.7,62.1z M64.5,58.2
		C64.5,58.1,64.4,58.1,64.5,58.2c-0.1-0.5-0.5-0.8-1.2-0.8h-0.8v0.1l-0.3,2.4V60h0.7c0.4,0,0.8-0.1,1.1-0.3c0.1,0,0.2-0.1,0.2-0.1
		c0.1-0.1,0.2-0.3,0.3-0.4c0-0.1,0.1-0.1,0.1-0.2v-0.1l0,0c0-0.1,0-0.2,0-0.3v-0.1C64.5,58.3,64.5,58.2,64.5,58.2z M63.2,61.7
		c-0.1,0-0.1,0-0.2,0v-0.1h-1.1v0.1l0,0v0.1l-0.4,2.7h1c0.9,0.1,1.7-0.5,1.8-1.4c0-0.1,0-0.1,0-0.2C64.3,62.2,63.8,61.7,63.2,61.7z
		 M26.7,58.5L26.7,58.5L26.7,58.5c0-0.2-0.1-0.2-0.1-0.3c0-0.1-0.1-0.1-0.1-0.2l-0.1-0.1c-0.1-0.1-0.1-0.1-0.2-0.1
		c-0.3-0.2-0.7-0.4-1.1-0.4v-0.1c-0.6,0-1.1,0.3-1.5,0.7c-0.2,0.1-0.3,0.3-0.4,0.5c-0.1,0.1-0.1,0.2-0.1,0.3
		C23,58.9,23,59,22.9,59.2c-0.1,0.1-0.1,0.3-0.2,0.4c-0.1,0.1-0.1,0.3-0.1,0.4c-0.1,0.3-0.2,0.7-0.2,1s-0.1,0.6-0.1,0.9
		c0,1.6,0.7,2.5,1.9,2.5c0.9,0,1.5-0.5,2-1.3c0.1-0.1,0.1-0.1,0.1-0.2c0,0,0,0,0-0.1l0,0c0.1-0.2,0.2-0.4,0.3-0.6c0,0,0,0,0-0.1l0,0
		c0.1-0.2,0.1-0.4,0.2-0.6v-0.1c0.1-0.5,0.2-1.1,0.2-1.6C26.9,59.3,26.8,58.9,26.7,58.5z M26.7,58.5L26.7,58.5L26.7,58.5
		c0-0.2-0.1-0.2-0.1-0.3c0-0.1-0.1-0.1-0.1-0.2l-0.1-0.1c-0.1-0.1-0.1-0.1-0.2-0.1c-0.3-0.2-0.7-0.4-1.1-0.4v-0.1
		c-0.6,0-1.1,0.3-1.5,0.7c-0.2,0.1-0.3,0.3-0.4,0.5c-0.1,0.1-0.1,0.2-0.1,0.3C23,58.9,23,59,22.9,59.2c-0.1,0.1-0.1,0.3-0.2,0.4
		c-0.1,0.1-0.1,0.3-0.1,0.4c-0.1,0.3-0.2,0.7-0.2,1s-0.1,0.6-0.1,0.9c0,1.6,0.7,2.5,1.9,2.5c0.9,0,1.5-0.5,2-1.3
		c0.1-0.1,0.1-0.1,0.1-0.2c0,0,0,0,0-0.1l0,0c0.1-0.2,0.2-0.4,0.3-0.6c0,0,0,0,0-0.1l0,0c0.1-0.2,0.1-0.4,0.2-0.6v-0.1
		c0.1-0.5,0.2-1.1,0.2-1.6C26.9,59.3,26.8,58.9,26.7,58.5z M63.2,61.7c-0.1,0-0.1,0-0.2,0v-0.1h-1.1v0.1l0,0v0.1l-0.4,2.7h1
		c0.9,0.1,1.7-0.5,1.8-1.4c0-0.1,0-0.1,0-0.2C64.3,62.2,63.8,61.7,63.2,61.7z M64.5,58.2C64.5,58.1,64.4,58.1,64.5,58.2
		c-0.1-0.5-0.5-0.8-1.2-0.8h-0.8v0.1l-0.3,2.4V60h0.7c0.4,0,0.8-0.1,1.1-0.3c0.1,0,0.2-0.1,0.2-0.1c0.1-0.1,0.2-0.3,0.3-0.4
		c0-0.1,0.1-0.1,0.1-0.2v-0.1l0,0c0-0.1,0-0.2,0-0.3v-0.1C64.5,58.3,64.5,58.2,64.5,58.2z M72.7,62.1l-0.6-4v0.1l-1.6,3.9v0.1
		L72.7,62.1L72.7,62.1L72.7,62.1z M72.7,62.1l-0.6-4v0.1l-1.6,3.9v0.1L72.7,62.1L72.7,62.1L72.7,62.1z M64.5,58.2
		C64.5,58.1,64.4,58.1,64.5,58.2c-0.1-0.5-0.5-0.8-1.2-0.8h-0.8v0.1l-0.3,2.4V60h0.7c0.4,0,0.8-0.1,1.1-0.3c0.1,0,0.2-0.1,0.2-0.1
		c0.1-0.1,0.2-0.3,0.3-0.4c0-0.1,0.1-0.1,0.1-0.2v-0.1l0,0c0-0.1,0-0.2,0-0.3v-0.1C64.5,58.3,64.5,58.2,64.5,58.2z M63.2,61.7
		c-0.1,0-0.1,0-0.2,0v-0.1h-1.1v0.1l0,0v0.1l-0.4,2.7h1c0.9,0.1,1.7-0.5,1.8-1.4c0-0.1,0-0.1,0-0.2C64.3,62.2,63.8,61.7,63.2,61.7z
		 M26.7,58.5L26.7,58.5L26.7,58.5c0-0.2-0.1-0.2-0.1-0.3c0-0.1-0.1-0.1-0.1-0.2l-0.1-0.1c-0.1-0.1-0.1-0.1-0.2-0.1
		c-0.3-0.2-0.7-0.4-1.1-0.4v-0.1c-0.6,0-1.1,0.3-1.5,0.7c-0.2,0.1-0.3,0.3-0.4,0.5c-0.1,0.1-0.1,0.2-0.1,0.3
		C23,58.9,23,59,22.9,59.2c-0.1,0.1-0.1,0.3-0.2,0.4c-0.1,0.1-0.1,0.3-0.1,0.4c-0.1,0.3-0.2,0.7-0.2,1s-0.1,0.6-0.1,0.9
		c0,1.6,0.7,2.5,1.9,2.5c0.9,0,1.5-0.5,2-1.3c0.1-0.1,0.1-0.1,0.1-0.2c0,0,0,0,0-0.1l0,0c0.1-0.2,0.2-0.4,0.3-0.6c0,0,0,0,0-0.1l0,0
		c0.1-0.2,0.1-0.4,0.2-0.6v-0.1c0.1-0.5,0.2-1.1,0.2-1.6C26.9,59.3,26.8,58.9,26.7,58.5z M26.7,58.5L26.7,58.5L26.7,58.5
		c0-0.2-0.1-0.2-0.1-0.3c0-0.1-0.1-0.1-0.1-0.2l-0.1-0.1c-0.1-0.1-0.1-0.1-0.2-0.1c-0.3-0.2-0.7-0.4-1.1-0.4v-0.1
		c-0.6,0-1.1,0.3-1.5,0.7c-0.2,0.1-0.3,0.3-0.4,0.5c-0.1,0.1-0.1,0.2-0.1,0.3C23,58.9,23,59,22.9,59.2c-0.1,0.1-0.1,0.3-0.2,0.4
		c-0.1,0.1-0.1,0.3-0.1,0.4c-0.1,0.3-0.2,0.7-0.2,1s-0.1,0.6-0.1,0.9c0,1.6,0.7,2.5,1.9,2.5c0.9,0,1.5-0.5,2-1.3
		c0.1-0.1,0.1-0.1,0.1-0.2c0,0,0,0,0-0.1l0,0c0.1-0.2,0.2-0.4,0.3-0.6c0,0,0,0,0-0.1l0,0c0.1-0.2,0.1-0.4,0.2-0.6v-0.1
		c0.1-0.5,0.2-1.1,0.2-1.6C26.9,59.3,26.8,58.9,26.7,58.5z M63.2,61.7c-0.1,0-0.1,0-0.2,0v-0.1h-1.1v0.1l0,0v0.1l-0.4,2.7h1
		c0.9,0.1,1.7-0.5,1.8-1.4c0-0.1,0-0.1,0-0.2C64.3,62.2,63.8,61.7,63.2,61.7z M64.5,58.2C64.5,58.1,64.4,58.1,64.5,58.2
		c-0.1-0.5-0.5-0.8-1.2-0.8h-0.8v0.1l-0.3,2.4V60h0.7c0.4,0,0.8-0.1,1.1-0.3c0.1,0,0.2-0.1,0.2-0.1c0.1-0.1,0.2-0.3,0.3-0.4
		c0-0.1,0.1-0.1,0.1-0.2v-0.1l0,0c0-0.1,0-0.2,0-0.3v-0.1C64.5,58.3,64.5,58.2,64.5,58.2z M72.7,62.1l-0.6-4v0.1l-1.6,3.9v0.1
		L72.7,62.1L72.7,62.1L72.7,62.1z M72.7,62.1l-0.6-4v0.1l-1.6,3.9v0.1L72.7,62.1L72.7,62.1L72.7,62.1z M64.5,58.2
		C64.5,58.1,64.4,58.1,64.5,58.2c-0.1-0.5-0.5-0.8-1.2-0.8h-0.8v0.1l-0.3,2.4V60h0.7c0.4,0,0.8-0.1,1.1-0.3c0.1,0,0.2-0.1,0.2-0.1
		c0.1-0.1,0.2-0.3,0.3-0.4c0-0.1,0.1-0.1,0.1-0.2v-0.1l0,0c0-0.1,0-0.2,0-0.3v-0.1C64.5,58.3,64.5,58.2,64.5,58.2z M63.2,61.7
		c-0.1,0-0.1,0-0.2,0v-0.1h-1.1v0.1l0,0v0.1l-0.4,2.7h1c0.9,0.1,1.7-0.5,1.8-1.4c0-0.1,0-0.1,0-0.2C64.3,62.2,63.8,61.7,63.2,61.7z
		 M26.7,58.5L26.7,58.5L26.7,58.5c0-0.2-0.1-0.2-0.1-0.3c0-0.1-0.1-0.1-0.1-0.2l-0.1-0.1c-0.1-0.1-0.1-0.1-0.2-0.1
		c-0.3-0.2-0.7-0.4-1.1-0.4v-0.1c-0.6,0-1.1,0.3-1.5,0.7c-0.2,0.1-0.3,0.3-0.4,0.5c-0.1,0.1-0.1,0.2-0.1,0.3
		C23,58.9,23,59,22.9,59.2c-0.1,0.1-0.1,0.3-0.2,0.4c-0.1,0.1-0.1,0.3-0.1,0.4c-0.1,0.3-0.2,0.7-0.2,1s-0.1,0.6-0.1,0.9
		c0,1.6,0.7,2.5,1.9,2.5c0.9,0,1.5-0.5,2-1.3c0.1-0.1,0.1-0.1,0.1-0.2c0,0,0,0,0-0.1l0,0c0.1-0.2,0.2-0.4,0.3-0.6c0,0,0,0,0-0.1l0,0
		c0.1-0.2,0.1-0.4,0.2-0.6v-0.1c0.1-0.5,0.2-1.1,0.2-1.6C26.9,59.3,26.8,58.9,26.7,58.5z M26.7,58.5L26.7,58.5L26.7,58.5
		c0-0.2-0.1-0.2-0.1-0.3c0-0.1-0.1-0.1-0.1-0.2l-0.1-0.1c-0.1-0.1-0.1-0.1-0.2-0.1c-0.3-0.2-0.7-0.4-1.1-0.4v-0.1
		c-0.6,0-1.1,0.3-1.5,0.7c-0.2,0.1-0.3,0.3-0.4,0.5c-0.1,0.1-0.1,0.2-0.1,0.3C23,58.9,23,59,22.9,59.2c-0.1,0.1-0.1,0.3-0.2,0.4
		c-0.1,0.1-0.1,0.3-0.1,0.4c-0.1,0.3-0.2,0.7-0.2,1s-0.1,0.6-0.1,0.9c0,1.6,0.7,2.5,1.9,2.5c0.9,0,1.5-0.5,2-1.3
		c0.1-0.1,0.1-0.1,0.1-0.2c0,0,0,0,0-0.1l0,0c0.1-0.2,0.2-0.4,0.3-0.6c0,0,0,0,0-0.1l0,0c0.1-0.2,0.1-0.4,0.2-0.6v-0.1
		c0.1-0.5,0.2-1.1,0.2-1.6C26.9,59.3,26.8,58.9,26.7,58.5z M63.2,61.7c-0.1,0-0.1,0-0.2,0v-0.1h-1.1v0.1l0,0v0.1l-0.4,2.7h1
		c0.9,0.1,1.7-0.5,1.8-1.4c0-0.1,0-0.1,0-0.2C64.3,62.2,63.8,61.7,63.2,61.7z M64.5,58.2C64.5,58.1,64.4,58.1,64.5,58.2
		c-0.1-0.5-0.5-0.8-1.2-0.8h-0.8v0.1l-0.3,2.4V60h0.7c0.4,0,0.8-0.1,1.1-0.3c0.1,0,0.2-0.1,0.2-0.1c0.1-0.1,0.2-0.3,0.3-0.4
		c0-0.1,0.1-0.1,0.1-0.2v-0.1l0,0c0-0.1,0-0.2,0-0.3v-0.1C64.5,58.3,64.5,58.2,64.5,58.2z M72.7,62.1l-0.6-4v0.1l-1.6,3.9v0.1
		L72.7,62.1L72.7,62.1L72.7,62.1z M72.7,62.1l-0.6-4v0.1l-1.6,3.9v0.1L72.7,62.1L72.7,62.1L72.7,62.1z M64.5,58.2
		C64.5,58.1,64.4,58.1,64.5,58.2c-0.1-0.5-0.5-0.8-1.2-0.8h-0.8v0.1l-0.3,2.4V60h0.7c0.4,0,0.8-0.1,1.1-0.3c0.1,0,0.2-0.1,0.2-0.1
		c0.1-0.1,0.2-0.3,0.3-0.4c0-0.1,0.1-0.1,0.1-0.2v-0.1l0,0c0-0.1,0-0.2,0-0.3v-0.1C64.5,58.3,64.5,58.2,64.5,58.2z M63.2,61.7
		c-0.1,0-0.1,0-0.2,0v-0.1h-1.1v0.1l0,0v0.1l-0.4,2.7h1c0.9,0.1,1.7-0.5,1.8-1.4c0-0.1,0-0.1,0-0.2C64.3,62.2,63.8,61.7,63.2,61.7z
		 M26.7,58.5L26.7,58.5L26.7,58.5c0-0.2-0.1-0.2-0.1-0.3c0-0.1-0.1-0.1-0.1-0.2l-0.1-0.1c-0.1-0.1-0.1-0.1-0.2-0.1
		c-0.3-0.2-0.7-0.4-1.1-0.4v-0.1c-0.6,0-1.1,0.3-1.5,0.7c-0.2,0.1-0.3,0.3-0.4,0.5c-0.1,0.1-0.1,0.2-0.1,0.3
		C23,58.9,23,59,22.9,59.2c-0.1,0.1-0.1,0.3-0.2,0.4c-0.1,0.1-0.1,0.3-0.1,0.4c-0.1,0.3-0.2,0.7-0.2,1s-0.1,0.6-0.1,0.9
		c0,1.6,0.7,2.5,1.9,2.5c0.9,0,1.5-0.5,2-1.3c0.1-0.1,0.1-0.1,0.1-0.2c0,0,0,0,0-0.1l0,0c0.1-0.2,0.2-0.4,0.3-0.6c0,0,0,0,0-0.1l0,0
		c0.1-0.2,0.1-0.4,0.2-0.6v-0.1c0.1-0.5,0.2-1.1,0.2-1.6C26.9,59.3,26.8,58.9,26.7,58.5z M26.7,58.5L26.7,58.5L26.7,58.5
		c0-0.2-0.1-0.2-0.1-0.3c0-0.1-0.1-0.1-0.1-0.2l-0.1-0.1c-0.1-0.1-0.1-0.1-0.2-0.1c-0.3-0.2-0.7-0.4-1.1-0.4v-0.1
		c-0.6,0-1.1,0.3-1.5,0.7c-0.2,0.1-0.3,0.3-0.4,0.5c0,0,0,0,0,0.1s-0.1,0.1-0.1,0.2C23,58.9,23,59,22.9,59.2c0,0.1-0.1,0.2-0.1,0.3
		c-0.1,0.2-0.1,0.4-0.2,0.6c-0.1,0.6-0.2,1.2-0.2,1.8c0,1.6,0.7,2.5,1.9,2.5c0.6,0,1.1-0.2,1.5-0.6c0.2-0.2,0.3-0.3,0.4-0.5
		c0.1-0.1,0.1-0.1,0.1-0.2c0,0,0,0,0-0.1l0,0c0.1-0.2,0.2-0.4,0.3-0.6c0,0,0,0,0-0.1l0,0c0.1-0.2,0.1-0.4,0.2-0.6v-0.1
		c0.1-0.5,0.2-1.1,0.2-1.6C26.9,59.3,26.8,58.9,26.7,58.5z M63.2,61.7c-0.1,0-0.1,0-0.2,0v-0.1h-1.1v0.1v0.1l-0.4,2.7h1
		c0.9,0.1,1.7-0.5,1.8-1.4c0-0.1,0-0.1,0-0.2C64.3,62.2,63.8,61.7,63.2,61.7z M64.5,58.2C64.5,58.1,64.4,58.1,64.5,58.2
		c-0.1-0.5-0.5-0.8-1.2-0.8h-0.8v0.1l-0.3,2.4h0.7c0.4,0,0.8-0.1,1.1-0.2c0.1,0,0.2-0.1,0.2-0.1c0.1-0.1,0.2-0.3,0.3-0.4
		c0-0.1,0.1-0.1,0.1-0.2v-0.1l0,0c0-0.1,0-0.2,0-0.3v-0.1C64.5,58.3,64.5,58.2,64.5,58.2z M72.1,58.1L72.1,58.1l-1.6,4h2.3
		L72.1,58.1z M72.1,58.1L72.1,58.1l-1.6,4h2.3L72.1,58.1z M64.5,58.2C64.5,58.1,64.4,58.1,64.5,58.2c-0.1-0.2-0.1-0.3-0.2-0.4
		c0-0.1-0.1-0.1-0.1-0.1c-0.2-0.2-0.5-0.2-0.9-0.2v-0.1h-0.8v0.1l-0.3,2.4h0.7c0.8,0,1.3-0.3,1.6-0.8c0-0.1,0.1-0.1,0.1-0.2v-0.1
		l0,0c0-0.1,0-0.2,0-0.3v-0.1C64.5,58.3,64.5,58.2,64.5,58.2z M63.2,61.7c-0.1,0-0.1,0-0.2,0h-1.1v0.1l-0.4,2.7h1
		c0.9,0.1,1.7-0.5,1.8-1.4c0-0.1,0-0.1,0-0.2C64.3,62.2,63.8,61.7,63.2,61.7z M26.9,59.3c0-0.1,0-0.3-0.1-0.4c0-0.1,0-0.2-0.1-0.3
		v-0.1v-0.1l0,0c0-0.1-0.1-0.1-0.1-0.2c0-0.1-0.1-0.1-0.1-0.2l-0.1-0.1c-0.1-0.1-0.1-0.1-0.2-0.1c-0.3-0.2-0.7-0.4-1.1-0.4
		c-0.6,0-1.1,0.2-1.5,0.6c-0.2,0.1-0.3,0.3-0.4,0.5c-0.1,0.1-0.1,0.2-0.1,0.3C23,58.9,23,59,22.9,59.2c-0.1,0.1-0.1,0.3-0.2,0.4
		c-0.1,0.1-0.1,0.3-0.1,0.4c-0.1,0.3-0.2,0.7-0.2,1s0,0.5,0,0.8c0,1.6,0.7,2.5,1.9,2.5c0.6,0,1.1-0.3,1.5-0.7
		c0.2-0.2,0.3-0.3,0.4-0.5c0-0.1,0.1-0.2,0.1-0.3l0,0c0.1-0.2,0.2-0.4,0.3-0.6c0,0,0,0,0-0.1l0,0c0.1-0.2,0.1-0.4,0.2-0.6v-0.1
		c0-0.2,0.1-0.5,0.1-0.7c0-0.3,0.1-0.6,0.1-0.9C26.9,59.7,26.9,59.5,26.9,59.3z M26.9,59.3c0-0.1,0-0.3-0.1-0.4c0-0.1,0-0.2-0.1-0.3
		v-0.1v-0.1l0,0c0-0.1-0.1-0.1-0.1-0.2c0-0.1-0.1-0.1-0.1-0.2l-0.1-0.1c-0.1-0.1-0.1-0.1-0.2-0.1c-0.3-0.2-0.7-0.4-1.1-0.4
		c-0.6,0-1.1,0.2-1.5,0.6c-0.2,0.1-0.3,0.3-0.4,0.5c-0.1,0.1-0.1,0.2-0.1,0.3C23,58.9,23,59,22.9,59.2c-0.1,0.1-0.1,0.3-0.2,0.4
		c-0.1,0.1-0.1,0.3-0.1,0.4c-0.1,0.3-0.2,0.7-0.2,1s0,0.5,0,0.8c0,1.6,0.7,2.5,1.9,2.5c0.6,0,1.1-0.3,1.5-0.7
		c0.2-0.2,0.3-0.3,0.4-0.5c0-0.1,0.1-0.2,0.1-0.3l0,0c0.1-0.2,0.2-0.4,0.3-0.6c0,0,0,0,0-0.1l0,0c0.1-0.2,0.1-0.4,0.2-0.6v-0.1
		c0-0.2,0.1-0.5,0.1-0.7c0-0.3,0.1-0.6,0.1-0.9C26.9,59.7,26.9,59.5,26.9,59.3z M63.2,61.7c-0.1,0-0.1,0-0.2,0h-1.1v0.1l-0.4,2.7h1
		c0.9,0.1,1.7-0.5,1.8-1.4c0-0.1,0-0.1,0-0.2C64.3,62.2,63.8,61.7,63.2,61.7z M64.5,58.2C64.5,58.1,64.4,58.1,64.5,58.2
		c-0.1-0.2-0.1-0.3-0.2-0.4c0-0.1-0.1-0.1-0.1-0.1c-0.2-0.2-0.5-0.2-0.9-0.2v-0.1h-0.8v0.1l-0.3,2.4h0.7c0.8,0,1.3-0.3,1.6-0.8
		c0-0.1,0.1-0.1,0.1-0.2v-0.1l0,0c0-0.1,0-0.2,0-0.3v-0.1C64.5,58.3,64.5,58.2,64.5,58.2z M72.1,58.1L72.1,58.1l-1.6,4h2.3
		L72.1,58.1z M72.1,58.1L72.1,58.1l-1.6,4h2.3L72.1,58.1z M64.5,58.2C64.5,58.1,64.4,58.1,64.5,58.2c-0.1-0.2-0.1-0.3-0.2-0.4
		c0-0.1-0.1-0.1-0.1-0.1c-0.2-0.2-0.5-0.2-0.9-0.2v-0.1h-0.8v0.1l-0.3,2.4h0.7c0.8,0,1.3-0.3,1.6-0.8c0-0.1,0.1-0.1,0.1-0.2v-0.1
		l0,0c0-0.1,0-0.2,0-0.3v-0.1C64.5,58.3,64.5,58.2,64.5,58.2z M63.2,61.7c-0.1,0-0.1,0-0.2,0h-1.1v0.1l-0.4,2.7h1
		c0.9,0.1,1.7-0.5,1.8-1.4c0-0.1,0-0.1,0-0.2C64.3,62.2,63.8,61.7,63.2,61.7z M26.9,59.3c0-0.1,0-0.3-0.1-0.4c0-0.1,0-0.2-0.1-0.3
		v-0.1v-0.1l0,0c0-0.1-0.1-0.1-0.1-0.2c0-0.1-0.1-0.1-0.1-0.2l-0.1-0.1c-0.1-0.1-0.1-0.1-0.2-0.1c-0.3-0.2-0.7-0.4-1.1-0.4
		c-0.6,0-1.1,0.2-1.5,0.6c-0.2,0.1-0.3,0.3-0.4,0.5c-0.1,0.1-0.1,0.2-0.1,0.3C23,58.9,23,59,22.9,59.2c-0.1,0.1-0.1,0.3-0.2,0.4
		c-0.1,0.1-0.1,0.3-0.1,0.4c-0.1,0.3-0.2,0.7-0.2,1s0,0.5,0,0.8c0,1.6,0.7,2.5,1.9,2.5c0.6,0,1.1-0.3,1.5-0.7
		c0.2-0.2,0.3-0.3,0.4-0.5c0-0.1,0.1-0.2,0.1-0.3l0,0c0.1-0.2,0.2-0.4,0.3-0.6c0,0,0,0,0-0.1l0,0c0.1-0.2,0.1-0.4,0.2-0.6v-0.1
		c0-0.2,0.1-0.5,0.1-0.7c0-0.3,0.1-0.6,0.1-0.9C26.9,59.7,26.9,59.5,26.9,59.3z M26.9,59.3c0-0.1,0-0.3-0.1-0.4c0-0.1,0-0.2-0.1-0.3
		v-0.1v-0.1l0,0c0-0.1-0.1-0.1-0.1-0.2c0-0.1-0.1-0.1-0.1-0.2l-0.1-0.1c-0.1-0.1-0.1-0.1-0.2-0.1c-0.3-0.2-0.7-0.4-1.1-0.4
		c-0.6,0-1.1,0.2-1.5,0.6c-0.2,0.1-0.3,0.3-0.4,0.5c-0.1,0.1-0.1,0.2-0.1,0.3C23,58.9,23,59,22.9,59.2c-0.1,0.1-0.1,0.3-0.2,0.4
		c-0.1,0.1-0.1,0.3-0.1,0.4c-0.1,0.3-0.2,0.7-0.2,1s0,0.5,0,0.8c0,1.6,0.7,2.5,1.9,2.5c0.6,0,1.1-0.3,1.5-0.7
		c0.2-0.2,0.3-0.3,0.4-0.5c0-0.1,0.1-0.2,0.1-0.3l0,0c0.1-0.2,0.2-0.4,0.3-0.6c0,0,0,0,0-0.1l0,0c0.1-0.2,0.1-0.4,0.2-0.6v-0.1
		c0-0.2,0.1-0.5,0.1-0.7c0-0.3,0.1-0.6,0.1-0.9C26.9,59.7,26.9,59.5,26.9,59.3z M63.2,61.7c-0.1,0-0.1,0-0.2,0h-1.1v0.1l-0.4,2.7h1
		c0.9,0.1,1.7-0.5,1.8-1.4c0-0.1,0-0.1,0-0.2C64.3,62.2,63.8,61.7,63.2,61.7z M64.5,58.2C64.5,58.1,64.4,58.1,64.5,58.2
		c-0.1-0.2-0.1-0.3-0.2-0.4c0-0.1-0.1-0.1-0.1-0.1c-0.2-0.2-0.5-0.2-0.9-0.2v-0.1h-0.8v0.1l-0.3,2.4h0.7c0.8,0,1.3-0.3,1.6-0.8
		c0-0.1,0.1-0.1,0.1-0.2v-0.1l0,0c0-0.1,0-0.2,0-0.3v-0.1C64.5,58.3,64.5,58.2,64.5,58.2z M64.5,58.2C64.5,58.1,64.4,58.1,64.5,58.2
		c-0.1-0.2-0.1-0.3-0.2-0.4c0-0.1-0.1-0.1-0.1-0.1c-0.2-0.2-0.5-0.2-0.9-0.2v-0.1h-0.8v0.1l-0.3,2.4h0.7c0.8,0,1.3-0.3,1.6-0.8
		c0-0.1,0.1-0.1,0.1-0.2v-0.1l0,0c0-0.1,0-0.2,0-0.3v-0.1C64.5,58.3,64.5,58.2,64.5,58.2z M63.2,61.7c-0.1,0-0.1,0-0.2,0h-1.1v0.1
		l-0.4,2.7h1c0.9,0.1,1.7-0.5,1.8-1.4c0-0.1,0-0.1,0-0.2C64.3,62.2,63.8,61.7,63.2,61.7z M26.9,59.3c0-0.1,0-0.3-0.1-0.4
		c0-0.1,0-0.2-0.1-0.3v-0.1v-0.1l0,0c0-0.1-0.1-0.1-0.1-0.2c0-0.1-0.1-0.1-0.1-0.2l-0.1-0.1c-0.1-0.1-0.1-0.1-0.2-0.1
		c-0.3-0.2-0.7-0.4-1.1-0.4c-0.6,0-1.1,0.2-1.5,0.6c-0.2,0.1-0.3,0.3-0.4,0.5c-0.1,0.1-0.1,0.2-0.1,0.3C23,58.9,23,59,22.9,59.2
		c-0.1,0.1-0.1,0.3-0.2,0.4c-0.1,0.1-0.1,0.3-0.1,0.4c-0.1,0.3-0.2,0.7-0.2,1s0,0.5,0,0.8c0,1.6,0.7,2.5,1.9,2.5
		c0.6,0,1.1-0.3,1.5-0.7c0.2-0.2,0.3-0.3,0.4-0.5c0-0.1,0.1-0.2,0.1-0.3l0,0c0.1-0.2,0.2-0.4,0.3-0.6c0,0,0,0,0-0.1l0,0
		c0.1-0.2,0.1-0.4,0.2-0.6v-0.1c0-0.2,0.1-0.5,0.1-0.7c0-0.3,0.1-0.6,0.1-0.9C26.9,59.7,26.9,59.5,26.9,59.3z M26.9,59.3
		c0-0.1,0-0.3-0.1-0.4c0-0.1,0-0.2-0.1-0.3v-0.1v-0.1l0,0c0-0.1-0.1-0.1-0.1-0.2c0-0.1-0.1-0.1-0.1-0.2l-0.1-0.1
		c-0.1-0.1-0.1-0.1-0.2-0.1c-0.3-0.2-0.7-0.4-1.1-0.4c-0.6,0-1.1,0.2-1.5,0.6c-0.2,0.1-0.3,0.3-0.4,0.5c-0.1,0.1-0.1,0.2-0.1,0.3
		C23,58.9,23,59,22.9,59.2c-0.1,0.1-0.1,0.3-0.2,0.4c-0.1,0.1-0.1,0.3-0.1,0.4c-0.1,0.3-0.2,0.7-0.2,1s0,0.5,0,0.8
		c0,1.6,0.7,2.5,1.9,2.5c0.6,0,1.1-0.3,1.5-0.7c0.2-0.2,0.3-0.3,0.4-0.5c0-0.1,0.1-0.2,0.1-0.3l0,0c0.1-0.2,0.2-0.4,0.3-0.6
		c0,0,0,0,0-0.1l0,0c0.1-0.2,0.1-0.4,0.2-0.6v-0.1c0-0.2,0.1-0.5,0.1-0.7c0-0.3,0.1-0.6,0.1-0.9C26.9,59.7,26.9,59.5,26.9,59.3z
		 M26.9,59.3c0-0.1,0-0.3-0.1-0.4c0-0.1,0-0.2-0.1-0.3v-0.1v-0.1l0,0c0-0.1-0.1-0.1-0.1-0.2c0-0.1-0.1-0.1-0.1-0.2l-0.1-0.1
		c-0.1-0.1-0.1-0.1-0.2-0.1c-0.3-0.2-0.7-0.4-1.1-0.4c-0.6,0-1.1,0.2-1.5,0.6c-0.2,0.1-0.3,0.3-0.4,0.5c-0.1,0.1-0.1,0.2-0.1,0.3
		C23,58.9,23,59,22.9,59.2c-0.1,0.1-0.1,0.3-0.2,0.4c-0.1,0.1-0.1,0.3-0.1,0.4c-0.1,0.3-0.2,0.7-0.2,1s0,0.5,0,0.8
		c0,1.6,0.7,2.5,1.9,2.5c0.6,0,1.1-0.3,1.5-0.7c0.2-0.2,0.3-0.3,0.4-0.5c0-0.1,0.1-0.2,0.1-0.3l0,0c0.1-0.2,0.2-0.4,0.3-0.6
		c0,0,0,0,0-0.1l0,0c0.1-0.2,0.1-0.4,0.2-0.6v-0.1c0-0.2,0.1-0.5,0.1-0.7c0-0.3,0.1-0.6,0.1-0.9C26.9,59.7,26.9,59.5,26.9,59.3z
		 M26.9,59.3c0-0.1,0-0.3-0.1-0.4c0-0.1,0-0.2-0.1-0.3v-0.1v-0.1l0,0c0-0.1-0.1-0.1-0.1-0.2c0-0.1-0.1-0.1-0.1-0.2l-0.1-0.1
		c-0.1-0.1-0.1-0.1-0.2-0.1c-0.3-0.2-0.7-0.4-1.1-0.4c-0.6,0-1.1,0.2-1.5,0.6c-0.2,0.1-0.3,0.3-0.4,0.5c-0.1,0.1-0.1,0.2-0.1,0.3
		C23,58.9,23,59,22.9,59.2c-0.1,0.1-0.1,0.3-0.2,0.4c-0.1,0.1-0.1,0.3-0.1,0.4c-0.1,0.3-0.2,0.7-0.2,1s0,0.5,0,0.8
		c0,1.6,0.7,2.5,1.9,2.5c0.6,0,1.1-0.3,1.5-0.7c0.2-0.2,0.3-0.3,0.4-0.5c0-0.1,0.1-0.2,0.1-0.3l0,0c0.1-0.2,0.2-0.4,0.3-0.6
		c0,0,0,0,0-0.1l0,0c0.1-0.2,0.1-0.4,0.2-0.6v-0.1c0-0.2,0.1-0.5,0.1-0.7c0-0.3,0.1-0.6,0.1-0.9C26.9,59.7,26.9,59.5,26.9,59.3z
		 M26.9,59.3c0-0.1,0-0.3-0.1-0.4c0-0.1,0-0.2-0.1-0.3v-0.1v-0.1l0,0c0-0.1-0.1-0.1-0.1-0.2c0-0.1-0.1-0.1-0.1-0.2l-0.1-0.1
		c-0.1-0.1-0.1-0.1-0.2-0.1c-0.3-0.2-0.7-0.4-1.1-0.4c-0.6,0-1.1,0.2-1.5,0.6c-0.2,0.1-0.3,0.3-0.4,0.5c-0.1,0.1-0.1,0.2-0.1,0.3
		C23,58.9,23,59,22.9,59.2c-0.1,0.1-0.1,0.3-0.2,0.4c-0.1,0.1-0.1,0.3-0.1,0.4c-0.1,0.3-0.2,0.7-0.2,1s0,0.5,0,0.8
		c0,1.6,0.7,2.5,1.9,2.5c0.6,0,1.1-0.3,1.5-0.7c0.2-0.2,0.3-0.3,0.4-0.5c0-0.1,0.1-0.2,0.1-0.3l0,0c0.1-0.2,0.2-0.4,0.3-0.6
		c0,0,0,0,0-0.1l0,0c0.1-0.2,0.1-0.4,0.2-0.6v-0.1c0-0.2,0.1-0.5,0.1-0.7c0-0.3,0.1-0.6,0.1-0.9C26.9,59.7,26.9,59.5,26.9,59.3z
		 M36.1,31.3l1.8-2.3c1.1,1.1,2.8,1.8,4.4,1.8c1.9,0,3-0.8,3-2c0-1.3-1-1.8-3.2-1.8c-0.7,0-1.7,0-2,0v-3.1c0.3,0,1.4,0,2,0
		c1.8,0,2.9-0.5,2.9-1.7c0-1.3-1.3-1.9-3-1.9c-1.5,0-2.9,0.6-4,1.6l-1.7-2.1c1.3-1.5,3.3-2.5,6.1-2.5c3.7,0,6,1.7,6,4.3
		c0,2-1.7,3.3-3.5,3.6c1.6,0.2,3.7,1.4,3.7,3.8c0,2.7-2.5,4.7-6.3,4.7C39.4,33.8,37.2,32.7,36.1,31.3z M50.4,25.6
		c0-4.1,2-8.2,6.6-8.2c4.5,0,6.6,4.1,6.6,8.2s-2.1,8.2-6.6,8.2C52.4,33.8,50.4,29.7,50.4,25.6z M60.1,25.6c0-2.9-0.9-5.2-3.1-5.2
		c-2.3,0-3.2,2.3-3.2,5.2s0.9,5.2,3.2,5.2C59.3,30.8,60.1,28.5,60.1,25.6z M35.4,43.5v-8h3.3c2.5,0,4.3,1.5,4.3,4s-1.8,4-4.3,4H35.4
		z M41,39.5c0-1.2-0.7-2.2-2.2-2.2h-1.3v4.4h1.3C40.1,41.7,41,40.7,41,39.5z M49.1,43.5l-0.4-1.1h-3.1l-0.4,1.1h-2.3l3-8h2.6l3,8
		H49.1z M47.1,37.5l-1,3h2L47.1,37.5z M53.4,43.5v-3.2l-3-4.7h2.3l1.7,2.9l1.7-2.9h2.3l-3,4.7v3.2H53.4z M58.2,42.3l1.1-1.5
		c0.6,0.6,1.5,1.1,2.5,1.1c0.7,0,1.1-0.3,1.1-0.7c0-1.1-4.5-0.2-4.5-3.3c0-1.3,1.1-2.5,3.2-2.5c1.3,0,2.4,0.4,3.2,1.1l-1,1.5
		c-0.7-0.5-1.5-0.8-2.3-0.8c-0.6,0-0.9,0.2-0.9,0.6c0,1,4.5,0.3,4.5,3.2c0,1.6-1.2,2.7-3.3,2.7C60.1,43.6,59,43.1,58.2,42.3z"/>
</g>
</svg>
