<?xml version="1.0" encoding="utf-8"?>
<!-- Generator: Adobe Illustrator 24.1.1, SVG Export Plug-In . SVG Version: 6.00 Build 0)  -->
<svg version="1.1" id="Layer_1" xmlns="http://www.w3.org/2000/svg" xmlns:xlink="http://www.w3.org/1999/xlink" x="0px" y="0px"
	 viewBox="0 0 100 100" style="enable-background:new 0 0 100 100;" xml:space="preserve">
<style type="text/css">
	.st0{opacity:0;}
	.st1{fill:#FFFFFF;}

</style>
<g class="st0">
	<rect class="st1" width="100" height="100"/>
</g>
<path id="bg" d="M66,81.6v1.5h2.8v1.1H66v1.6h3v1.1h-4.5v-6.3H69v1.1L66,81.6z M84.6,47.1V31.8c0-1.9-0.9-3.7-2.5-4.8L53.4,7
	c-2-1.4-4.6-1.4-6.6,0L18,27c-1.6,1.1-2.5,2.9-2.5,4.8v15.3h1.3V31.8c0-1.5,0.7-2.9,1.9-3.7L47.5,8c1.6-1.1,3.6-1.1,5.2,0l28.7,20
	c1.2,0.8,1.9,2.2,1.9,3.7v15.3H84.6z M74.4,81.7v-1.1H70v6.3h4.4v-1.1h-3v-1.6h2.8v-1.1h-2.8v-1.5L74.4,81.7z M86.5,88.3
	c0,4.3-3.5,7.7-7.8,7.8H21.3c-4.3,0-7.7-3.5-7.8-7.8V74.2h-2.6v14.1c0,5.7,4.6,10.3,10.3,10.3h57.5c5.7,0,10.3-4.6,10.3-10.3V74.2
	h-2.6L86.5,88.3z M62,87v-5.2h1.9v-1.2h-5.4v1.1h2v5.2L62,87z M80.8,82c0.3,0.5,0.4,1.1,0.4,1.7c0,0.6-0.1,1.2-0.4,1.7
	c-0.3,0.5-0.7,0.9-1.2,1.1c-0.6,0.3-1.2,0.4-1.8,0.4h-2.5v-6.4h2.4c0.6,0,1.2,0.1,1.8,0.3C80.1,81.2,80.5,81.6,80.8,82z M79.8,83.2
	c-0.1-1-1-1.7-2-1.6h-1v4.1h1c0.6,0,1.1-0.1,1.5-0.5c0.4-0.4,0.6-1,0.5-1.6C79.9,83.5,79.9,83.4,79.8,83.2z M43.6,83.8
	c-0.2,0.2-0.5,0.3-0.7,0.4c0.1,0,0.3,0.1,0.4,0.2c0.2,0.1,0.3,0.4,0.4,0.6l0.8,2H43l-0.8-2.1c-0.1-0.1-0.2-0.3-0.3-0.3
	c-0.1-0.1-0.3-0.1-0.5-0.1h-0.9V87h-1.4v-6.4H42c0.6-0.1,1.2,0.1,1.7,0.4c0.4,0.3,0.6,0.9,0.6,1.4h-0.1C44.2,82.9,44,83.4,43.6,83.8
	z M43,82.4c0-0.2-0.1-0.5-0.3-0.6c-0.3-0.2-0.6-0.2-0.9-0.2h-1.3v1.7h1.3c0.3,0,0.6,0,0.9-0.2h-0.1C42.8,82.9,43,82.7,43,82.4z
	 M22.1,81.5c0.3,0,0.6,0.1,0.9,0.1c0.3,0.1,0.6,0.3,0.9,0.5l0.4-1c-0.3-0.2-0.6-0.4-1-0.5c-0.4-0.1-0.9-0.2-1.3-0.2
	c-0.6,0-1.2,0.1-1.7,0.4c-0.5,0.3-0.9,0.6-1.1,1.1c-0.3,0.5-0.4,1.1-0.4,1.7c0,0.6,0.1,1.2,0.4,1.8c0.3,0.5,0.7,0.9,1.1,1.1
	c0.6,0.3,1.2,0.4,1.8,0.4c0.3,0,0.6,0,0.9,0c0.3,0,0.6-0.1,0.8-0.1c0.2-0.1,0.5-0.2,0.7-0.3v-3.1H22v1h1.3v1.4
	c-0.1,0-0.3,0.1-0.4,0.1c-0.2,0-0.5,0-0.7,0c-0.6,0.1-1.1-0.1-1.5-0.6c-0.6-1-0.6-2.3,0-3.3C21,81.7,21.5,81.5,22.1,81.5z
	 M15.5,88.3c0,3.2,2.6,5.7,5.7,5.7h57.6c3.2,0,5.7-2.6,5.7-5.7V74.2h-1.3v14.1c0,2.5-2,4.5-4.5,4.5H21.2c-2.5,0-4.5-2-4.5-4.5V74.2
	h-1.3L15.5,88.3z M84.7,23.2l-28.8-20c-3.6-2.4-8.2-2.4-11.8,0l-28.7,20c-2.8,2-4.4,5.1-4.4,8.5v15.3h2.6V31.8
	c0-2.5,1.2-4.9,3.3-6.4L45.6,5.3c1.3-0.9,2.8-1.4,4.4-1.4c1.6,0,3.1,0.5,4.4,1.4l28.7,20.1c2.1,1.4,3.3,3.8,3.3,6.4v15.3h2.6V31.8
	C89.1,28.4,87.5,25.2,84.7,23.2z M53.2,80.6h-1V87h1.3v-4.1l3.2,4.1h1v-6.4h-1.3v4L53.2,80.6z M48.6,80.6l3,6.4h-1.4l-0.6-1.5h-3
	L46,87h-1.4l3-6.4H48.6z M49.2,84.5l-1-2.4l-1,2.4H49.2z M34.5,80.5h1.1l3,6.4h-1.4l-0.6-1.5h-3L33,86.9h-1.4L34.5,80.5z M35.1,82.1
	l-1,2.3h2L35.1,82.1z M25.6,80.6v3.8c0,0.1,0,0.3,0,0.4c0.1,1.5,1.4,2.7,2.9,2.5c1.5-0.1,2.6-1.4,2.5-2.9v-3.8h-1.4v3.7
	c0,0.4-0.1,0.8-0.3,1.2c-0.6,0.5-1.5,0.5-2,0c-0.3-0.3-0.4-0.7-0.4-1.2v-3.7H25.6z"/>
<path id="color" fill='#3e0e8f' class="st2" d="M83,59.2c0-0.2,0-0.3-0.1-0.4c0-0.1-0.1-0.2-0.1-0.4l0,0c-0.1-0.1-0.1-0.2-0.2-0.3c0,0,0,0,0,0
	c-0.1-0.1-0.1-0.2-0.2-0.2c-0.1-0.1-0.2-0.1-0.3-0.2c-0.1,0-0.2-0.1-0.3-0.1c-0.2-0.1-0.3-0.1-0.5-0.1c-0.2,0-0.4,0-0.6,0.1
	c-0.1,0-0.2,0.1-0.3,0.1c-0.1,0.1-0.2,0.1-0.3,0.2c-0.1,0-0.2,0.1-0.3,0.2h0l-0.2,0.2c-0.1,0.2-0.3,0.4-0.4,0.6
	c-0.1,0.1-0.1,0.2-0.2,0.4c0,0,0,0,0,0c-0.1,0.1-0.1,0.2-0.1,0.3c-0.1,0.2-0.1,0.5-0.2,0.7c0,0,0,0,0,0.1c-0.1,0.3-0.1,0.6-0.1,0.9
	c0,0,0,0.1,0,0.1c0,0,0,0,0,0.1c0,0,0,0,0,0.1c0,0.2,0,0.3,0,0.5c0,0.1,0,0.2,0,0.4c0,0.1,0,0.2,0,0.3c0,0,0,0.1,0,0.1
	c0,0.1,0,0.1,0,0.2c0,0.1,0,0.1,0.1,0.1c0,0.1,0.1,0.1,0.1,0.2c0,0,0,0.1,0,0.1c0,0.1,0.1,0.1,0.1,0.2c0.1,0.1,0.2,0.3,0.3,0.4
	c0.1,0.1,0.2,0.1,0.3,0.2c0,0,0,0,0,0v0c0,0,0,0,0,0c0.1,0,0.1,0,0.2,0.1c0.1,0,0.1,0,0.2,0c0.1,0,0.3,0,0.4,0c0.4,0,0.7-0.1,1-0.2
	c0.1-0.1,0.2-0.1,0.3-0.2c1-0.8,1.5-2.5,1.5-4.1C83.1,59.7,83.1,59.4,83,59.2z M83,59.2c0-0.2,0-0.3-0.1-0.4c0-0.1-0.1-0.2-0.1-0.4
	l0,0c-0.1-0.1-0.1-0.2-0.2-0.3c0,0,0,0,0,0c-0.1-0.1-0.1-0.2-0.2-0.2c-0.1-0.1-0.2-0.1-0.3-0.2c-0.1,0-0.2-0.1-0.3-0.1
	c-0.2-0.1-0.3-0.1-0.5-0.1c-0.2,0-0.4,0-0.6,0.1c-0.1,0-0.2,0.1-0.3,0.1c-0.1,0.1-0.2,0.1-0.3,0.2c-0.1,0-0.2,0.1-0.3,0.2h0
	l-0.2,0.2c-0.1,0.2-0.3,0.4-0.4,0.6c-0.1,0.1-0.1,0.2-0.2,0.4c0,0,0,0,0,0c-0.1,0.1-0.1,0.2-0.1,0.3c-0.1,0.2-0.1,0.5-0.2,0.7
	c0,0,0,0,0,0.1c-0.1,0.3-0.1,0.6-0.1,0.9c0,0,0,0.1,0,0.1c0,0,0,0,0,0.1c0,0,0,0,0,0.1c0,0.2,0,0.3,0,0.5c0,0.1,0,0.2,0,0.4
	c0,0.1,0,0.2,0,0.3c0,0,0,0.1,0,0.1c0,0.1,0,0.1,0,0.2c0,0.1,0,0.1,0.1,0.1c0,0.1,0.1,0.1,0.1,0.2c0,0,0,0.1,0,0.1
	c0,0.1,0.1,0.1,0.1,0.2c0.1,0.1,0.2,0.3,0.3,0.4c0.1,0.1,0.2,0.1,0.3,0.2c0,0,0,0,0,0v0c0,0,0,0,0,0c0.1,0,0.1,0,0.2,0.1
	c0.1,0,0.1,0,0.2,0c0.1,0,0.3,0,0.4,0c0.4,0,0.7-0.1,1-0.2c0.1-0.1,0.2-0.1,0.3-0.2c1-0.8,1.5-2.5,1.5-4.1
	C83.1,59.7,83.1,59.4,83,59.2z M83,59.2c0-0.2,0-0.3-0.1-0.4c0-0.1-0.1-0.2-0.1-0.4l0,0c-0.1-0.1-0.1-0.2-0.2-0.3c0,0,0,0,0,0
	c-0.1-0.1-0.1-0.2-0.2-0.2c-0.1-0.1-0.2-0.1-0.3-0.2c-0.1,0-0.2-0.1-0.3-0.1c-0.2-0.1-0.3-0.1-0.5-0.1c-0.2,0-0.4,0-0.6,0.1
	c-0.1,0-0.2,0.1-0.3,0.1c-0.1,0.1-0.2,0.1-0.3,0.2c-0.1,0-0.2,0.1-0.3,0.2h0l-0.2,0.2c-0.1,0.2-0.3,0.4-0.4,0.6
	c-0.1,0.1-0.1,0.2-0.2,0.4c0,0,0,0,0,0c-0.1,0.1-0.1,0.2-0.1,0.3c-0.1,0.2-0.1,0.5-0.2,0.7c0,0,0,0,0,0.1c-0.1,0.3-0.1,0.6-0.1,0.9
	c0,0,0,0.1,0,0.1c0,0,0,0,0,0.1c0,0,0,0,0,0.1c0,0.2,0,0.3,0,0.5c0,0.1,0,0.2,0,0.4c0,0.1,0,0.2,0,0.3c0,0,0,0.1,0,0.1
	c0,0.1,0,0.1,0,0.2c0,0.1,0,0.1,0.1,0.1c0,0.1,0.1,0.1,0.1,0.2c0,0,0,0.1,0,0.1c0,0.1,0.1,0.1,0.1,0.2c0.1,0.1,0.2,0.3,0.3,0.4
	c0.1,0.1,0.2,0.1,0.3,0.2c0,0,0,0,0,0v0c0,0,0,0,0,0c0.1,0,0.1,0,0.2,0.1c0.1,0,0.1,0,0.2,0c0.1,0,0.3,0,0.4,0c0.4,0,0.7-0.1,1-0.2
	c0.1-0.1,0.2-0.1,0.3-0.2c1-0.8,1.5-2.5,1.5-4.1C83.1,59.7,83.1,59.4,83,59.2z M83,59.2c0-0.2,0-0.3-0.1-0.4c0-0.1-0.1-0.2-0.1-0.4
	l0,0c-0.1-0.1-0.1-0.2-0.2-0.3c0,0,0,0,0,0c-0.1-0.1-0.1-0.2-0.2-0.2c-0.1-0.1-0.2-0.1-0.3-0.2c-0.1,0-0.2-0.1-0.3-0.1
	c-0.2-0.1-0.3-0.1-0.5-0.1c-0.2,0-0.4,0-0.6,0.1c-0.1,0-0.2,0.1-0.3,0.1c-0.1,0.1-0.2,0.1-0.3,0.2c-0.1,0-0.2,0.1-0.3,0.2h0
	l-0.2,0.2c-0.1,0.2-0.3,0.4-0.4,0.6c-0.1,0.1-0.1,0.2-0.2,0.4c0,0,0,0,0,0c-0.1,0.1-0.1,0.2-0.1,0.3c-0.1,0.2-0.1,0.5-0.2,0.7
	c0,0,0,0,0,0.1c-0.1,0.3-0.1,0.6-0.1,0.9c0,0,0,0.1,0,0.1c0,0,0,0,0,0.1c0,0,0,0,0,0.1c0,0.2,0,0.3,0,0.5c0,0.1,0,0.2,0,0.4
	c0,0.1,0,0.2,0,0.3c0,0,0,0.1,0,0.1c0,0.1,0,0.1,0,0.2c0,0.1,0,0.1,0.1,0.1c0,0.1,0.1,0.1,0.1,0.2c0,0,0,0.1,0,0.1
	c0,0.1,0.1,0.1,0.1,0.2c0.1,0.1,0.2,0.3,0.3,0.4c0.1,0.1,0.2,0.1,0.3,0.2c0,0,0,0,0,0v0c0,0,0,0,0,0c0.1,0,0.1,0,0.2,0.1
	c0.1,0,0.1,0,0.2,0c0.1,0,0.3,0,0.4,0c0.4,0,0.7-0.1,1-0.2c0.1-0.1,0.2-0.1,0.3-0.2c1-0.8,1.5-2.5,1.5-4.1
	C83.1,59.7,83.1,59.4,83,59.2z M83,59.2c0-0.2,0-0.3-0.1-0.4c0-0.1-0.1-0.2-0.1-0.4l0,0c-0.1-0.1-0.1-0.2-0.2-0.3c0,0,0,0,0,0
	c-0.1-0.1-0.1-0.2-0.2-0.2c-0.1-0.1-0.2-0.1-0.3-0.2c-0.1,0-0.2-0.1-0.3-0.1c-0.2-0.1-0.3-0.1-0.5-0.1c-0.2,0-0.4,0-0.6,0.1
	c-0.1,0-0.2,0.1-0.3,0.1c-0.1,0.1-0.2,0.1-0.3,0.2c-0.1,0-0.2,0.1-0.3,0.2h0l-0.2,0.2c-0.1,0.2-0.3,0.4-0.4,0.6
	c-0.1,0.1-0.1,0.2-0.2,0.4c0,0,0,0,0,0c-0.1,0.1-0.1,0.2-0.1,0.3c-0.1,0.2-0.1,0.5-0.2,0.7c0,0,0,0,0,0.1c-0.1,0.3-0.1,0.6-0.1,0.9
	c0,0,0,0.1,0,0.1c0,0,0,0,0,0.1c0,0,0,0,0,0.1c0,0.2,0,0.3,0,0.5c0,0.1,0,0.2,0,0.4c0,0.1,0,0.2,0,0.3c0,0,0,0.1,0,0.1
	c0,0.1,0,0.1,0,0.2c0,0.1,0,0.1,0.1,0.1c0,0.1,0.1,0.1,0.1,0.2c0,0,0,0.1,0,0.1c0,0.1,0.1,0.1,0.1,0.2c0.1,0.1,0.2,0.3,0.3,0.4
	c0.1,0.1,0.2,0.1,0.3,0.2c0,0,0,0,0,0v0c0,0,0,0,0,0c0.1,0,0.1,0,0.2,0.1c0.1,0,0.1,0,0.2,0c0.1,0,0.3,0,0.4,0c0.4,0,0.7-0.1,1-0.2
	c0.1-0.1,0.2-0.1,0.3-0.2c1-0.8,1.5-2.5,1.5-4.1C83.1,59.7,83.1,59.4,83,59.2z M83,59.2c0-0.2,0-0.3-0.1-0.4c0-0.1-0.1-0.2-0.1-0.4
	l0,0c-0.1-0.1-0.1-0.2-0.2-0.3c0,0,0,0,0,0c-0.1-0.1-0.1-0.2-0.2-0.2c-0.1-0.1-0.2-0.1-0.3-0.2c-0.1,0-0.2-0.1-0.3-0.1
	c-0.2-0.1-0.3-0.1-0.5-0.1c-0.2,0-0.4,0-0.6,0.1c-0.1,0-0.2,0.1-0.3,0.1c-0.1,0.1-0.2,0.1-0.3,0.2c-0.1,0-0.2,0.1-0.3,0.2h0
	l-0.2,0.2c-0.1,0.2-0.3,0.4-0.4,0.6c-0.1,0.1-0.1,0.2-0.2,0.4c0,0,0,0,0,0c-0.1,0.1-0.1,0.2-0.1,0.3c-0.1,0.2-0.1,0.5-0.2,0.7
	c0,0,0,0,0,0.1c-0.1,0.3-0.1,0.6-0.1,0.9c0,0,0,0.1,0,0.1c0,0,0,0,0,0.1c0,0,0,0,0,0.1c0,0.2,0,0.3,0,0.5c0,0.1,0,0.2,0,0.4
	c0,0.1,0,0.2,0,0.3c0,0,0,0.1,0,0.1c0,0.1,0,0.1,0,0.2c0,0.1,0,0.1,0.1,0.1c0,0.1,0.1,0.1,0.1,0.2c0,0,0,0.1,0,0.1
	c0,0.1,0.1,0.1,0.1,0.2c0.1,0.1,0.2,0.3,0.3,0.4c0.1,0.1,0.2,0.1,0.3,0.2c0,0,0,0,0,0v0c0,0,0,0,0,0c0.1,0,0.1,0,0.2,0.1
	c0.1,0,0.1,0,0.2,0c0.1,0,0.3,0,0.4,0c0.4,0,0.7-0.1,1-0.2c0.1-0.1,0.2-0.1,0.3-0.2c1-0.8,1.5-2.5,1.5-4.1
	C83.1,59.7,83.1,59.4,83,59.2z M51.3,58.2L51.3,58.2l-1.6,4H52L51.3,58.2z M83,59.2c0-0.2,0-0.3-0.1-0.4c0-0.1-0.1-0.2-0.1-0.4l0,0
	c-0.1-0.1-0.1-0.2-0.2-0.3c0,0,0,0,0,0c-0.1-0.1-0.1-0.2-0.2-0.2c-0.1-0.1-0.2-0.1-0.3-0.2c-0.1,0-0.2-0.1-0.3-0.1
	c-0.2-0.1-0.3-0.1-0.5-0.1c-0.2,0-0.4,0-0.6,0.1c-0.1,0-0.2,0.1-0.3,0.1c-0.1,0.1-0.2,0.1-0.3,0.2c-0.1,0-0.2,0.1-0.3,0.2h0
	l-0.2,0.2c-0.1,0.2-0.3,0.4-0.4,0.6c-0.1,0.1-0.1,0.2-0.2,0.4c0,0,0,0,0,0c-0.1,0.1-0.1,0.2-0.1,0.3c-0.1,0.2-0.1,0.5-0.2,0.7
	c0,0,0,0,0,0.1c-0.1,0.3-0.1,0.6-0.1,0.9c0,0,0,0.1,0,0.1c0,0,0,0,0,0.1c0,0,0,0,0,0.1c0,0.2,0,0.3,0,0.5c0,0.1,0,0.2,0,0.4
	c0,0.1,0,0.2,0,0.3c0,0,0,0.1,0,0.1c0,0.1,0,0.1,0,0.2c0,0.1,0,0.1,0.1,0.1c0,0.1,0.1,0.1,0.1,0.2c0,0,0,0.1,0,0.1
	c0,0.1,0.1,0.1,0.1,0.2c0.1,0.1,0.2,0.3,0.3,0.4c0.1,0.1,0.2,0.1,0.3,0.2c0,0,0,0,0,0v0c0,0,0,0,0,0c0.1,0,0.1,0,0.2,0.1
	c0.1,0,0.1,0,0.2,0c0.1,0,0.3,0,0.4,0c0.4,0,0.7-0.1,1-0.2c0.1-0.1,0.2-0.1,0.3-0.2c1-0.8,1.5-2.5,1.5-4.1
	C83.1,59.7,83.1,59.4,83,59.2z M83,59.2c0-0.2,0-0.3-0.1-0.4c0-0.1-0.1-0.2-0.1-0.4l0,0c-0.1-0.1-0.1-0.2-0.2-0.3c0,0,0,0,0,0
	c-0.1-0.1-0.1-0.2-0.2-0.2c-0.1-0.1-0.2-0.1-0.3-0.2c-0.1,0-0.2-0.1-0.3-0.1c-0.2-0.1-0.3-0.1-0.5-0.1c-0.2,0-0.4,0-0.6,0.1
	c-0.1,0-0.2,0.1-0.3,0.1c-0.1,0.1-0.2,0.1-0.3,0.2c-0.1,0-0.2,0.1-0.3,0.2h0l-0.2,0.2c-0.1,0.2-0.3,0.4-0.4,0.6
	c-0.1,0.1-0.1,0.2-0.2,0.4c0,0,0,0,0,0c-0.1,0.1-0.1,0.2-0.1,0.3c-0.1,0.2-0.1,0.5-0.2,0.7c0,0,0,0,0,0.1c-0.1,0.3-0.1,0.6-0.1,0.9
	c0,0,0,0.1,0,0.1c0,0,0,0,0,0.1c0,0,0,0,0,0.1c0,0.2,0,0.3,0,0.5c0,0.1,0,0.2,0,0.4c0,0.1,0,0.2,0,0.3c0,0,0,0.1,0,0.1
	c0,0.1,0,0.1,0,0.2c0,0.1,0,0.1,0.1,0.1c0,0.1,0.1,0.1,0.1,0.2c0,0,0,0.1,0,0.1c0,0.1,0.1,0.1,0.1,0.2c0.1,0.1,0.2,0.3,0.3,0.4
	c0.1,0.1,0.2,0.1,0.3,0.2c0,0,0,0,0,0v0c0,0,0,0,0,0c0.1,0,0.1,0,0.2,0.1c0.1,0,0.1,0,0.2,0c0.1,0,0.3,0,0.4,0c0.4,0,0.7-0.1,1-0.2
	c0.1-0.1,0.2-0.1,0.3-0.2c1-0.8,1.5-2.5,1.5-4.1C83.1,59.7,83.1,59.4,83,59.2z M51.3,58.2L51.3,58.2l-1.6,4H52L51.3,58.2z
	 M51.3,58.2L51.3,58.2l-1.6,4H52L51.3,58.2z M83,59.2c0-0.2,0-0.3-0.1-0.4c0-0.1-0.1-0.2-0.1-0.4l0,0c-0.1-0.1-0.1-0.2-0.2-0.3
	c0,0,0,0,0,0c-0.1-0.1-0.1-0.2-0.2-0.2c-0.1-0.1-0.2-0.1-0.3-0.2c-0.1,0-0.2-0.1-0.3-0.1c-0.2-0.1-0.3-0.1-0.5-0.1
	c-0.2,0-0.4,0-0.6,0.1c-0.1,0-0.2,0.1-0.3,0.1c-0.1,0.1-0.2,0.1-0.3,0.2c-0.1,0-0.2,0.1-0.3,0.2h0l-0.2,0.2
	c-0.1,0.2-0.3,0.4-0.4,0.6c-0.1,0.1-0.1,0.2-0.2,0.4c0,0,0,0,0,0c-0.1,0.1-0.1,0.2-0.1,0.3c-0.1,0.2-0.1,0.5-0.2,0.7c0,0,0,0,0,0.1
	c-0.1,0.3-0.1,0.6-0.1,0.9c0,0,0,0.1,0,0.1c0,0,0,0,0,0.1c0,0,0,0,0,0.1c0,0.2,0,0.3,0,0.5c0,0.1,0,0.2,0,0.4c0,0.1,0,0.2,0,0.3
	c0,0,0,0.1,0,0.1c0,0.1,0,0.1,0,0.2c0,0.1,0,0.1,0.1,0.1c0,0.1,0.1,0.1,0.1,0.2c0,0,0,0.1,0,0.1c0,0.1,0.1,0.1,0.1,0.2
	c0.1,0.1,0.2,0.3,0.3,0.4c0.1,0.1,0.2,0.1,0.3,0.2c0,0,0,0,0,0v0c0,0,0,0,0,0c0.1,0,0.1,0,0.2,0.1c0.1,0,0.1,0,0.2,0
	c0.1,0,0.3,0,0.4,0c0.4,0,0.7-0.1,1-0.2c0.1-0.1,0.2-0.1,0.3-0.2c1-0.8,1.5-2.5,1.5-4.1C83.1,59.7,83.1,59.4,83,59.2z M83,59.2
	c0-0.2,0-0.3-0.1-0.4c0-0.1-0.1-0.2-0.1-0.4l0,0c-0.1-0.1-0.1-0.2-0.2-0.3c0,0,0,0,0,0c-0.1-0.1-0.1-0.2-0.2-0.2
	c-0.1-0.1-0.2-0.1-0.3-0.2c-0.1,0-0.2-0.1-0.3-0.1c-0.2-0.1-0.3-0.1-0.5-0.1c-0.2,0-0.4,0-0.6,0.1c-0.1,0-0.2,0.1-0.3,0.1
	c-0.1,0.1-0.2,0.1-0.3,0.2c-0.1,0-0.2,0.1-0.3,0.2h0l-0.2,0.2c-0.1,0.2-0.3,0.4-0.4,0.6c-0.1,0.1-0.1,0.2-0.2,0.4c0,0,0,0,0,0
	c-0.1,0.1-0.1,0.2-0.1,0.3c-0.1,0.2-0.1,0.5-0.2,0.7c0,0,0,0,0,0.1c-0.1,0.3-0.1,0.6-0.1,0.9c0,0,0,0.1,0,0.1c0,0,0,0,0,0.1
	c0,0,0,0,0,0.1c0,0.2,0,0.3,0,0.5c0,0.1,0,0.2,0,0.4c0,0.1,0,0.2,0,0.3c0,0,0,0.1,0,0.1c0,0.1,0,0.1,0,0.2c0,0.1,0,0.1,0.1,0.1
	c0,0.1,0.1,0.1,0.1,0.2c0,0,0,0.1,0,0.1c0,0.1,0.1,0.1,0.1,0.2c0.1,0.1,0.2,0.3,0.3,0.4c0.1,0.1,0.2,0.1,0.3,0.2c0,0,0,0,0,0v0
	c0,0,0,0,0,0c0.1,0,0.1,0,0.2,0.1c0.1,0,0.1,0,0.2,0c0.1,0,0.3,0,0.4,0c0.4,0,0.7-0.1,1-0.2c0.1-0.1,0.2-0.1,0.3-0.2
	c1-0.8,1.5-2.5,1.5-4.1C83.1,59.7,83.1,59.4,83,59.2z M51.3,58.2L51.3,58.2l-1.6,4H52L51.3,58.2z M16.8,58.2L16.8,58.2l-1.6,4h2.3
	L16.8,58.2z M51.3,58.2L51.3,58.2l-1.6,4H52L51.3,58.2z M83,59.2c0-0.2,0-0.3-0.1-0.4c0-0.1-0.1-0.2-0.1-0.4l0,0
	c-0.1-0.1-0.1-0.2-0.2-0.3c0,0,0,0,0,0c-0.1-0.1-0.1-0.2-0.2-0.2c-0.1-0.1-0.2-0.1-0.3-0.2c-0.1,0-0.2-0.1-0.3-0.1
	c-0.2-0.1-0.3-0.1-0.5-0.1c-0.2,0-0.4,0-0.6,0.1c-0.1,0-0.2,0.1-0.3,0.1c-0.1,0.1-0.2,0.1-0.3,0.2c-0.1,0-0.2,0.1-0.3,0.2h0
	l-0.2,0.2c-0.1,0.2-0.3,0.4-0.4,0.6c-0.1,0.1-0.1,0.2-0.2,0.4c0,0,0,0,0,0c-0.1,0.1-0.1,0.2-0.1,0.3c-0.1,0.2-0.1,0.5-0.2,0.7
	c0,0,0,0,0,0.1c-0.1,0.3-0.1,0.6-0.1,0.9c0,0,0,0.1,0,0.1c0,0,0,0,0,0.1c0,0,0,0,0,0.1c0,0.2,0,0.3,0,0.5c0,0.1,0,0.2,0,0.4
	c0,0.1,0,0.2,0,0.3c0,0,0,0.1,0,0.1c0,0.1,0,0.1,0,0.2c0,0.1,0,0.1,0.1,0.1c0,0.1,0.1,0.1,0.1,0.2c0,0,0,0.1,0,0.1
	c0,0.1,0.1,0.1,0.1,0.2c0.1,0.1,0.2,0.3,0.3,0.4c0.1,0.1,0.2,0.1,0.3,0.2c0,0,0,0,0,0v0c0,0,0,0,0,0c0.1,0,0.1,0,0.2,0.1
	c0.1,0,0.1,0,0.2,0c0.1,0,0.3,0,0.4,0c0.4,0,0.7-0.1,1-0.2c0.1-0.1,0.2-0.1,0.3-0.2c1-0.8,1.5-2.5,1.5-4.1
	C83.1,59.7,83.1,59.4,83,59.2z M83,59.2c0-0.2,0-0.3-0.1-0.4c0-0.1-0.1-0.2-0.1-0.4l0,0c-0.1-0.1-0.1-0.2-0.2-0.3c0,0,0,0,0,0
	c-0.1-0.1-0.1-0.2-0.2-0.2c-0.1-0.1-0.2-0.1-0.3-0.2c-0.1,0-0.2-0.1-0.3-0.1c-0.2-0.1-0.3-0.1-0.5-0.1c-0.2,0-0.4,0-0.6,0.1
	c-0.1,0-0.2,0.1-0.3,0.1c-0.1,0.1-0.2,0.1-0.3,0.2c-0.1,0-0.2,0.1-0.3,0.2h0l-0.2,0.2c-0.1,0.2-0.3,0.4-0.4,0.6
	c-0.1,0.1-0.1,0.2-0.2,0.4c0,0,0,0,0,0c-0.1,0.1-0.1,0.2-0.1,0.3c-0.1,0.2-0.1,0.5-0.2,0.7c0,0,0,0,0,0.1c-0.1,0.3-0.1,0.6-0.1,0.9
	c0,0,0,0.1,0,0.1c0,0,0,0,0,0.1c0,0,0,0,0,0.1c0,0.2,0,0.3,0,0.5c0,0.1,0,0.2,0,0.4c0,0.1,0,0.2,0,0.3c0,0,0,0.1,0,0.1
	c0,0.1,0,0.1,0,0.2c0,0.1,0,0.1,0.1,0.1c0,0.1,0.1,0.1,0.1,0.2c0,0,0,0.1,0,0.1c0,0.1,0.1,0.1,0.1,0.2c0.1,0.1,0.2,0.3,0.3,0.4
	c0.1,0.1,0.2,0.1,0.3,0.2c0,0,0,0,0,0v0c0,0,0,0,0,0c0.1,0,0.1,0,0.2,0.1c0.1,0,0.1,0,0.2,0c0.1,0,0.3,0,0.4,0c0.4,0,0.7-0.1,1-0.2
	c0.1-0.1,0.2-0.1,0.3-0.2c1-0.8,1.5-2.5,1.5-4.1C83.1,59.7,83.1,59.4,83,59.2z M51.3,58.2L51.3,58.2l-1.6,4H52L51.3,58.2z
	 M16.8,58.2L16.8,58.2l-1.6,4h2.3L16.8,58.2z M17.5,62.2l-0.6-4l0,0v0l-1.6,4h0v0H17.5z M52,62.2l-0.6-4l0,0v0l-1.6,4h0v0H52z
	 M83.1,59.7c0-0.1,0-0.2,0-0.3c0-0.1,0-0.2,0-0.2c0,0,0,0,0,0c0-0.1,0-0.3-0.1-0.4c0,0,0,0,0,0c0-0.1-0.1-0.2-0.1-0.4l0,0
	c-0.1-0.1-0.1-0.2-0.2-0.3c0,0,0,0,0,0c-0.1-0.1-0.1-0.2-0.2-0.2c-0.1-0.1-0.2-0.1-0.3-0.2c-0.1,0-0.2-0.1-0.3-0.1
	c-0.2-0.1-0.3-0.1-0.5-0.1c-0.2,0-0.4,0-0.6,0.1c-0.1,0-0.2,0.1-0.3,0.1c-0.1,0.1-0.2,0.1-0.3,0.2c-0.1,0-0.2,0.1-0.3,0.2h0
	l-0.2,0.2c-0.1,0.2-0.3,0.4-0.4,0.6c-0.1,0.1-0.1,0.2-0.2,0.4c0,0,0,0,0,0c-0.1,0.1-0.1,0.2-0.1,0.3c-0.1,0.2-0.1,0.5-0.2,0.7
	c0,0,0,0,0,0.1c-0.1,0.3-0.1,0.6-0.1,0.9c0,0,0,0.1,0,0.1c0,0,0,0,0,0.1c0,0,0,0,0,0.1c0,0.2,0,0.3,0,0.5c0,0.1,0,0.2,0,0.4
	c0,0.1,0,0.2,0,0.3c0,0,0,0.1,0,0.1c0,0.1,0,0.1,0,0.2c0,0.1,0,0.1,0.1,0.1c0,0.1,0.1,0.1,0.1,0.2c0,0,0,0.1,0,0.1
	c0,0.1,0.1,0.1,0.1,0.2c0.1,0.1,0.2,0.3,0.3,0.4c0.1,0.1,0.2,0.1,0.3,0.2c0,0,0,0,0,0c0,0,0,0,0,0c0.1,0,0.1,0,0.2,0.1
	c0.1,0,0.1,0,0.2,0.1c0.1,0,0.3,0,0.4,0c0.3,0,0.7-0.1,0.9-0.2c0.1-0.1,0.2-0.1,0.3-0.2c0.1,0,0.2-0.1,0.3-0.2
	c0.1-0.1,0.3-0.3,0.4-0.5c0.4-0.5,0.6-1.1,0.7-1.8c0.1-0.5,0.2-1.1,0.2-1.6C83.1,59.9,83.1,59.8,83.1,59.7z M83.1,59.7
	c0-0.1,0-0.2,0-0.3c0-0.1,0-0.2,0-0.2c0,0,0,0,0,0c0-0.1,0-0.3-0.1-0.4c0,0,0,0,0,0c0-0.1-0.1-0.2-0.1-0.4l0,0
	c-0.1-0.1-0.1-0.2-0.2-0.3c0,0,0,0,0,0c-0.1-0.1-0.1-0.2-0.2-0.2c-0.1-0.1-0.2-0.1-0.3-0.2c-0.1,0-0.2-0.1-0.3-0.1
	c-0.2-0.1-0.3-0.1-0.5-0.1c-0.2,0-0.4,0-0.6,0.1c-0.1,0-0.2,0.1-0.3,0.1c-0.1,0.1-0.2,0.1-0.3,0.2c-0.1,0-0.2,0.1-0.3,0.2h0
	l-0.2,0.2c-0.1,0.2-0.3,0.4-0.4,0.6c-0.1,0.1-0.1,0.2-0.2,0.4c0,0,0,0,0,0c-0.1,0.1-0.1,0.2-0.1,0.3c-0.1,0.2-0.1,0.5-0.2,0.7
	c0,0,0,0,0,0.1c-0.1,0.3-0.1,0.6-0.1,0.9c0,0,0,0.1,0,0.1c0,0,0,0,0,0.1c0,0,0,0,0,0.1c0,0.2,0,0.3,0,0.5c0,0.1,0,0.2,0,0.4
	c0,0.1,0,0.2,0,0.3c0,0,0,0.1,0,0.1c0,0.1,0,0.1,0,0.2c0,0.1,0,0.1,0.1,0.1c0,0.1,0.1,0.2,0.1,0.3c0,0.1,0.1,0.1,0.1,0.2
	c0.1,0.1,0.2,0.3,0.3,0.4c0.1,0.1,0.2,0.1,0.3,0.2c0,0,0,0,0,0c0,0,0,0,0,0c0.1,0,0.1,0,0.2,0.1c0.1,0,0.1,0,0.2,0.1
	c0.1,0,0.3,0,0.4,0c0.3,0,0.7-0.1,0.9-0.2c0.1-0.1,0.2-0.1,0.3-0.2c0.1,0,0.2-0.1,0.3-0.2c0.1-0.1,0.3-0.3,0.4-0.5
	c0.4-0.5,0.6-1.1,0.7-1.8c0.1-0.5,0.2-1.1,0.2-1.6C83.1,59.9,83.1,59.8,83.1,59.7z M52,62.2l-0.6-4l0,0v0l-1.6,4h0v0H52z M17.5,62.2
	l-0.6-4l0,0v0l-1.6,4h0v0H17.5z M0,49.1v23h100v-23H0z M7.3,66.3L7.3,66.3c-1.2,0-2.3-0.4-3.2-1.2L5,63.5c0.7,0.6,1.6,0.9,2.4,0.8
	c1.1,0,1.6-0.5,1.6-1.2c0-0.7-0.6-1-1.3-1.3c-1.4-0.3-2.4-1.6-2.4-3c0-1.8,1.4-3.3,3.1-3.3c0.2,0,0.3,0,0.5,0c1.1,0,2.2,0.4,3,1
	l-1.1,1.4c-0.5-0.4-1.1-0.7-1.8-0.7c-0.8,0-1.3,0.4-1.3,1c0,0.6,0.6,0.9,1.4,1.2c1.4,0.3,2.3,1.5,2.4,2.9
	C11.5,64.9,9.8,66.3,7.3,66.3z M18.1,66.1l-0.4-2.2h-3.3l-0.9,2.2h-2.2l4.8-10.2c0.4-0.2,0.8-0.3,1.2-0.3c0.7,0,1.4,0.6,1.4,1.3
	l1.8,9.2H18.1z M24.6,66.1h-2.3l1.2-8.6h-2.2l0.3-1.8h6.9l-0.3,1.8h-2.4L24.6,66.1z M31.8,56.7L30.4,66h-2.3l1.4-10.1
	c0.4-0.2,0.8-0.3,1.2-0.3c0.5-0.1,0.9,0.3,1,0.7v0.2C31.8,56.6,31.8,56.6,31.8,56.7L31.8,56.7z M36.9,59.8v-0.1
	c1.4,0.3,2.3,1.5,2.4,2.9c0,2.2-1.7,3.6-4.1,3.6c-1.2,0-2.3-0.4-3.2-1.1l0.8-1.4c0.7,0.6,1.6,0.9,2.4,0.8c1.1,0,1.6-0.5,1.6-1.2
	s-0.6-1-1.3-1.3c-1.4-0.3-2.4-1.6-2.4-3c0-1.8,1.4-3.3,3.1-3.3c0.2,0,0.3,0,0.5,0c1.1,0,2.2,0.4,3,1l-1.1,1.4
	c-0.5-0.4-1.1-0.7-1.8-0.7c-0.8,0-1.3,0.4-1.3,1C35.5,59.1,36.1,59.5,36.9,59.8z M42.6,66h-2.4l1.4-10.3h5.9l-0.3,1.8h-3.5l-0.4,2.9
	h2.9l-0.3,1.8h-2.9L42.6,66z M52.7,66l-0.4-2.2h-3.4L48,66h-2.2l4.8-10.2c0.4-0.2,0.8-0.3,1.2-0.3c0.7,0,1.4,0.6,1.4,1.3L55,66H52.7
	z M59.9,64.4l0.1-0.1c0.9,0,1.8-0.3,2.5-0.8l0.7,1.7c-1,0.8-2.3,1.2-3.5,1.2c-2.5,0-3.8-1.7-3.8-4.2c0-3.4,1.7-6.4,4.9-6.4
	c1.4-0.1,2.7,0.7,3.2,2l-2.2,0.7c-0.2-0.7-0.6-1-1.1-1c-1.4,0-2.3,2.5-2.3,4.5C58.3,63.6,59,64.4,59.9,64.4z M68.1,66.1h-2.3
	l1.2-8.6h-2.4l0.3-1.8h6.9l-0.3,1.9l-2.2-0.1L68.1,66.1z M74,66h-2.4L73,55.9c0.4-0.2,0.8-0.3,1.2-0.3c0.5-0.1,0.9,0.3,1,0.7v0.2
	c0,0.1,0.1,0.2,0.1,0.3l0.1-0.1L74,66z M85.5,59.8c0,3.7-1.9,6.4-5.3,6.4c-2.1,0.2-3.9-1.3-4.1-3.4c0-0.3,0-0.6,0-0.8
	c0-3.6,1.9-6.4,5.4-6.4c2.1-0.2,3.9,1.4,4.1,3.4C85.6,59.3,85.6,59.6,85.5,59.8z M94.4,66.1h-1.8l-3.3-6.3l-0.8,6.3h-2.2L87.7,56
	c0.3-0.2,0.7-0.3,1.1-0.3c0.5,0,1,0.3,1.2,0.8l2.9,5.6l0.8-6.2h2.2L94.4,66.1z M83.1,59.5c0-0.1,0-0.2,0-0.2c0,0,0,0,0,0
	c0-0.1,0-0.3-0.1-0.4c0,0,0,0,0,0c0-0.1-0.1-0.2-0.1-0.4l0,0c-0.1-0.1-0.1-0.2-0.2-0.3c0,0,0,0,0,0c-0.1-0.1-0.1-0.2-0.2-0.2
	c-0.1-0.1-0.2-0.1-0.3-0.2c-0.1,0-0.2-0.1-0.3-0.1c-0.2-0.1-0.3-0.1-0.5-0.1c-0.2,0-0.4,0-0.6,0.1c-0.1,0-0.2,0.1-0.3,0.1
	c-0.1,0.1-0.2,0.1-0.3,0.2c-0.1,0-0.2,0.1-0.3,0.2h0l-0.2,0.2c-0.1,0.2-0.3,0.4-0.4,0.6c-0.1,0.1-0.1,0.2-0.2,0.4c0,0,0,0,0,0
	c-0.1,0.1-0.1,0.2-0.1,0.3c-0.1,0.2-0.1,0.5-0.2,0.7c0,0,0,0,0,0.1c-0.1,0.3-0.1,0.6-0.1,0.9c0,0,0,0.1,0,0.1c0,0,0,0,0,0.1
	c0,0,0,0,0,0.1c0,0.2,0,0.3,0,0.5c0,0.1,0,0.2,0,0.4c0,0.1,0,0.2,0,0.3c0,0,0,0.1,0,0.1c0,0.1,0,0.1,0,0.2c0,0.1,0,0.1,0.1,0.1
	c0,0.1,0.1,0.2,0.1,0.3c0,0.1,0.1,0.1,0.1,0.2c0.1,0.1,0.2,0.3,0.3,0.4c0.1,0.1,0.2,0.1,0.3,0.2c0,0,0,0,0,0c0,0,0,0,0,0
	c0.1,0,0.1,0,0.2,0.1c0.1,0,0.1,0,0.2,0.1c0.1,0,0.3,0,0.4,0c0.3,0,0.7-0.1,0.9-0.2c0.1-0.1,0.2-0.1,0.3-0.2c0.1,0,0.2-0.1,0.3-0.2
	c0.1-0.1,0.3-0.3,0.4-0.5c0.4-0.5,0.6-1.1,0.7-1.8c0.1-0.5,0.2-1.1,0.2-1.6c0-0.1,0-0.1,0-0.2C83.1,59.6,83.1,59.6,83.1,59.5z
	 M51.3,58.2L51.3,58.2l-1.6,4h0v0H52L51.3,58.2L51.3,58.2z M16.8,58.2L16.8,58.2l-1.6,4h0v0h2.3L16.8,58.2L16.8,58.2z M17.5,62.2
	l-0.6-4l0,0v0l-1.6,4h0v0H17.5z M52,62.2l-0.6-4l0,0v0l-1.6,4h0v0H52z M83.1,59.7c0-0.1,0-0.2,0-0.3c0-0.1,0-0.2,0-0.2c0,0,0,0,0,0
	c0-0.1,0-0.3-0.1-0.4c0,0,0,0,0,0c0-0.1-0.1-0.2-0.1-0.4l0,0c-0.1-0.1-0.1-0.2-0.2-0.3c0,0,0,0,0,0c-0.1-0.1-0.1-0.2-0.2-0.2
	c-0.1-0.1-0.2-0.1-0.3-0.2c-0.1,0-0.2-0.1-0.3-0.1c-0.2-0.1-0.3-0.1-0.5-0.1c-0.2,0-0.4,0-0.6,0.1c-0.1,0-0.2,0.1-0.3,0.1
	c-0.1,0.1-0.2,0.1-0.3,0.2c-0.1,0-0.2,0.1-0.3,0.2h0l-0.2,0.2c-0.1,0.2-0.3,0.4-0.4,0.6c-0.1,0.1-0.1,0.2-0.2,0.4c0,0,0,0,0,0
	c-0.1,0.1-0.1,0.2-0.1,0.3c-0.1,0.2-0.1,0.5-0.2,0.7c0,0,0,0,0,0.1c-0.1,0.3-0.1,0.6-0.1,0.9c0,0,0,0.1,0,0.1c0,0,0,0,0,0.1
	c0,0,0,0,0,0.1c0,0.2,0,0.3,0,0.5c0,0.1,0,0.2,0,0.4c0,0.1,0,0.2,0,0.3c0,0,0,0.1,0,0.1c0,0.1,0,0.1,0,0.2c0,0.1,0,0.1,0.1,0.1
	c0,0.1,0.1,0.1,0.1,0.2c0,0,0,0.1,0,0.1c0,0.1,0.1,0.1,0.1,0.2c0.1,0.1,0.2,0.3,0.3,0.4c0.1,0.1,0.2,0.1,0.3,0.2c0,0,0,0,0,0
	c0,0,0,0,0,0c0.1,0,0.1,0,0.2,0.1c0.1,0,0.1,0,0.2,0.1c0.1,0,0.3,0,0.4,0c0.3,0,0.7-0.1,0.9-0.2c0.1-0.1,0.2-0.1,0.3-0.2
	c0.1,0,0.2-0.1,0.3-0.2c0.1-0.1,0.3-0.3,0.4-0.5c0.4-0.5,0.6-1.1,0.7-1.8c0.1-0.5,0.2-1.1,0.2-1.6C83.1,59.9,83.1,59.8,83.1,59.7z
	 M83.1,59.7c0-0.1,0-0.2,0-0.3c0-0.1,0-0.2,0-0.2c0,0,0,0,0,0c0-0.1,0-0.3-0.1-0.4c0,0,0,0,0,0c0-0.1-0.1-0.2-0.1-0.4l0,0
	c-0.1-0.1-0.1-0.2-0.2-0.3c0,0,0,0,0,0c-0.1-0.1-0.1-0.2-0.2-0.2c-0.1-0.1-0.2-0.1-0.3-0.2c-0.1,0-0.2-0.1-0.3-0.1
	c-0.2-0.1-0.3-0.1-0.5-0.1l0,0c-0.2,0-0.5,0-0.7,0.1c-0.1,0-0.2,0.1-0.3,0.1c-0.1,0.1-0.2,0.1-0.3,0.2c-0.1,0-0.2,0.1-0.3,0.2
	c-0.3,0.3-0.6,0.7-0.8,1.2c0,0,0,0,0,0c-0.1,0.3-0.3,0.7-0.3,1c-0.1,0.3-0.1,0.7-0.2,1c0,0,0,0,0,0.1c0,0.2,0,0.4,0,0.5
	c0,0.2,0,0.5,0,0.7c0,0,0,0.1,0,0.1c0,0.1,0,0.1,0,0.2c0,0.1,0,0.1,0.1,0.1c0,0.1,0.1,0.2,0.1,0.3c0,0.1,0.1,0.1,0.1,0.2
	c0.1,0.1,0.2,0.3,0.3,0.4c0.1,0.1,0.2,0.1,0.3,0.2c0,0,0,0,0,0v0c0,0,0,0,0,0c0.1,0,0.1,0,0.2,0.1c0.1,0,0.1,0,0.2,0c0,0,0,0,0,0
	c0.1,0,0.3,0,0.4,0c0.3,0,0.7-0.1,0.9-0.2c0.1-0.1,0.2-0.1,0.3-0.2c0.1,0,0.2-0.1,0.3-0.2c0.1-0.1,0.3-0.3,0.4-0.5
	c0.4-0.5,0.6-1.1,0.7-1.8c0.1-0.5,0.2-1.1,0.2-1.6C83.1,59.9,83.1,59.8,83.1,59.7z M51.3,58.2L51.3,58.2l-1.6,4v0H52L51.3,58.2z
	 M16.8,58.2L16.8,58.2l-1.6,4v0h2.3L16.8,58.2z M51.3,58.2L51.3,58.2l-1.6,4v0H52L51.3,58.2z M83.1,59.5c0-0.1,0-0.2,0-0.2
	c0,0,0,0,0,0c0-0.1,0-0.3-0.1-0.4c0,0,0,0,0,0c0-0.1-0.1-0.2-0.1-0.4l0,0c-0.1-0.1-0.1-0.2-0.2-0.3c0,0,0,0,0,0
	c-0.1-0.1-0.1-0.2-0.2-0.2c-0.1-0.1-0.2-0.1-0.3-0.2c-0.1,0-0.2-0.1-0.3-0.1c-0.2-0.1-0.3-0.1-0.5-0.1l0,0c-0.2,0-0.5,0-0.7,0.1
	c-0.1,0-0.2,0.1-0.3,0.1c-0.1,0.1-0.2,0.1-0.3,0.2c-0.1,0-0.2,0.1-0.3,0.2h0l-0.2,0.2c-0.1,0.2-0.3,0.4-0.4,0.6
	c-0.1,0.1-0.1,0.2-0.2,0.4c0,0,0,0,0,0c-0.1,0.1-0.1,0.2-0.1,0.3c-0.1,0.2-0.1,0.5-0.2,0.7c-0.1,0.3-0.1,0.7-0.2,1c0,0,0,0,0,0.1
	c0,0.2,0,0.4,0,0.5c0,0.2,0,0.5,0.1,0.7c0,0,0,0.1,0,0.1c0,0.1,0,0.1,0,0.2c0,0.1,0,0.1,0.1,0.1c0,0.1,0.1,0.1,0.1,0.2
	c0,0,0,0.1,0,0.1c0,0.1,0.1,0.1,0.1,0.2c0.1,0.1,0.2,0.3,0.3,0.4c0.1,0.1,0.2,0.1,0.3,0.2c0,0,0,0,0,0c0,0,0,0,0,0
	c0.1,0,0.1,0,0.2,0.1c0.1,0,0.1,0,0.2,0.1c0.1,0,0.3,0,0.4,0c0.3,0,0.7-0.1,0.9-0.2c0.1-0.1,0.2-0.1,0.3-0.2c0.1,0,0.2-0.1,0.3-0.2
	c0.1-0.1,0.3-0.3,0.4-0.5c0.1-0.1,0.1-0.3,0.2-0.4c0-0.1,0.1-0.1,0.1-0.2c0.2-0.4,0.3-0.8,0.4-1.2c0.1-0.5,0.2-1.1,0.2-1.6v-0.2
	C83.1,59.6,83.1,59.5,83.1,59.5z M83.1,59.5c0-0.1,0-0.2,0-0.2c0,0,0,0,0,0c0-0.1,0-0.3-0.1-0.4c0,0,0,0,0,0c0-0.1-0.1-0.2-0.1-0.4
	l0,0c-0.1-0.1-0.1-0.2-0.2-0.3c0,0,0,0,0,0c-0.1-0.1-0.1-0.2-0.2-0.2c-0.1-0.1-0.2-0.1-0.3-0.2c-0.1,0-0.2-0.1-0.3-0.1
	c-0.2-0.1-0.3-0.1-0.5-0.1l0,0c-0.2,0-0.5,0-0.7,0.1c-0.1,0-0.2,0.1-0.3,0.1c-0.1,0.1-0.2,0.1-0.3,0.2c-0.1,0-0.2,0.1-0.3,0.2h0
	l-0.2,0.2c-0.1,0.2-0.3,0.4-0.4,0.6c-0.1,0.1-0.1,0.2-0.2,0.4c0,0,0,0,0,0c-0.1,0.1-0.1,0.2-0.1,0.3c-0.1,0.2-0.1,0.5-0.2,0.7
	c-0.1,0.3-0.1,0.7-0.2,1c0,0,0,0,0,0.1c0,0.2,0,0.4,0,0.5c0,0.2,0,0.5,0.1,0.7c0,0,0,0.1,0,0.1c0,0.1,0,0.1,0,0.2
	c0,0.1,0,0.1,0.1,0.1c0,0.1,0.1,0.1,0.1,0.2c0,0,0,0.1,0,0.1c0,0.1,0.1,0.1,0.1,0.2c0.1,0.1,0.2,0.3,0.3,0.4
	c0.1,0.1,0.2,0.1,0.3,0.2c0,0,0,0,0,0c0,0,0,0,0,0c0.1,0,0.1,0,0.2,0.1c0.1,0,0.1,0,0.2,0.1c0.1,0,0.3,0,0.4,0
	c0.3,0,0.7-0.1,0.9-0.2c0.1-0.1,0.2-0.1,0.3-0.2c0.1,0,0.2-0.1,0.3-0.2c0.1-0.1,0.3-0.3,0.4-0.5c0.1-0.1,0.1-0.3,0.2-0.4
	c0-0.1,0.1-0.1,0.1-0.2c0.2-0.4,0.3-0.8,0.4-1.2c0.1-0.5,0.2-1.1,0.2-1.6v-0.2C83.1,59.6,83.1,59.5,83.1,59.5z M51.3,58.2L51.3,58.2
	l-1.6,4v0H52L51.3,58.2z M51.3,58.2L51.3,58.2l-1.6,4v0H52L51.3,58.2z M83.1,59.5c0-0.1,0-0.2,0-0.2c0,0,0,0,0,0
	c0-0.1,0-0.3-0.1-0.4c0,0,0,0,0,0c0-0.1-0.1-0.2-0.1-0.4l0,0c-0.1-0.1-0.1-0.2-0.2-0.3c0,0,0,0,0,0c-0.1-0.1-0.1-0.2-0.2-0.2
	c-0.1-0.1-0.2-0.1-0.3-0.2c-0.1,0-0.2-0.1-0.3-0.1c-0.2-0.1-0.3-0.1-0.5-0.1l0,0c-0.2,0-0.5,0-0.7,0.1c-0.1,0-0.2,0.1-0.3,0.1
	c-0.1,0.1-0.2,0.1-0.3,0.2c-0.1,0-0.2,0.1-0.3,0.2h0l-0.2,0.2c-0.1,0.2-0.3,0.4-0.4,0.6c-0.1,0.1-0.1,0.2-0.2,0.4c0,0,0,0,0,0
	c-0.1,0.1-0.1,0.2-0.1,0.3c-0.1,0.2-0.1,0.5-0.2,0.7c-0.1,0.3-0.1,0.7-0.2,1c0,0,0,0,0,0.1c0,0.2,0,0.4,0,0.5c0,0.2,0,0.5,0.1,0.7
	c0,0,0,0.1,0,0.1c0,0.1,0,0.1,0,0.2c0,0.1,0,0.1,0.1,0.1c0,0.1,0.1,0.1,0.1,0.2c0,0,0,0.1,0,0.1c0,0.1,0.1,0.1,0.1,0.2
	c0.1,0.1,0.2,0.3,0.3,0.4c0.1,0.1,0.2,0.1,0.3,0.2c0,0,0,0,0,0c0,0,0,0,0,0c0.1,0,0.1,0,0.2,0.1c0.1,0,0.1,0,0.2,0.1
	c0.1,0,0.3,0,0.4,0c0.3,0,0.7-0.1,0.9-0.2c0.1-0.1,0.2-0.1,0.3-0.2c0.1,0,0.2-0.1,0.3-0.2c0.1-0.1,0.3-0.3,0.4-0.5
	c0.1-0.1,0.1-0.3,0.2-0.4c0-0.1,0.1-0.1,0.1-0.2c0.2-0.4,0.3-0.8,0.4-1.2c0.1-0.5,0.2-1.1,0.2-1.6v-0.2
	C83.1,59.6,83.1,59.5,83.1,59.5z M83.1,59.5c0-0.1,0-0.2,0-0.2c0,0,0,0,0,0c0-0.1,0-0.3-0.1-0.4c0,0,0,0,0,0c0-0.1-0.1-0.2-0.1-0.4
	l0,0c-0.1-0.1-0.1-0.2-0.2-0.3c0,0,0,0,0,0c-0.1-0.1-0.1-0.2-0.2-0.2c-0.1-0.1-0.2-0.1-0.3-0.2c-0.1,0-0.2-0.1-0.3-0.1
	c-0.2-0.1-0.3-0.1-0.5-0.1l0,0c-0.2,0-0.5,0-0.7,0.1c-0.1,0-0.2,0.1-0.3,0.1c-0.1,0.1-0.2,0.1-0.3,0.2c-0.1,0-0.2,0.1-0.3,0.2h0
	l-0.2,0.2c-0.1,0.2-0.3,0.4-0.4,0.6c-0.1,0.1-0.1,0.2-0.2,0.4c0,0,0,0,0,0c-0.1,0.1-0.1,0.2-0.1,0.3c-0.1,0.2-0.1,0.5-0.2,0.7
	c-0.1,0.3-0.1,0.7-0.2,1c0,0,0,0,0,0.1c0,0.2,0,0.4,0,0.5c0,0.2,0,0.5,0.1,0.7c0,0,0,0.1,0,0.1c0,0.1,0,0.1,0,0.2
	c0,0.1,0,0.1,0.1,0.1c0,0.1,0.1,0.1,0.1,0.2c0,0,0,0.1,0,0.1c0,0.1,0.1,0.1,0.1,0.2c0.1,0.1,0.2,0.3,0.3,0.4
	c0.1,0.1,0.2,0.1,0.3,0.2c0,0,0,0,0,0c0,0,0,0,0,0c0.1,0,0.1,0,0.2,0.1c0.1,0,0.1,0,0.2,0.1c0.1,0,0.3,0,0.4,0
	c0.3,0,0.7-0.1,0.9-0.2c0.1-0.1,0.2-0.1,0.3-0.2c0.1,0,0.2-0.1,0.3-0.2c0.1-0.1,0.3-0.3,0.4-0.5c0.1-0.1,0.1-0.3,0.2-0.4
	c0-0.1,0.1-0.1,0.1-0.2c0.2-0.4,0.3-0.8,0.4-1.2c0.1-0.5,0.2-1.1,0.2-1.6v-0.2C83.1,59.6,83.1,59.5,83.1,59.5z M51.3,58.2L51.3,58.2
	l-1.6,4v0H52L51.3,58.2z M51.3,58.2L51.3,58.2l-1.6,4v0H52L51.3,58.2z M83.1,59.5c0-0.1,0-0.2,0-0.2c0,0,0,0,0,0
	c0-0.1,0-0.3-0.1-0.4c0,0,0,0,0,0c0-0.1-0.1-0.2-0.1-0.4l0,0c-0.1-0.1-0.1-0.2-0.2-0.3c0,0,0,0,0,0c-0.1-0.1-0.1-0.2-0.2-0.2
	c-0.1-0.1-0.2-0.1-0.3-0.2c-0.1,0-0.2-0.1-0.3-0.1c-0.2-0.1-0.3-0.1-0.5-0.1l0,0c-0.2,0-0.5,0-0.7,0.1c-0.1,0-0.2,0.1-0.3,0.1
	c-0.1,0.1-0.2,0.1-0.3,0.2c-0.1,0-0.2,0.1-0.3,0.2h0l-0.2,0.2c-0.1,0.2-0.3,0.4-0.4,0.6c-0.1,0.1-0.1,0.2-0.2,0.4c0,0,0,0,0,0
	c-0.1,0.1-0.1,0.2-0.1,0.3c-0.1,0.2-0.1,0.5-0.2,0.7c-0.1,0.3-0.1,0.7-0.2,1c0,0,0,0,0,0.1c0,0.2,0,0.4,0,0.5c0,0.2,0,0.5,0.1,0.7
	c0,0,0,0.1,0,0.1c0,0.1,0,0.1,0,0.2c0,0.1,0,0.1,0.1,0.1c0,0.1,0.1,0.1,0.1,0.2c0,0,0,0.1,0,0.1c0,0.1,0.1,0.1,0.1,0.2
	c0.1,0.1,0.2,0.3,0.3,0.4c0.1,0.1,0.2,0.1,0.3,0.2c0,0,0,0,0,0c0,0,0,0,0,0c0.1,0,0.1,0,0.2,0.1c0.1,0,0.1,0,0.2,0.1
	c0.1,0,0.3,0,0.4,0c0.3,0,0.7-0.1,0.9-0.2c0.1-0.1,0.2-0.1,0.3-0.2c0.1,0,0.2-0.1,0.3-0.2c0.1-0.1,0.3-0.3,0.4-0.5
	c0.1-0.1,0.1-0.3,0.2-0.4c0-0.1,0.1-0.1,0.1-0.2c0.2-0.4,0.3-0.8,0.4-1.2c0.1-0.5,0.2-1.1,0.2-1.6v-0.2
	C83.1,59.6,83.1,59.5,83.1,59.5z M83.1,59.5c0-0.1,0-0.2,0-0.2c0,0,0,0,0,0c0-0.1,0-0.3-0.1-0.4c0,0,0,0,0,0c0-0.1-0.1-0.2-0.1-0.4
	l0,0c-0.1-0.1-0.1-0.2-0.2-0.3c0,0,0,0,0,0c-0.1-0.1-0.1-0.2-0.2-0.2c-0.1-0.1-0.2-0.1-0.3-0.2c-0.1,0-0.2-0.1-0.3-0.1
	c-0.2-0.1-0.3-0.1-0.5-0.1l0,0c-0.2,0-0.5,0-0.7,0.1c-0.1,0-0.2,0.1-0.3,0.1c-0.1,0.1-0.2,0.1-0.3,0.2c-0.1,0-0.2,0.1-0.3,0.2h0
	l-0.2,0.2c-0.1,0.2-0.3,0.4-0.4,0.6c-0.1,0.1-0.1,0.2-0.2,0.4c0,0,0,0,0,0c-0.1,0.1-0.1,0.2-0.1,0.3c-0.1,0.2-0.1,0.5-0.2,0.7
	c-0.1,0.3-0.1,0.7-0.2,1c0,0,0,0,0,0.1c0,0.2,0,0.4,0,0.5c0,0.2,0,0.5,0.1,0.7c0,0,0,0.1,0,0.1c0,0.1,0,0.1,0,0.2
	c0,0.1,0,0.1,0.1,0.1c0,0.1,0.1,0.1,0.1,0.2c0,0,0,0.1,0,0.1c0,0.1,0.1,0.1,0.1,0.2c0.1,0.1,0.2,0.3,0.3,0.4
	c0.1,0.1,0.2,0.1,0.3,0.2c0,0,0,0,0,0c0,0,0,0,0,0c0.1,0,0.1,0,0.2,0.1c0.1,0,0.1,0,0.2,0.1c0.1,0,0.3,0,0.4,0
	c0.3,0,0.7-0.1,0.9-0.2c0.1-0.1,0.2-0.1,0.3-0.2c0.1,0,0.2-0.1,0.3-0.2c0.1-0.1,0.3-0.3,0.4-0.5c0.1-0.1,0.1-0.3,0.2-0.4
	c0-0.1,0.1-0.1,0.1-0.2c0.2-0.4,0.3-0.8,0.4-1.2c0.1-0.5,0.2-1.1,0.2-1.6v-0.2C83.1,59.6,83.1,59.5,83.1,59.5z M51.3,58.2L51.3,58.2
	l-1.6,4v0H52L51.3,58.2z M83.1,59.5c0-0.1,0-0.2,0-0.2c0,0,0,0,0,0c0-0.1,0-0.3-0.1-0.4c0,0,0,0,0,0c0-0.1-0.1-0.2-0.1-0.4l0,0
	c-0.1-0.1-0.1-0.2-0.2-0.3c0,0,0,0,0,0c-0.1-0.1-0.1-0.2-0.2-0.2c-0.1-0.1-0.2-0.1-0.3-0.2c-0.1,0-0.2-0.1-0.3-0.1
	c-0.2-0.1-0.3-0.1-0.5-0.1l0,0c-0.2,0-0.5,0-0.7,0.1c-0.1,0-0.2,0.1-0.3,0.1c-0.1,0.1-0.2,0.1-0.3,0.2c-0.1,0-0.2,0.1-0.3,0.2h0
	l-0.2,0.2c-0.1,0.2-0.3,0.4-0.4,0.6c-0.1,0.1-0.1,0.2-0.2,0.4c0,0,0,0,0,0c-0.1,0.1-0.1,0.2-0.1,0.3c-0.1,0.2-0.1,0.5-0.2,0.7
	c-0.1,0.3-0.1,0.7-0.2,1c0,0,0,0,0,0.1c0,0.2,0,0.4,0,0.5c0,0.2,0,0.5,0.1,0.7c0,0,0,0.1,0,0.1c0,0.1,0,0.1,0,0.2
	c0,0.1,0,0.1,0.1,0.1c0,0.1,0.1,0.1,0.1,0.2c0,0,0,0.1,0,0.1c0,0.1,0.1,0.1,0.1,0.2c0.1,0.1,0.2,0.3,0.3,0.4
	c0.1,0.1,0.2,0.1,0.3,0.2c0,0,0,0,0,0c0,0,0,0,0,0c0.1,0,0.1,0,0.2,0.1c0.1,0,0.1,0,0.2,0.1c0.1,0,0.3,0,0.4,0
	c0.3,0,0.7-0.1,0.9-0.2c0.1-0.1,0.2-0.1,0.3-0.2c0.1,0,0.2-0.1,0.3-0.2c0.1-0.1,0.3-0.3,0.4-0.5c0.1-0.1,0.1-0.3,0.2-0.4
	c0-0.1,0.1-0.1,0.1-0.2c0.2-0.4,0.3-0.8,0.4-1.2c0.1-0.5,0.2-1.1,0.2-1.6v-0.2C83.1,59.6,83.1,59.5,83.1,59.5z M83.1,59.5
	c0-0.1,0-0.2,0-0.2c0,0,0,0,0,0c0-0.1,0-0.3-0.1-0.4c0,0,0,0,0,0c0-0.1-0.1-0.2-0.1-0.4l0,0c-0.1-0.1-0.1-0.2-0.2-0.3c0,0,0,0,0,0
	c-0.1-0.1-0.1-0.2-0.2-0.2c-0.1-0.1-0.2-0.1-0.3-0.2c-0.1,0-0.2-0.1-0.3-0.1c-0.2-0.1-0.3-0.1-0.5-0.1l0,0c-0.2,0-0.5,0-0.7,0.1
	c-0.1,0-0.2,0.1-0.3,0.1c-0.1,0.1-0.2,0.1-0.3,0.2c-0.1,0-0.2,0.1-0.3,0.2h0l-0.2,0.2c-0.1,0.2-0.3,0.4-0.4,0.6
	c-0.1,0.1-0.1,0.2-0.2,0.4c0,0,0,0,0,0c-0.1,0.1-0.1,0.2-0.1,0.3c-0.1,0.2-0.1,0.5-0.2,0.7c-0.1,0.3-0.1,0.7-0.2,1c0,0,0,0,0,0.1
	c0,0.2,0,0.4,0,0.5c0,0.2,0,0.5,0.1,0.7c0,0,0,0.1,0,0.1c0,0.1,0,0.1,0,0.2c0,0.1,0,0.1,0.1,0.1c0,0.1,0.1,0.1,0.1,0.2
	c0,0,0,0.1,0,0.1c0,0.1,0.1,0.1,0.1,0.2c0.1,0.1,0.2,0.3,0.3,0.4c0.1,0.1,0.2,0.1,0.3,0.2c0,0,0,0,0,0c0,0,0,0,0,0
	c0.1,0,0.1,0,0.2,0.1c0.1,0,0.1,0,0.2,0.1c0.1,0,0.3,0,0.4,0c0.3,0,0.7-0.1,0.9-0.2c0.1-0.1,0.2-0.1,0.3-0.2c0.1,0,0.2-0.1,0.3-0.2
	c0.1-0.1,0.3-0.3,0.4-0.5c0.1-0.1,0.1-0.3,0.2-0.4c0-0.1,0.1-0.1,0.1-0.2c0.2-0.4,0.3-0.8,0.4-1.2c0.1-0.5,0.2-1.1,0.2-1.6v-0.2
	C83.1,59.6,83.1,59.5,83.1,59.5z M83.1,59.5c0-0.1,0-0.2,0-0.2c0,0,0,0,0,0c0-0.1,0-0.3-0.1-0.4c0,0,0,0,0,0c0-0.1-0.1-0.2-0.1-0.4
	l0,0c-0.1-0.1-0.1-0.2-0.2-0.3c0,0,0,0,0,0c-0.1-0.1-0.1-0.2-0.2-0.2c-0.1-0.1-0.2-0.1-0.3-0.2c-0.1,0-0.2-0.1-0.3-0.1
	c-0.2-0.1-0.3-0.1-0.5-0.1l0,0c-0.2,0-0.5,0-0.7,0.1c-0.1,0-0.2,0.1-0.3,0.1c-0.1,0.1-0.2,0.1-0.3,0.2c-0.1,0-0.2,0.1-0.3,0.2h0
	l-0.2,0.2c-0.1,0.2-0.3,0.4-0.4,0.6c-0.1,0.1-0.1,0.2-0.2,0.4c0,0,0,0,0,0c-0.1,0.1-0.1,0.2-0.1,0.3c-0.1,0.2-0.1,0.5-0.2,0.7
	c-0.1,0.3-0.1,0.7-0.2,1c0,0,0,0,0,0.1c0,0.2,0,0.4,0,0.5c0,0.2,0,0.5,0.1,0.7c0,0,0,0.1,0,0.1c0,0.1,0,0.1,0,0.2
	c0,0.1,0,0.1,0.1,0.1c0,0.1,0.1,0.1,0.1,0.2c0,0,0,0.1,0,0.1c0,0.1,0.1,0.1,0.1,0.2c0.1,0.1,0.2,0.3,0.3,0.4
	c0.1,0.1,0.2,0.1,0.3,0.2c0,0,0,0,0,0c0,0,0,0,0,0c0.1,0,0.1,0,0.2,0.1c0.1,0,0.1,0,0.2,0.1c0.1,0,0.3,0,0.4,0
	c0.3,0,0.7-0.1,0.9-0.2c0.1-0.1,0.2-0.1,0.3-0.2c0.1,0,0.2-0.1,0.3-0.2c0.1-0.1,0.3-0.3,0.4-0.5c0.1-0.1,0.1-0.3,0.2-0.4
	c0-0.1,0.1-0.1,0.1-0.2c0.2-0.4,0.3-0.8,0.4-1.2c0.1-0.5,0.2-1.1,0.2-1.6v-0.2C83.1,59.6,83.1,59.5,83.1,59.5z M83.1,59.5
	c0-0.1,0-0.2,0-0.2c0,0,0,0,0,0c0-0.1,0-0.3-0.1-0.4c0,0,0,0,0,0c0-0.1-0.1-0.2-0.1-0.4l0,0c-0.1-0.1-0.1-0.2-0.2-0.3c0,0,0,0,0,0
	c-0.1-0.1-0.1-0.2-0.2-0.2c-0.1-0.1-0.2-0.1-0.3-0.2c-0.1,0-0.2-0.1-0.3-0.1c-0.2-0.1-0.3-0.1-0.5-0.1l0,0c-0.2,0-0.5,0-0.7,0.1
	c-0.1,0-0.2,0.1-0.3,0.1c-0.1,0.1-0.2,0.1-0.3,0.2c-0.1,0-0.2,0.1-0.3,0.2h0l-0.2,0.2c-0.1,0.2-0.3,0.4-0.4,0.6
	c-0.1,0.1-0.1,0.2-0.2,0.4c0,0,0,0,0,0c-0.1,0.1-0.1,0.2-0.1,0.3c-0.1,0.2-0.1,0.5-0.2,0.7c-0.1,0.3-0.1,0.7-0.2,1c0,0,0,0,0,0.1
	c0,0.2,0,0.4,0,0.5c0,0.2,0,0.5,0.1,0.7c0,0,0,0.1,0,0.1c0,0.1,0,0.1,0,0.2c0,0.1,0,0.1,0.1,0.1c0,0.1,0.1,0.1,0.1,0.2
	c0,0,0,0.1,0,0.1c0,0.1,0.1,0.1,0.1,0.2c0.1,0.1,0.2,0.3,0.3,0.4c0.1,0.1,0.2,0.1,0.3,0.2c0,0,0,0,0,0c0,0,0,0,0,0
	c0.1,0,0.1,0,0.2,0.1c0.1,0,0.1,0,0.2,0.1c0.1,0,0.3,0,0.4,0c0.3,0,0.7-0.1,0.9-0.2c0.1-0.1,0.2-0.1,0.3-0.2c0.1,0,0.2-0.1,0.3-0.2
	c0.1-0.1,0.3-0.3,0.4-0.5c0.1-0.1,0.1-0.3,0.2-0.4c0-0.1,0.1-0.1,0.1-0.2c0.2-0.4,0.3-0.8,0.4-1.2c0.1-0.5,0.2-1.1,0.2-1.6v-0.2
	C83.1,59.6,83.1,59.5,83.1,59.5z M42.7,39.5c-0.2,0-0.3,0.1-0.3,0.3v0c0,0.2,0.1,0.3,0.3,0.3S43,40,43,39.8v0
	C43,39.6,42.8,39.5,42.7,39.5z M42.7,39.5c-0.2,0-0.3,0.1-0.3,0.3v0c0,0.2,0.1,0.3,0.3,0.3S43,40,43,39.8v0
	C43,39.6,42.8,39.5,42.7,39.5z M43.8,27.4h-6.3c-0.6,0-1,0.4-1,1V41c0,0.6,0.4,1,1,1h6.3c0.6,0,1-0.4,1-1V28.4
	C44.7,27.9,44.3,27.4,43.8,27.4z M43.6,39.8c0,0.5-0.4,0.9-0.9,0.9c-0.5,0-0.9-0.4-0.9-0.9v0c0-0.5,0.4-0.9,0.9-0.9c0,0,0,0,0,0
	C43.1,38.9,43.5,39.3,43.6,39.8L43.6,39.8z M42.7,39.5c-0.2,0-0.3,0.1-0.3,0.3v0c0,0.2,0.1,0.3,0.3,0.3S43,40,43,39.8v0
	C43,39.6,42.8,39.5,42.7,39.5z M42.7,39.5c-0.2,0-0.3,0.1-0.3,0.3v0c0,0.2,0.1,0.3,0.3,0.3S43,40,43,39.8v0
	C43,39.6,42.8,39.5,42.7,39.5z M42.7,39.5c-0.2,0-0.3,0.1-0.3,0.3v0c0,0.2,0.1,0.3,0.3,0.3S43,40,43,39.8v0
	C43,39.6,42.8,39.5,42.7,39.5z M61.3,34.7h0.3c1,0,1.9-0.8,1.9-1.9c0-1-0.9-1.9-2-1.9h-0.9c1,0,1.9-0.9,1.9-1.9c0-1-0.9-1.9-1.9-1.9
	h-6.2c0.7-1.7,1.2-3.4,1.2-5.3c0.1-1.4-0.5-3.6-1.2-4c-0.7-0.4-2.9-0.8-2.9,1.8c0.2,1.7-0.3,3.4-1.2,4.8c-0.4,0.4-1.5,1.5-2.3,2.2
	c-1.1,1-1.8,2.5-1.9,4c-0.1,3.5-0.6,7.6,0.4,9.2c0.6,0.9,1.4,1.6,2.5,1.8c1.8,0.4,3.6,0.7,5.5,0.7h5.8c0,0,0,0,0,0
	c1,0,1.9-0.8,1.9-1.9c0,0,0,0,0,0v-0.1c0-1-0.9-1.9-1.9-1.9h0.9c1,0,1.9-0.9,1.9-1.9c0,0,0,0,0,0v0C63.2,35.6,62.3,34.7,61.3,34.7z"
	/>
</svg>
