<?xml version="1.0" encoding="utf-8"?>
<!-- Generator: Adobe Illustrator 24.1.1, SVG Export Plug-In . SVG Version: 6.00 Build 0)  -->
<svg version="1.1" id="Layer_1" xmlns="http://www.w3.org/2000/svg" xmlns:xlink="http://www.w3.org/1999/xlink" x="0px" y="0px"
	 viewBox="0 0 100 100" style="enable-background:new 0 0 100 100;" xml:space="preserve">
<style type="text/css">
	.st0{fill:#FFFFFF;}
	
</style>
<rect class="st0" width="100" height="100"/>
<path id="bg" d="M86.5,74.2h2.6v14.1c0,5.7-4.6,10.3-10.3,10.3H21.3C15.6,98.6,11,94,11,88.3V74.2h2.6v14.1c0,4.3,3.4,7.8,7.8,7.8
	h57.5c4.3,0,7.8-3.4,7.8-7.8V74.2H86.5z M84.5,47V31.7c0-1.9-0.9-3.7-2.4-4.7L53.3,6.8c-2-1.4-4.6-1.4-6.6,0L18,26.9
	c-1.6,1-2.4,2.9-2.4,4.7V47h1.3V31.7c0.1-1.4,0.9-2.9,2-3.7L47.6,8c1.6-1.1,3.6-1.1,5.2,0l28.7,20c1.1,0.9,1.9,2.3,1.9,3.7V47H84.5z
	 M15.4,88.3c0,3.2,2.6,5.7,5.7,5.7h57.6c3.2,0,5.7-2.6,5.7-5.7V74.2h-1.3v14.1c0,2.4-2,4.5-4.5,4.6H21.3c-2.4,0-4.5-2-4.5-4.6V74.2
	h-1.4V88.3z M84.8,23.2L56,3.2c-3.6-2.4-8.2-2.4-11.8,0l-28.9,20c-2.7,1.9-4.5,5.2-4.5,8.5V47h2.6V31.7c0-2.6,1.3-4.9,3.3-6.3
	L45.5,5.2c1.3-0.9,2.9-1.4,4.5-1.4s3.2,0.6,4.5,1.4l28.7,20.1c2.2,1.4,3.3,3.9,3.3,6.3V47h2.6V31.7C89.1,28.2,87.5,25.1,84.8,23.2z
	 M21.6,85.2c-0.6-0.3-1-0.8-1.3-1.4c-0.3-0.6-0.5-1.3-0.5-2.1c0-0.8,0.2-1.5,0.5-2.1c0.3-0.6,0.8-1.1,1.3-1.4c0.6-0.3,1.3-0.5,2-0.5
	c0.5,0,1,0.1,1.5,0.2c0.5,0.2,0.9,0.4,1.2,0.7l-0.5,1c-0.4-0.3-0.7-0.5-1.1-0.6c-0.4-0.1-0.7-0.2-1.1-0.2c-0.8,0-1.3,0.2-1.8,0.7
	c-0.4,0.5-0.6,1.2-0.6,2.1c0,0.9,0.2,1.6,0.6,2.1c0.4,0.5,1,0.7,1.8,0.7c0.4,0,0.8-0.1,1.1-0.2c0.4-0.1,0.7-0.3,1.1-0.6l0.5,1
	c-0.3,0.3-0.7,0.5-1.2,0.7c-0.5,0.2-1,0.2-1.5,0.2C22.9,85.7,22.2,85.6,21.6,85.2z M33.1,77.7h1.4v7.9h-1.4v-3.4h-4v3.4h-1.4v-7.9
	h1.4V81h4V77.7z M36.2,85.6v-7.9h5.3v1.1h-3.9v2.2h3.6v1.1h-3.6v2.3h3.9v1.1H36.2z M44.3,85.2c-0.6-0.3-1-0.8-1.3-1.4
	c-0.3-0.6-0.5-1.3-0.5-2.1c0-0.8,0.2-1.5,0.5-2.1c0.3-0.6,0.8-1.1,1.3-1.4c0.6-0.3,1.3-0.5,2-0.5c0.5,0,1,0.1,1.5,0.2
	c0.5,0.2,0.9,0.4,1.2,0.7l-0.5,1c-0.4-0.3-0.7-0.5-1.1-0.6c-0.4-0.1-0.7-0.2-1.1-0.2c-0.8,0-1.3,0.2-1.8,0.7
	C44.2,80,44,80.7,44,81.7c0,0.9,0.2,1.6,0.6,2.1c0.4,0.5,1,0.7,1.8,0.7c0.4,0,0.8-0.1,1.1-0.2c0.4-0.1,0.7-0.3,1.1-0.6l0.5,1
	c-0.3,0.3-0.7,0.5-1.2,0.7c-0.5,0.2-1,0.2-1.5,0.2C45.6,85.7,44.9,85.6,44.3,85.2z M57.2,85.6h-1.7l-3.7-3.7v3.7h-1.4v-7.9h1.4v3.5
	l3.5-3.5H57l-3.8,3.8L57.2,85.6z M58.9,85.2c-0.6-0.3-1-0.8-1.3-1.4c-0.3-0.6-0.5-1.3-0.5-2.2c0-0.8,0.2-1.5,0.5-2.1
	c0.3-0.6,0.7-1.1,1.3-1.4c0.6-0.3,1.2-0.5,2-0.5c0.8,0,1.4,0.2,2,0.5c0.6,0.3,1,0.8,1.3,1.4c0.3,0.6,0.4,1.3,0.4,2.1
	c0,0.8-0.2,1.5-0.5,2.2c-0.3,0.6-0.7,1.1-1.3,1.4c-0.6,0.3-1.2,0.5-2,0.5C60.2,85.7,59.5,85.6,58.9,85.2z M62.6,83.8
	c0.4-0.5,0.6-1.2,0.6-2.2c0-0.9-0.2-1.6-0.6-2.1c-0.4-0.5-1-0.7-1.7-0.7c-0.7,0-1.3,0.2-1.7,0.7c-0.4,0.5-0.6,1.2-0.6,2.1
	c0,0.9,0.2,1.7,0.6,2.2c0.4,0.5,1,0.8,1.7,0.8C61.6,84.6,62.2,84.3,62.6,83.8z M66.9,84.9c-0.6-0.6-0.8-1.4-0.8-2.4v-4.7h1.4v4.8
	c0,0.7,0.2,1.2,0.5,1.5c0.3,0.4,0.8,0.5,1.4,0.5c0.6,0,1.1-0.2,1.4-0.5c0.3-0.4,0.5-0.9,0.5-1.5v-4.8h1.4v4.7c0,1.1-0.3,1.9-0.8,2.4
	c-0.6,0.6-1.4,0.8-2.4,0.8C68.3,85.7,67.5,85.4,66.9,84.9z M76.1,85.6v-6.7h-2.6v-1.2h6.6v1.2h-2.6v6.7H76.1z"/>
<path id="color" fill='#3e0e8f' class="st1" d="M49.9,16.9c-4.3,0-7.9,3.4-7.9,7.8v1.6h2.9v-1.4c0-2.7,2.3-5,5-5s5,2.3,5,5v1.4h2.9v-1.4
	C57.8,20.5,54.3,16.9,49.9,16.9z M58.6,27.5H40.8c-0.9,0-1.4,0.6-1.4,1.4v11.9c0,0.9,0.6,1.4,1.4,1.4h17.8c0.9,0,1.4-0.6,1.4-1.4
	V28.9C60.1,28.1,59.5,27.5,58.6,27.5z M50.7,35.7V39h-2v-3.3c-0.9-0.4-1.4-1.3-1.4-2.3c0-1.3,1.1-2.4,2.4-2.4c1.3,0,2.4,1.1,2.4,2.4
	C52.2,34.4,51.6,35.3,50.7,35.7z M65.9,56.7h-1l-0.4,3.2h0.7c1,0.1,2-0.6,2.2-1.7c0-0.1,0-0.1,0-0.3C67.4,57.1,67,56.7,65.9,56.7z
	 M65.9,56.7h-1l-0.4,3.2h0.7c1,0.1,2-0.6,2.2-1.7c0-0.1,0-0.1,0-0.3C67.4,57.1,67,56.7,65.9,56.7z M65.9,56.7h-1l-0.4,3.2h0.7
	c1,0.1,2-0.6,2.2-1.7c0-0.1,0-0.1,0-0.3C67.4,57.1,67,56.7,65.9,56.7z M65.9,56.7h-1l-0.4,3.2h0.7c1,0.1,2-0.6,2.2-1.7
	c0-0.1,0-0.1,0-0.3C67.4,57.1,67,56.7,65.9,56.7z M65.9,56.7h-1l-0.4,3.2h0.7c1,0.1,2-0.6,2.2-1.7c0-0.1,0-0.1,0-0.3
	C67.4,57.1,67,56.7,65.9,56.7z M65.9,56.7h-1l-0.4,3.2h0.7c1,0.1,2-0.6,2.2-1.7c0-0.1,0-0.1,0-0.3C67.4,57.1,67,56.7,65.9,56.7z
	 M65.9,56.7h-1l-0.4,3.2h0.7c1,0.1,2-0.6,2.2-1.7c0-0.1,0-0.1,0-0.3C67.4,57.1,67,56.7,65.9,56.7z M65.9,56.7h-1l-0.4,3.2h0.7
	c1,0.1,2-0.6,2.2-1.7c0-0.1,0-0.1,0-0.3C67.4,57.1,67,56.7,65.9,56.7z M0,49v23h100V49H0z M29,59.2c1.4,0.3,2.6,1.7,2.6,3.2
	c0,2.4-1.9,3.9-4.6,3.9c-1.3,0-2.6-0.4-3.4-1.3l0.9-1.7c0.7,0.7,1.7,1,2.7,1c1.3,0,1.7-0.6,1.7-1.3s-0.7-1.1-1.4-1.4
	c-1.6-0.4-2.6-1.7-2.6-3.3c0-2.3,1.6-3.6,4-3.6c1.1,0,2.4,0.4,3.3,1.1l-1.3,1.7c-0.6-0.4-1.3-0.7-2-0.7c-0.7-0.1-1.3,0.4-1.4,1.1
	C27.4,58.7,28.2,59,29,59.2z M40.8,56.8h-4.2l-0.4,2.6h3.7l-0.3,2h-3.7l-0.4,2.9H40l-0.3,2h-6.9l1.6-11.4h6.8L40.8,56.8z M45.8,64.4
	c1,0,2-0.4,2.9-1.1l0.9,1.9c-1.1,0.9-2.4,1.3-3.9,1.3c-2.7,0-4.2-1.7-4.2-4.6c0-3.7,1.9-7,5.3-7c1.6-0.1,3,0.9,3.4,2.3L47.8,58
	c-0.3-0.7-0.6-1.1-1.3-1.1c-1.7,0-2.6,2.9-2.6,5C44,63.6,44.7,64.4,45.8,64.4z M60.3,55.9l-0.9,6c-0.1,2.4-2.3,4.5-4.7,4.3
	c0,0,0,0-0.1,0c-1.9,0.3-3.6-1-3.9-2.9v-1.6l1-6.9c0.4-0.3,0.9-0.4,1.3-0.4c0.6,0,1,0.3,1,0.9v0.1c0,0,0,0.1,0,0.3L53.6,62v0.7
	c0,1.1,0.6,1.7,1.4,1.7c1.3,0,2-1,2.3-2.6l1-6.8c0.4-0.3,0.9-0.3,1.3-0.4c0.6,0,1,0.3,1,0.9C60.3,55.7,60.3,55.8,60.3,55.9z
	 M69.5,63v0.6l-0.1,1.3v0.4c0,0.3,0,0.4,0.1,0.7c-0.6,0.3-1,0.4-1.6,0.4s-1-0.3-1-0.9c0-0.1,0-0.1,0-0.3c0-0.1,0-0.1,0-0.3l0.1-1.3
	v-0.4c0-0.9-0.6-1.4-1.3-1.6h-1.4l-0.9,4.6h-2.6l1.6-11.4c1-0.1,2.9-0.1,3.6-0.1c2.4,0,3.9,1,3.9,2.7c0,1.4-0.7,2.7-2,3.3
	C69,61.3,69.5,62.1,69.5,63z M79,56.8h-4.2l-0.4,2.7h3.7l-0.3,2h-3.7l-0.4,2.9h4.5l-0.3,1.9H71l1.6-11.4h6.8L79,56.8z M65.9,56.7h-1
	l-0.4,3.2h0.7c1,0.1,2-0.6,2.2-1.7c0-0.1,0-0.1,0-0.3C67.4,57.1,67,56.7,65.9,56.7z M65.9,56.7h-1l-0.4,3.2h0.7c1,0.1,2-0.6,2.2-1.7
	c0-0.1,0-0.1,0-0.3C67.4,57.1,67,56.7,65.9,56.7z M65.9,56.7h-1l-0.4,3.2h0.7c1,0.1,2-0.6,2.2-1.7c0-0.1,0-0.1,0-0.3
	C67.4,57.1,67,56.7,65.9,56.7z M65.9,56.7h-1l-0.4,3.2h0.7c1,0.1,2-0.6,2.2-1.7c0-0.1,0-0.1,0-0.3C67.4,57.1,67,56.7,65.9,56.7z
	 M65.9,56.7h-1l-0.4,3.2h0.7c1,0.1,2-0.6,2.2-1.7c0-0.1,0-0.1,0-0.3C67.4,57.1,67,56.7,65.9,56.7z M65.9,56.7h-1l-0.4,3.2h0.7
	c1,0.1,2-0.6,2.2-1.7c0-0.1,0-0.1,0-0.3C67.4,57.1,67,56.7,65.9,56.7z M65.9,56.7h-1l-0.4,3.2h0.7c1,0.1,2-0.6,2.2-1.7
	c0-0.1,0-0.1,0-0.3C67.4,57.1,67,56.7,65.9,56.7z M65.9,56.7h-1l-0.4,3.2h0.7c1,0.1,2-0.6,2.2-1.7c0-0.1,0-0.1,0-0.3
	C67.4,57.1,67,56.7,65.9,56.7z M65.9,56.7h-1l-0.4,3.2h0.7c1,0.1,2-0.6,2.2-1.7c0-0.1,0-0.1,0-0.3C67.4,57.1,67,56.7,65.9,56.7z
	 M34.3,32.2l-2.2-0.4l-1-2l-1,2L28,32.1l1.6,1.6l-0.4,2.2l2-1l2,1l-0.4-2.2L34.3,32.2z M71.3,32.2l-2.2-0.4l-1-2l-0.9,2L65,32.1
	l1.6,1.6l-0.4,2.2l2-1l2,1l-0.4-2.2L71.3,32.2z"/>
</svg>
